<?xml version="1.0" encoding="utf-8"?>
<!-- Generator: Adobe Illustrator 24.0.1, SVG Export Plug-In . SVG Version: 6.00 Build 0)  -->
<svg version="1.1" id="Capa_1" xmlns="http://www.w3.org/2000/svg" xmlns:xlink="http://www.w3.org/1999/xlink" x="0px" y="0px"
	 viewBox="0 0 504.69 431.08" style="enable-background:new 0 0 504.69 431.08;" xml:space="preserve">
<style type="text/css">
	.st0{fill:#003244;}
	.st1{fill:#EF0743;}
</style>
<g>
	<g>
		<g>
			<path class="st0" d="M492.8,415.08v-48c0-30.87-25.13-56-56-56c0,0,0,0-0.01,0l-23.99,0.02v-13c28.64-16.62,47.99-47.54,48-82.98
				c0-0.01,0-0.01,0-0.01v-72.03c0-23.74-17.34-43.46-40-47.28V71.08c0-4.42-3.58-8-8-8h-64c-0.04,0-0.07,0.02-0.1,0.02
				c-44.06,0.06-79.9,35.91-79.9,79.98v72.02c0,35.44,19.35,66.38,48,83v13l-23.99-0.02c-0.01,0-0.01,0-0.01,0
				c-30.87,0-56,25.13-56,56v16.03h-7.99v-112c0-13.23-10.77-24-24-24h-168c-13.23,0-24,10.77-24,24v135.98
				c0,2.82,0.58,5.48,1.47,7.98 M284.8,143.08c0-35.28,28.71-63.98,64-63.98l0,0c0.03,0,0.05-0.02,0.08-0.02h55.92v24
				c0,4.42,3.58,8,8,8c17.65,0,32,14.35,32,32v20.69l-10.34-10.34c-0.11-0.11-0.25-0.14-0.36-0.23c-0.42-0.38-0.89-0.64-1.37-0.91
				c-0.44-0.25-0.84-0.52-1.3-0.69c-0.48-0.17-0.96-0.2-1.46-0.28c-0.52-0.08-1.02-0.18-1.54-0.16c-0.49,0.02-0.94,0.17-1.42,0.27
				c-0.54,0.14-1.07,0.24-1.58,0.49c-0.14,0.06-0.28,0.06-0.42,0.13c-0.28,0.15-28.31,15.04-60.21,15.04
				c-31.74,0-59.94-14.9-60.22-15.05c-0.14-0.07-0.27-0.06-0.41-0.13c-0.5-0.23-1.03-0.35-1.58-0.48c-0.49-0.12-0.95-0.26-1.46-0.28
				c-0.5-0.02-0.96,0.08-1.46,0.15c-0.52,0.07-1.04,0.12-1.54,0.3c-0.45,0.16-0.84,0.43-1.26,0.67c-0.49,0.28-0.96,0.54-1.38,0.92
				c-0.11,0.1-0.25,0.13-0.36,0.23l-10.34,10.35V143.08z M284.8,215.09v-28.7l17.63-17.63c10.47,4.77,34.85,14.32,62.37,14.32
				s51.9-9.55,62.37-14.32l17.63,17.63v28.7c0,44.1-35.89,79.98-80,79.98S284.8,259.2,284.8,215.09z M396.8,305.48v10.3
				l-10.16,10.15h-43.68l-10.16-10.15v-10.3c10.02,3.56,20.77,5.6,32,5.6h0C376.03,311.08,386.78,309.04,396.8,305.48z
				 M252.8,367.08c0-22.06,17.94-40,40-40l28.69,0.02l13.66,13.64c0.13,0.13,0.3,0.17,0.43,0.28c0.52,0.47,1.1,0.83,1.73,1.15
				c0.26,0.13,0.5,0.28,0.76,0.38c0.87,0.32,1.78,0.53,2.74,0.53c0.83,0,1.69-0.14,2.53-0.42l42.94,0.01
				c0.84,0.27,1.7,0.41,2.53,0.41c0.95,0,1.86-0.21,2.74-0.53c0.27-0.1,0.5-0.26,0.76-0.38c0.63-0.31,1.2-0.68,1.73-1.15
				c0.14-0.12,0.3-0.16,0.43-0.28l13.66-13.64l28.68-0.02c22.06,0,40,17.94,40,40v48H307.34c0.89-2.5,1.46-5.17,1.46-7.97v-16
				c0-4.42-3.58-8-8-8h-48V367.08z M228.8,407.16c0-0.02,0.02-0.04,0.02-0.06v-7.98h63.98v8c0,4.36-3.5,7.88-7.84,7.97h-57.62
				C228.22,412.58,228.8,409.94,228.8,407.16z M28.81,271.11c0-4.42,3.58-8,8-8h168c4.42,0,8,3.58,8,8v119.96
				c0,0.02-0.01,0.02-0.01,0.04c0,0.02,0.01,0.02,0.01,0.04v15.92c0,0.02-0.01,0.02-0.01,0.04c0,4.36-3.5,7.88-7.84,7.97H36.73
				c-4.38-0.05-7.92-3.59-7.92-7.98V271.11z M14.28,415.08 M492.8,415.08"/>
		</g>
		<g>
			<path class="st1" d="M163.74,303.54c-0.01-0.13-0.03-0.26-0.06-0.37c-0.01-0.05-0.02-0.1-0.04-0.14
				c-0.05-0.14-0.12-0.27-0.22-0.38c-0.11-0.12-0.25-0.21-0.42-0.28c-0.33-0.12-0.79-0.15-1.45-0.15c-2.49,0-13.3-0.01-16.01,0.01
				c-0.05,0-0.11,0-0.16,0c-1.29,0.08-1.54,0.74-1.93,2.29c-0.8,3.27-19.52,71.13-19.53,71.13h13.67h0.01
				c4.26,0,7.06-3.26,8.37-7.22c0.39-1.16,3.9-13.85,7.68-27.48c4.28-15.41,8.92-32.26,9.81-35.54c0.1-0.31,0.18-0.72,0.23-1.04
				c0.04-0.23,0.06-0.46,0.06-0.65C163.75,303.67,163.75,303.6,163.74,303.54"/>
			<path class="st1" d="M117.69,303.54c-0.01-0.13-0.03-0.26-0.06-0.37c-0.01-0.05-0.02-0.1-0.04-0.14
				c-0.05-0.14-0.12-0.26-0.21-0.36c-0.01-0.01-0.01-0.01-0.02-0.02c-0.11-0.11-0.24-0.2-0.41-0.27c-0.01,0-0.02-0.01-0.04-0.01
				c-0.14-0.05-0.31-0.08-0.51-0.1c-0.06-0.01-0.11-0.01-0.17-0.02c-0.21-0.02-0.45-0.03-0.73-0.03h-0.02c-0.31,0-0.76,0-1.3,0
				c-3.68,0-11.86-0.01-14.48,0.01c-0.07,0-0.16,0-0.22,0c-0.05,0-0.11,0-0.16,0c-1.29,0.08-1.54,0.74-1.93,2.29
				c-0.81,3.27-19.52,71.13-19.53,71.13h13.67h0.01c4.26,0,7.06-3.26,8.37-7.22c0.39-1.16,3.9-13.85,7.68-27.48
				c0.02-0.08,0.05-0.16,0.07-0.24c4.26-15.34,8.86-32.03,9.74-35.3c0.1-0.31,0.18-0.72,0.23-1.04c0.04-0.23,0.06-0.46,0.06-0.65
				C117.69,303.67,117.69,303.6,117.69,303.54"/>
		</g>
		<path class="st0" d="M190.55,36.76c-10.26-2.05-18.02-9.81-20.07-20.07c0-0.23-0.23-0.45-0.45-0.45s-0.23,0.23-0.46,0.45
			c-2.05,10.26-9.8,18.02-20.07,20.07c-0.23,0-0.46,0.23-0.46,0.45c0,0.23,0.23,0.23,0.46,0.46c10.26,2.05,18.02,9.8,20.07,20.07
			c0,0.23,0.23,0.46,0.46,0.46s0.23-0.23,0.45-0.46c2.05-10.26,9.81-18.01,20.07-20.07c0.23,0,0.45-0.23,0.45-0.46
			C191.01,36.76,190.78,36.76,190.55,36.76z"/>
		<path class="st0" d="M49.9,187.56h-4.1v-4.11c0-3.19-2.51-5.7-5.7-5.7c-3.19,0-5.7,2.51-5.7,5.7v4.11h-4.33
			c-3.19,0-5.7,2.51-5.7,5.7c0,3.19,2.51,5.7,5.7,5.7h4.33v4.33c0,3.19,2.51,5.7,5.7,5.7c3.19,0,5.7-2.74,5.7-5.7v-4.33h4.1
			c3.19,0,5.7-2.51,5.7-5.7C55.6,190.07,53.1,187.56,49.9,187.56z"/>
		<path class="st0" d="M208.8,96.06c-1.6,0-2.97-0.69-4.11-1.59c-0.23-0.23-0.45-0.46-0.68-0.91c-0.23-0.23-0.46-0.69-0.46-0.91
			c-0.23-0.45-0.23-0.69-0.23-1.14s-0.23-0.69-0.23-1.14s0-0.69,0.23-1.14c0-0.45,0.23-0.69,0.23-1.14
			c0.23-0.45,0.23-0.69,0.46-0.91c0.23-0.23,0.45-0.68,0.68-0.91c1.6-1.59,4.11-2.05,6.16-1.14c0.23,0.23,0.68,0.23,0.91,0.46
			c0.23,0.23,0.69,0.45,0.91,0.68c0.23,0.23,0.46,0.46,0.69,0.91c0.23,0.23,0.45,0.69,0.45,0.91c0.23,0.23,0.23,0.69,0.23,1.14
			s0,0.69,0.23,1.14c0,0.45,0,0.69-0.23,1.14c0,0.45-0.23,0.69-0.23,1.14c-0.23,0.45-0.23,0.69-0.45,0.91
			c-0.23,0.23-0.46,0.68-0.69,0.91c-0.23,0.23-0.45,0.45-0.91,0.68c-0.23,0.23-0.68,0.46-0.91,0.46c-0.46,0.23-0.69,0.23-1.14,0.23
			C209.48,96.06,209.25,96.06,208.8,96.06z"/>
		<path class="st0" d="M196.71,189.17c-1.59,0-2.96-0.68-4.1-1.59c-0.23-0.23-0.46-0.46-0.69-0.91c-0.23-0.23-0.45-0.69-0.45-0.91
			c-0.23-0.45-0.23-0.68-0.23-1.14c0-0.45-0.23-0.68-0.23-1.14c0-0.45,0-0.68,0.23-1.14c0-0.45,0.23-0.68,0.23-1.14
			c0.23-0.45,0.23-0.68,0.45-0.91c0.23-0.23,0.45-0.68,0.69-0.91c1.59-1.6,4.1-2.05,6.16-1.14c0.23,0.23,0.69,0.23,0.91,0.45
			c0.23,0.23,0.68,0.45,0.91,0.69c0.23,0.23,0.45,0.45,0.68,0.91c0.23,0.23,0.46,0.69,0.46,0.91c0.23,0.23,0.23,0.69,0.23,1.14
			c0,0.46,0,0.69,0.23,1.14c0,0.46,0,0.69-0.23,1.14c0,0.46-0.23,0.69-0.23,1.14c-0.23,0.46-0.23,0.69-0.46,0.91
			s-0.45,0.69-0.68,0.91c-0.23,0.23-0.46,0.45-0.91,0.68c-0.23,0.23-0.69,0.46-0.91,0.46c-0.45,0.23-0.69,0.23-1.14,0.23
			C197.39,189.17,197.17,189.17,196.71,189.17z"/>
		<path class="st0" d="M177.73,121.26c-0.3-5.32-4.82-9.43-10.03-9.19h-2.92c-12.21,0-24.06-3.51-34.26-10.17
			c-29-18.9-37.33-57.97-18.62-87.02c1.3-1.82,1.83-4.26,1.49-6.96c-0.41-2.44-1.77-4.6-3.84-6.08c-2.12-1.52-4.8-2.15-7.37-1.71
			c-36,6.31-62.98,37.51-64.14,74.18c-1.63,43.01,32.17,79.34,75.43,80.98h2.74c22.74,0,44.32-9.89,59.21-27.15l0.11-0.14
			c1.46-2.04,2.2-4.27,2.2-6.64L177.73,121.26z M86.85,43.69c-2.93,41.41,27.11,77.69,67.74,83.07
			c-5.72,4.38-12.34,7.82-19.38,10.04c-16.18,5.18-33.36,3.73-48.39-4.07c-14.84-7.7-25.75-20.69-30.73-36.58
			c-9.87-31.49,6.4-65.18,36.51-77.33C89.15,27.03,87.22,35.39,86.85,43.69z"/>
	</g>
	<path class="st0" d="M498.11,431.08H6.59c-3.62,0-6.59-2.96-6.59-6.59l0-2.82c0-3.62,2.96-6.59,6.59-6.59h491.52
		c3.62,0,6.59,2.96,6.59,6.59v2.82C504.69,428.11,501.73,431.08,498.11,431.08z"/>
</g>
</svg>
