<?xml version="1.0" encoding="utf-8"?>
<!-- Generator: Adobe Illustrator 25.0.1, SVG Export Plug-In . SVG Version: 6.00 Build 0)  -->
<svg version="1.1" id="Capa_1" xmlns="http://www.w3.org/2000/svg" xmlns:xlink="http://www.w3.org/1999/xlink" x="0px" y="0px"
	 viewBox="0 0 696.7 282.1" style="enable-background:new 0 0 696.7 282.1;" xml:space="preserve">
<style type="text/css">
	.st0{fill:#FFFFFF;}
</style>
<path class="st0" d="M88.9,221.8H58.2l15.1-50.1h0.4h0.2L88.9,221.8z M106,272.7h40.6L88.4,126.2H58.8L0,272.7h40.2l7.7-21.2h50.9
	L106,272.7z M160.3,272.7h32.9V126.2h-32.9V272.7z M216.9,272.7h32.9V126.2h-32.9V272.7z M273.6,151.1h32.9v-25h-32.9V151.1z
	 M273.6,272.7h32.9V162.8h-32.9V272.7z M422.7,272.7h32.5V126.2h-35.9l1.6,91.7l-0.4,0.4l-56.7-92.1h-32.3v146.6h35.9l-1-88.9
	l0.4-0.2L422.7,272.7z M639.2,167.6c0,22.6-18.4,40.9-40.9,40.9c-22.6,0-40.9-18.3-40.9-40.9v-66.4c0-22.5,18.4-40.9,40.9-40.9
	c22.6,0,40.9,18.3,40.9,40.9V167.6z M650.4,167.6v-66.4c0-28.7-23.4-52.1-52.1-52.1c-28.7,0-52.1,23.4-52.1,52.1v66.4
	c0,28.7,23.4,52.1,52.1,52.1C627,219.8,650.4,196.4,650.4,167.6 M661.4,169.1c0,34.8-28.3,63.1-63.1,63.1
	c-34.8,0-63.1-28.3-63.1-63.1V99.6c0-34.8,28.3-63.1,63.1-63.1c34.8,0,63.1,28.3,63.1,63.1V169.1z M672.6,169.1V99.6
	c0-41-33.3-74.3-74.3-74.3c-41,0-74.3,33.3-74.3,74.3v69.5c0,41,33.3,74.3,74.3,74.3C639.3,243.4,672.6,210.1,672.6,169.1
	 M685.5,170.1c0,47.9-39,86.9-87,86.9c-16.4,0-32.4-4.7-46.4-13.5c-1.7-1.1-3.9-1.2-5.7-0.2l-45.2,24.3l24.2-45.2
	c1-1.8,0.9-4-0.2-5.7c-9-14-13.7-30.2-13.7-46.7V99c0-47.9,39-87,87-87c47.9,0,87,39,87,87V170.1z M696.7,170.1V99
	c0-54.1-44-98.2-98.2-98.2c-54.1,0-98.2,44-98.2,98.2v71c0,17.6,4.7,34.8,13.7,49.9l-25.4,47.4c-2,3.7-1.3,8.2,1.7,11.2
	c1.8,1.8,4.2,2.8,6.7,2.8c1.5,0,3.1-0.4,4.5-1.1l47.5-25.5c15.1,8.9,32.1,13.5,49.6,13.5C652.7,268.2,696.7,224.2,696.7,170.1"/>
</svg>
