<?xml version="1.0" encoding="utf-8"?>
<!-- Generator: Adobe Illustrator 23.1.0, SVG Export Plug-In . SVG Version: 6.00 Build 0)  -->
<svg version="1.1" id="Layer_1" xmlns="http://www.w3.org/2000/svg" xmlns:xlink="http://www.w3.org/1999/xlink" x="0px" y="0px"
	 viewBox="0 0 230 230" style="enable-background:new 0 0 230 230;" xml:space="preserve">
<style type="text/css">
	.st0{fill:none;stroke:#D50037;stroke-width:3.3612;stroke-linecap:round;stroke-linejoin:round;stroke-miterlimit:10;}
	.st1{fill:none;stroke:#00ABC7;stroke-width:3.3612;stroke-linecap:round;stroke-linejoin:round;stroke-miterlimit:10;}
</style>
<g>
	<g>
		<g>
			<path class="st0" d="M116.03,169.33l-58.65-58.99c-17.06-17.28-16.81-44.42,0.36-61.58c6.74-6.72,18.88-14.09,30.55-14.09
				c9.99,0,19.86,4.86,27.57,11.08c7.7-6.22,16.83-11.08,26.82-11.08c11.69,0,23.32,4.95,30.34,11.97
				c17.19,17.18,18.18,46.95,1.11,64.22L116.03,169.33z"/>
		</g>
	</g>
	<g>
		<g>
			<polyline class="st1" points="23.74,99.16 84.59,99.16 90.69,110.99 106.36,61.72 123.45,123.22 136.21,74.76 143.3,99.16 
				206.82,99.16 			"/>
			<path class="st1" d="M221.73,98.24c0,4.02-3.26,7.28-7.29,7.28c-4.02,0-7.28-3.26-7.28-7.28c0-4.02,3.26-7.29,7.28-7.29
				C218.47,90.95,221.73,94.22,221.73,98.24z"/>
			<path class="st1" d="M22.84,98.24c0,4.02-3.26,7.28-7.28,7.28c-4.02,0-7.28-3.26-7.28-7.28c0-4.02,3.26-7.29,7.28-7.29
				C19.58,90.95,22.84,94.22,22.84,98.24z"/>
		</g>
	</g>
</g>
</svg>
