<?xml version="1.0" encoding="utf-8"?>
<!-- Generator: Adobe Illustrator 25.0.1, SVG Export Plug-In . SVG Version: 6.00 Build 0)  -->
<svg version="1.1" id="Capa_1" xmlns="http://www.w3.org/2000/svg" xmlns:xlink="http://www.w3.org/1999/xlink" x="0px" y="0px"
	 viewBox="0 0 623.6 404.7" style="enable-background:new 0 0 623.6 404.7;" xml:space="preserve">
<style type="text/css">
	.st0{fill:#FFFFFF;}
	.st1{fill:#FF0142;}
</style>
<g>
	<g>
		<g>
			<g>
				<path class="st0" d="M314.7,403c-2.8,0-5.4-1.1-7.4-3.1L141.6,233.3c-52.3-53-51.8-135.9,1-188.7c19.8-19.8,56.3-42.9,93.7-42.9
					c25.4,0,52.8,10.1,77.9,28.6C339.7,11.4,365.1,1.7,390,1.7c34.7,0,70.3,14.1,93.1,36.9c53.7,53.7,55.2,143.5,3.2,196.2
					L322.1,400C320.2,401.9,317.5,403,314.7,403z M236.4,22.5c-29.1,0-60.6,18.5-79,36.8c-44.7,44.6-45.1,114.6-1,159.3l158.3,159.2
					L471.5,220c43.3-43.9,41.9-121.8-3.1-166.8c-18.7-18.7-49.5-30.8-78.4-30.8c-22.1,0-45.4,9.8-69.2,29c-3.8,3.1-9.3,3.1-13.1,0
					C294.3,40.7,267.2,22.5,236.4,22.5z"/>
			</g>
		</g>
	</g>
	<g>
		<g>
			<path class="st1" d="M335.7,272.7c-4.7,0-8.8-3.1-10-7.6l-39-140.1L253,230.9c-1.3,4-4.9,6.9-9.1,7.2c-4.2,0.4-8.2-1.9-10.1-5.6
				l-14.3-27.8H53.9c-5.8,0-10.4-4.7-10.4-10.4c0-5.8,4.7-10.4,10.4-10.4h172c3.9,0,7.5,2.2,9.3,5.7l5.7,11l36.7-115.2
				c1.4-4.4,5.4-7.4,10.1-7.3c4.6,0.1,8.6,3.2,9.9,7.6l38,136.7l26.2-99.7c1.2-4.5,5.3-7.7,9.9-7.8c5,0.1,8.8,3,10.1,7.5l17.9,61.4
				h171.7c5.8,0,10.4,4.7,10.4,10.4c0,5.8-4.7,10.4-10.4,10.4H391.8c-4.6,0-8.7-3.1-10-7.5l-9.5-32.8L345.8,265
				C344.6,269.5,340.5,272.7,335.7,272.7L335.7,272.7z"/>
		</g>
		<g>
			<path class="st1" d="M592.6,222.7c-17.1,0-31-13.9-31-31s13.9-31,31-31s31,13.9,31,31S609.7,222.7,592.6,222.7z M592.6,181.6
				c-5.6,0-10.1,4.6-10.1,10.2c0,5.6,4.6,10.1,10.1,10.1c5.6,0,10.2-4.5,10.2-10.1C602.8,186.1,598.2,181.6,592.6,181.6z"/>
		</g>
		<g>
			<path class="st1" d="M31,222.7c-17.1,0-31-13.9-31-31s13.9-31,31-31s31,13.9,31,31S48.1,222.7,31,222.7z M31,181.6
				c-5.6,0-10.2,4.6-10.2,10.2c0,5.6,4.6,10.1,10.2,10.1s10.2-4.5,10.2-10.1C41.2,186.1,36.6,181.6,31,181.6z"/>
		</g>
	</g>
</g>
</svg>
