<?xml version="1.0" encoding="utf-8"?>
<!-- Generator: Adobe Illustrator 25.0.1, SVG Export Plug-In . SVG Version: 6.00 Build 0)  -->
<svg version="1.1" id="Capa_1" xmlns="http://www.w3.org/2000/svg" xmlns:xlink="http://www.w3.org/1999/xlink" x="0px" y="0px"
	 viewBox="0 0 247.8 282.1" style="enable-background:new 0 0 247.8 282.1;" xml:space="preserve">
<style type="text/css">
	.st0{fill:#ED562D;}
	.st1{fill:#FFFFFF;}
</style>
<g>
	<path class="st0" d="M166,31h-6.3v-6.3C159.7,11.1,148.6,0,135,0H45.1l13.2,13.4c1.4,1.4,3.4,2.3,5.4,2.3h69.6
		c5.4,0,9.9,4.4,9.9,9.9V31H75.7L89,44.4c1.4,1.4,3.4,2.3,5.4,2.3h48.8v5.8c0,5.4-4.4,9.9-9.9,9.9h-26.6l13.2,13.4
		c1.4,1.4,3.4,2.3,5.4,2.3h9.7c13.6,0,24.7-11,24.7-24.7v-6.6h4.6c5.4,0,9.9,4.4,9.9,9.9v26.9c0,5.4-4.4,9.9-9.9,9.9h-26.9
		l13.2,13.4c1.4,1.4,3.4,2.3,5.4,2.3h10c13.6,0,24.7-11,24.7-24.7V55.7C190.7,42,179.6,31,166,31z"/>
	<g>
		<path class="st1" d="M177.4,155.2h-16.7c0,0,0,0,0,0h-5.3c-0.8,0-1.4,0.6-1.4,1.4v55.2c0,0.8,0.6,1.4,1.4,1.4h4.1c0,0,0,0,0,0
			h17.9c0.8,0,1.4-0.6,1.4-1.4v-5.3c0-0.8-0.6-1.4-1.4-1.4h-15.2V188h12.4c0.8,0,1.4-0.6,1.4-1.4v-5.3c0-0.8-0.6-1.4-1.4-1.4h-12.4
			v-16.5h15.2c0.8,0,1.4-0.6,1.4-1.4v-5.3C178.9,155.9,178.2,155.2,177.4,155.2z"/>
		<path class="st1" d="M66.1,155.2H49.4c0,0,0,0,0,0h-5.3c-0.8,0-1.4,0.6-1.4,1.4v55.2c0,0.8,0.6,1.4,1.4,1.4h4.1c0,0,0,0,0,0h17.9
			c0.8,0,1.4-0.6,1.4-1.4v-5.3c0-0.8-0.6-1.4-1.4-1.4H50.9V188h12.4c0.8,0,1.4-0.6,1.4-1.4v-5.3c0-0.8-0.6-1.4-1.4-1.4H50.9v-16.5
			h15.2c0.8,0,1.4-0.6,1.4-1.4v-5.3C67.5,155.9,66.9,155.2,66.1,155.2z"/>
		<path class="st1" d="M149.1,224.9h-16.7c0,0,0,0,0,0h-5.3c-0.8,0-1.4,0.6-1.4,1.4v55.2c0,0.8,0.6,1.4,1.4,1.4h4.1c0,0,0,0,0,0
			h17.9c0.8,0,1.4-0.6,1.4-1.4v-5.3c0-0.8-0.6-1.4-1.4-1.4h-15.2v-17.1h12.4c0.8,0,1.4-0.6,1.4-1.4V251c0-0.8-0.6-1.4-1.4-1.4h-12.4
			v-16.5h15.2c0.8,0,1.4-0.6,1.4-1.4v-5.3C150.5,225.5,149.9,224.9,149.1,224.9z"/>
		<path class="st1" d="M109.8,155.2h-5.3c-0.8,0-1.4,0.6-1.4,1.4v55.2c0,0.8,0.6,1.4,1.4,1.4h5.3c0.8,0,1.4-0.6,1.4-1.4v-55.2
			C111.2,155.9,110.6,155.2,109.8,155.2z"/>
		<path class="st1" d="M148,155.3h-5.9c-0.7,0-1.3,0.5-1.4,1.2l-7.7,41.3l-7.7-41.3c-0.1-0.7-0.7-1.2-1.4-1.2h-5.9
			c-0.9,0-1.6,0.8-1.4,1.7l10.3,55.2c0.1,0.7,0.7,1.2,1.4,1.2h9.4c0.7,0,1.3-0.5,1.4-1.2l10.3-55.2
			C149.6,156.1,148.9,155.3,148,155.3z"/>
		<path class="st1" d="M96.9,205.1H82.2v-48.5c0-0.8-0.6-1.4-1.4-1.4h-5.3c-0.8,0-1.4,0.6-1.4,1.4v55.2c0,0.8,0.6,1.4,1.4,1.4H79
			c0,0,0,0,0,0h17.9c0.8,0,1.4-0.6,1.4-1.4v-5.3C98.3,205.8,97.7,205.1,96.9,205.1z"/>
		<path class="st1" d="M83.3,224.9H78c-0.8,0-1.4,0.6-1.4,1.4v55.2c0,0.8,0.6,1.4,1.4,1.4h5.3c0.8,0,1.4-0.6,1.4-1.4v-55.2
			C84.7,225.5,84.1,224.9,83.3,224.9z"/>
		<path class="st1" d="M181.6,224.9h-26c-0.8,0-1.4,0.6-1.4,1.4v5.3c0,0.8,0.6,1.4,1.4,1.4h8.9v48.5c0,0.8,0.6,1.4,1.4,1.4h5.3
			c0.8,0,1.4-0.6,1.4-1.4v-48.5h8.9c0.8,0,1.4-0.6,1.4-1.4v-5.3C183.1,225.5,182.4,224.9,181.6,224.9z"/>
		<path class="st1" d="M202.4,224.9h-2.9c-6.6,0-12,5.4-12,12V271c0,6.6,5.4,12,12,12h2.9c6.6,0,12-5.4,12-12v-34.1
			C214.4,230.3,209,224.9,202.4,224.9z M206.3,270.2c0,3-2.4,5.4-5.4,5.4c-3,0-5.4-2.4-5.4-5.4v-32.4c0-3,2.4-5.4,5.4-5.4
			c3,0,5.4,2.4,5.4,5.4V270.2z"/>
		<path class="st1" d="M57.3,224.9H34l7,7c0.7,0.7,1.7,1.2,2.8,1.2h13.2c2.7,0,4.8,2.2,4.8,4.8v32.3c0,2.7-2.2,4.8-4.8,4.8h-6v-32.9
			c0-0.8-0.6-1.4-1.4-1.4h-5.3c-0.8,0-1.4,0.6-1.4,1.4v39.4c0,0.8,0.6,1.4,1.4,1.4h5.3c0,0,0,0,0,0h7.8c7.1,0,12.8-5.7,12.8-12.8
			v-32.4C70.1,230.6,64.3,224.9,57.3,224.9z"/>
		<path class="st1" d="M23.4,155.3H0.1l7,7c0.7,0.7,1.7,1.2,2.8,1.2H23c2.7,0,4.8,2.2,4.8,4.8v32.3c0,2.7-2.2,4.8-4.8,4.8h-6v-32.9
			c0-0.8-0.6-1.4-1.4-1.4h-5.3c-0.8,0-1.4,0.6-1.4,1.4v39.4c0,0.8,0.6,1.4,1.4,1.4h5.3c0,0,0,0,0,0h7.8c7.1,0,12.8-5.7,12.8-12.8
			v-32.4C36.2,161,30.5,155.3,23.4,155.3z"/>
		<path class="st1" d="M118.6,276.5v-12.2c0-3.9-1.9-7.4-4.9-9.5c3-2.1,4.9-5.6,4.9-9.5v-8.8c0-6.5-5.2-11.7-11.7-11.7h-8.4h-2.8
			h-2.5c-0.8,0-1.4,0.6-1.4,1.4v55.2c0,0.8,0.6,1.4,1.4,1.4h5.3c0.8,0,1.4-0.6,1.4-1.4v-22.4h4.9c2.9,0,5.2,2.3,5.2,5.2V280
			c0,1.7,1.4,3,3,3c0,0,2.7,0,3.6,0c2.5,0,3.5-0.8,2.6-2.2C119,280.4,118.6,279.8,118.6,276.5z M110.1,246c0,2.9-2.3,5.2-5.2,5.2
			h-4.9V251c0,0,0,0,0,0v-18.3h4.9c2.9,0,5.2,2.3,5.2,5.2V246z"/>
		<path class="st1" d="M212,206.9v-12.2c0-3.9-1.9-7.4-4.9-9.5c3-2.1,4.9-5.6,4.9-9.5V167c0-6.5-5.2-11.7-11.7-11.7H192h-2.8h-2.5
			c-0.8,0-1.4,0.6-1.4,1.4v55.2c0,0.8,0.6,1.4,1.4,1.4h5.3c0.8,0,1.4-0.6,1.4-1.4v-22.4h4.9c2.9,0,5.2,2.3,5.2,5.2v15.6
			c0,1.7,1.4,3,3,3c0,0,2.7,0,3.6,0c2.5,0,3.5-0.8,2.6-2.2C212.4,210.8,212,210.1,212,206.9z M203.5,176.3c0,2.9-2.3,5.2-5.2,5.2
			h-4.9v-0.2c0,0,0,0,0,0v-18.3h4.9c2.9,0,5.2,2.3,5.2,5.2V176.3z"/>
		<path class="st1" d="M246.4,155.3h-6c-0.6,0-1.2,0.4-1.4,1l-7,22.7l-7-22.7c-0.2-0.6-0.7-1-1.4-1h-6c-1,0-1.7,1-1.4,1.9l11.7,35.5
			v19.2c0,0.8,0.6,1.4,1.4,1.4h5.3c0.8,0,1.4-0.6,1.4-1.4v-19.2l11.7-35.5C248.1,156.2,247.4,155.3,246.4,155.3z"/>
	</g>
</g>
</svg>
