<?xml version="1.0" encoding="utf-8"?>
<!-- Generator: Adobe Illustrator 25.0.1, SVG Export Plug-In . SVG Version: 6.00 Build 0)  -->
<svg version="1.1" id="Capa_1" xmlns="http://www.w3.org/2000/svg" xmlns:xlink="http://www.w3.org/1999/xlink" x="0px" y="0px"
	 viewBox="0 0 625.3 282.1" style="enable-background:new 0 0 625.3 282.1;" xml:space="preserve">
<style type="text/css">
	.st0{fill-rule:evenodd;clip-rule:evenodd;fill:#FFFFFF;}
	.st1{fill:#FFFFFF;}
</style>
<g>
	<g>
		<g>
			<path class="st0" d="M159.6,144.7c0-34.7-30-62.5-66.1-62.5c-37.8,0-66.6,29.8-66.6,62.9l0,36.9l-19.6,0l0,22l19.6,0l0,13.7
				c0,35.5,30.5,62.1,66.5,62.1c19.3,0,43.8-6.8,60.5-29.4L131.2,235c-10.3,13.3-25.8,19-37.8,18.9c-21.5,0-39.1-16.1-39.1-36.3
				l0-13.7l39.1,0C129.1,204,159.6,180.6,159.6,144.7L159.6,144.7z M54.4,181.8l0-36.3c0-20.6,17.2-37.1,39.1-37.1
				c21.5,0,38.6,16.1,38.6,36.3c0,20.6-17.2,37.1-38.6,37.1L54.4,181.8L54.4,181.8z M227.9,83.8l0-81.9l-27,0l0,212.5
				c0,37.1,35.2,63.7,75.5,63.7l0-25.4c-26.2,0-48.5-17.4-48.5-38.3l0-104.9l44.6,0l0-25.8L227.9,83.8L227.9,83.8z M370.4,280.3
				c38.2,0,65.3-28.6,65.3-62.1l0-133.5l-27,0l0,133.5c0,20.2-16.8,36.3-38.2,36.3c-21,0-37.8-16.1-37.8-36.3l0-133.5l-27.5,0
				l0,133.5C305.1,251.6,333.4,280.2,370.4,280.3L370.4,280.3z M599.7,114.5c-15.9-22.2-37.8-32.7-59.2-32.7
				c-33.5,0-66.5,21.8-66.1,60.5c0,35.9,27.9,49.6,62.7,50.4c19.3,0.4,37.8,10.1,37.8,30.3c0,21-19.3,32.3-39.1,32.3
				c-15.5,0-31.3-7.3-41.2-22.2l-23.6,11.7c14.6,23.8,41.2,36.3,64.4,36.3c33.5,0,67.4-18.5,67-58.1c0-37.5-31.8-55.7-64.8-56.5
				c-19.7-0.8-36.1-6.5-35.6-24.2c0-10.1,3.9-18.1,9.5-23c7.3-7.7,18-12.1,29.6-12.1c11.2,0,24.9,7.3,35.6,21.8L599.7,114.5z"/>
		</g>
		<g>
			<path class="st1" d="M607.5,84.7c-5.9,0-10.7,4.8-10.7,10.7s4.8,10.7,10.7,10.7c5.9,0,10.7-4.8,10.7-10.7
				C618.3,89.5,613.5,84.7,607.5,84.7z M607.5,104.9c-5.2,0-9.5-4.3-9.5-9.5c0-5.2,4.3-9.5,9.5-9.5c5.2,0,9.5,4.3,9.5,9.5
				C617,100.7,612.8,104.9,607.5,104.9z"/>
			<g>
				<path class="st1" d="M605.2,87.6l3.1,0c2,0,3.5,1.5,3.5,3.5l0,2.3c0,1.1-1,2.6-2.4,2.8c1.5,0.2,2.4,1.8,2.4,2.9l0,3.8l-1.4,0
					l0-3.8c0-1.2-1.4-2.1-2.6-2.1l-2.5,0l0,5.9l-1.4,0l0-14C603.9,88.1,604.4,87.6,605.2,87.6z M605.3,89L605.3,89c0,0,0,0-0.1,0
					L605.3,89z M605.3,89l0,6.5l2.5,0c1.1,0,2.5-0.9,2.5-2.1l0-2.3c0-1.1-0.9-2.1-2.1-2.1L605.3,89z"/>
			</g>
		</g>
	</g>
</g>
</svg>
