<?xml version="1.0" encoding="utf-8"?>
<!-- Generator: Adobe Illustrator 25.0.1, SVG Export Plug-In . SVG Version: 6.00 Build 0)  -->
<svg version="1.1" id="Modo_de_isolamento" xmlns="http://www.w3.org/2000/svg" xmlns:xlink="http://www.w3.org/1999/xlink" x="0px"
	 y="0px" viewBox="0 0 256 52" style="enable-background:new 0 0 256 52;" xml:space="preserve">
<style type="text/css">
	.st0{fill-rule:evenodd;clip-rule:evenodd;fill:#033243;}
	.st1{fill-rule:evenodd;clip-rule:evenodd;fill:#EF0743;}
	.st2{fill:#EF0743;}
	.st3{fill:#FFFFFF;}
	.st4{fill:#033243;}
</style>
<g>
	<path class="st0" d="M0,50.1c0,1.1,0.3,1.3,1.3,1.3h7.1c1.1,0,1.3-0.2,1.3-1.3V1.6c0-0.9-0.3-1.2-1.2-1.2H1.5C0.2,0.4,0,0.6,0,1.8
		L0,50.1L0,50.1z"/>
	<path class="st1" d="M232.7,14.3c2-0.1,3.8-0.2,5.7-0.3c2.6-0.1,5.3-0.1,7.9,0.4c4.8,0.8,7.7,3.5,8.8,8.3c0.6,2.5,0.8,4.9,0.9,7.5
		c0.1,3.9,0.1,7.7-0.6,11.6c-0.5,2.6-1.4,5.1-3.5,6.9c-1.6,1.3-3.5,2-5.5,2.4c-2.6,0.5-5.3,0.7-7.9,0.6c-3.1-0.1-6.3-0.3-9.4-0.6
		c-1.6-0.1-3.1-0.4-4.7-0.7c-0.8-0.1-1.2-0.6-1.3-1.4c0-0.3-0.1-0.5-0.1-0.8c0-15.4,0-30.8,0-46.1c0-0.2,0-0.4,0-0.5
		c0.1-1.1,0.2-1.3,1.4-1.3h7c1.2,0,1.4,0.2,1.4,1.4v11.9L232.7,14.3L232.7,14.3z M232.7,42.7c3.1,0.4,6.1,0.7,9.1,0.2
		c1.6-0.2,2.9-1.1,3.5-2.7c0.3-0.8,0.5-1.7,0.6-2.5c0.1-2.9,0.1-5.8,0.1-8.6c0-0.9-0.1-1.7-0.3-2.5c-0.6-2.6-1.9-3.8-4.6-3.9
		c-2.7-0.1-5.4-0.1-8.1-0.1c-0.1,0-0.2,0-0.3,0.1L232.7,42.7L232.7,42.7z"/>
	<path class="st0" d="M110.4,29.6c0-1.2,0.1-2.4,0-3.5c-0.3-1.8-1.7-3-3.7-3.2c-0.9-0.1-1.9-0.2-2.8-0.2c-3.6,0-7.2,0-10.8,0
		c-1.5,0-1.6-0.1-1.6-1.5c0-1.6,0-3.2,0-4.8c0-0.7,0.3-1,0.9-1.1c5.5-1,11-1.2,16.5-0.8c2.3,0.2,4.6,0.7,6.6,1.7
		c2.7,1.4,4.1,3.6,4.5,6.5c0.2,1.1,0.2,2.2,0.2,3.4c0,7.2,0,14.5,0,21.7c0,0.2,0,0.3,0,0.4c0,1.6-0.6,2.1-2.2,2.4
		c-4.7,0.9-9.4,1.2-14.2,1.2c-2.7,0-5.4,0-8.1-0.6c-3.7-0.8-6.1-2.9-6.8-6.7c-0.6-3-0.6-5.9,0.2-8.9c0.9-3,3.1-4.8,6.1-5.4
		c1.8-0.4,3.7-0.6,5.6-0.7c2.9-0.1,5.8,0,8.8,0L110.4,29.6L110.4,29.6z M110.5,36c-3.1,0-6.1-0.1-9.1,0c-1.8,0.1-2.7,1.1-3,2.8
		c-0.1,0.7,0,1.5,0.1,2.2c0.2,1.4,1,2.2,2.4,2.5c1,0.2,1.9,0.3,2.9,0.3c2.3,0,4.5-0.1,6.8-0.6L110.5,36L110.5,36z"/>
	<path class="st0" d="M69.6,22.7c-1.6,0.1-3.2,0.5-4.1,1.9c-0.7,1-1,2.3-1.1,3.5c-0.3,3.2-0.3,6.5,0,9.7c0.1,1.4,0.4,2.8,1.4,4
		c1,1.1,2.4,1.5,3.8,1.5c3.8,0.1,7.6,0,11.3,0.1c0.2,0,0.4,0,0.7,0c1.2,0,1.4,0.3,1.4,1.4c0,1.5,0,3,0,4.5c0,1.1-0.3,1.4-1.4,1.6
		c-4.5,0.8-9,1-13.6,0.8c-2.7-0.1-5.4-0.4-7.9-1.7c-2-1-3.4-2.7-4.2-4.8c-1-2.6-1.3-5.3-1.4-8c0-3.9,0-7.8,0.2-11.6
		c0.1-2.1,0.6-4.2,1.6-6.1c1.1-2.1,2.7-3.4,4.9-4.2c2.2-0.8,4.4-1.1,6.7-1.2c3.8-0.2,7.7-0.1,11.5,0.4c0.9,0.1,1.7,0.2,2.5,0.4
		c0.7,0.1,1.1,0.5,1.1,1.2c0,1.8,0,3.6,0,5.3c0,0.7-0.4,1-1,1h-6.4C75.7,22.6,71.7,22.6,69.6,22.7"/>
	<path class="st1" d="M194.1,36.2c0.2,1.3,0.3,2.6,0.6,3.8c0.5,1.9,1.9,2.8,3.8,3c1.2,0.1,2.5,0.2,3.8,0.2c3.5,0,7.1,0,10.6,0
		c1.3,0,1.5,0.2,1.5,1.5c0,1.6,0,3.1,0,4.7c0,1-0.2,1.2-1.2,1.4c-5.1,0.9-10.3,1-15.4,0.8c-2.2-0.1-4.5-0.4-6.6-1.2
		c-3.2-1.3-5-3.8-5.9-7c-0.6-2.3-0.9-4.7-0.9-7.1c0-3.4,0.1-6.9,0.3-10.3c0.1-2,0.6-3.9,1.4-5.8c1.4-3,3.8-4.7,6.9-5.4
		c4.3-0.9,8.7-0.9,13.1-0.4c1.5,0.2,3,0.5,4.4,1.1c3,1.1,4.7,3.6,5.6,6.6c0.7,2.6,0.9,5.3,1,8c0.1,1.5,0,3.1,0,4.6
		c0,1.1-0.4,1.5-1.5,1.6c-0.5,0-0.9,0-1.4,0h-19.1L194.1,36.2L194.1,36.2z M207.4,29.7c-0.2-1.4-0.3-2.7-0.6-4
		c-0.3-1.4-1.2-2.4-2.5-2.8c-2.3-0.7-4.5-0.6-6.8,0c-0.8,0.2-1.6,0.7-2.1,1.5c-1.1,1.6-1.1,3.5-1.1,5.4
		C194.2,29.7,207.4,29.7,207.4,29.7z"/>
	<path class="st0" d="M49,31c0-2.8-0.2-5.7-1-8.6c-0.8-3.1-2.5-5.6-5.6-6.9c-1.7-0.7-3.6-1.1-5.4-1.2c-2.6-0.1-5.1-0.2-7.7-0.1
		c-2.3,0-4.6,0.4-6.8,1.2c-2.2,0.8-3.9,2.2-5,4.3c-1.3,2.4-1.7,5-1.9,7.7c-0.1,3-0.2,6.1-0.1,9.2c0.1,2.1,0.4,4.3,0.8,6.4
		c0.4,2,1.2,3.9,2.6,5.3c1.8,1.9,4.2,2.7,6.7,3.1c3.2,0.5,6.5,0.5,9.8,0.4c2.2-0.1,4.4-0.4,6.5-1.2c1.7-0.6,3.1-1.6,4.2-3
		c1.2-1.6,1.8-3.4,2.2-5.2c0.5-2.6,0.7-5.2,0.7-8V31z M39.2,34.3c-0.1,1.5-0.2,3.2-0.5,4.8c-0.4,2.6-1.6,3.6-4.2,4.1
		c-1.7,0.3-3.5,0.3-5.2-0.1c-2.2-0.4-3.4-1.7-3.8-4.1c-0.5-3-0.5-6.1-0.3-9.1c0-0.9,0.1-1.8,0.3-2.7c0.5-2.9,1.6-4.1,4.5-4.4
		c1.6-0.2,3.3-0.1,5,0.1c2.3,0.4,3.5,1.8,3.8,4.5c0.2,1.6,0.3,3.2,0.4,5L39.2,34.3z"/>
	<path class="st2" d="M180.9,15.1c0-0.1,0-0.1,0-0.2c0,0,0-0.1,0-0.1c0-0.1-0.1-0.1-0.1-0.2c-0.1-0.1-0.1-0.1-0.2-0.1
		c-0.2-0.1-0.4-0.1-0.7-0.1c-1.3,0-6.7,0-8.1,0c0,0-0.1,0-0.1,0c-0.6,0-0.8,0.4-1,1.2c-0.4,1.6-9.9,35.9-9.9,35.9h6.9h0
		c2.1,0,3.6-1.7,4.2-3.6c0.2-0.6,2-7,3.9-13.9c2.2-7.8,4.5-16.3,4.9-17.9c0.1-0.2,0.1-0.4,0.1-0.5C180.9,15.4,180.9,15.3,180.9,15.1
		C180.9,15.2,180.9,15.2,180.9,15.1"/>
	<path class="st3" d="M157.3,14.6c0.1,0,0.1,0.1,0.2,0.1C157.4,14.6,157.4,14.6,157.3,14.6"/>
	<path class="st3" d="M157,14.5c0.1,0,0.2,0,0.2,0.1C157.2,14.5,157.1,14.5,157,14.5"/>
	<path class="st3" d="M155.9,14.5c-1.9,0-6,0-7.3,0C149.9,14.5,154,14.5,155.9,14.5"/>
	<path class="st3" d="M156.6,14.5c0.1,0,0.3,0,0.4,0C156.8,14.5,156.7,14.5,156.6,14.5"/>
	<path class="st3" d="M156.9,14.5C157,14.5,157,14.5,156.9,14.5C157,14.5,157,14.5,156.9,14.5"/>
	<path class="st3" d="M157.3,14.6C157.3,14.6,157.3,14.6,157.3,14.6C157.3,14.6,157.3,14.6,157.3,14.6L157.3,14.6"/>
	<path class="st3" d="M157.5,14.7C157.5,14.7,157.5,14.7,157.5,14.7L157.5,14.7L157.5,14.7"/>
	<path class="st3" d="M156.6,14.5L156.6,14.5c-0.2,0-0.4,0-0.7,0C156.2,14.5,156.4,14.5,156.6,14.5L156.6,14.5z"/>
	<path class="st2" d="M157.7,15.1c0-0.1,0-0.1,0-0.2c0,0,0-0.1,0-0.1c0-0.1-0.1-0.1-0.1-0.2l0,0c-0.1-0.1-0.1-0.1-0.2-0.1
		c0,0,0,0,0,0c-0.1,0-0.2,0-0.3-0.1c0,0-0.1,0-0.1,0c-0.1,0-0.2,0-0.4,0h0c-0.2,0-0.4,0-0.7,0c-1.9,0-6,0-7.3,0c0,0-0.1,0-0.1,0
		s-0.1,0-0.1,0c-0.6,0-0.8,0.4-1,1.2c-0.4,1.6-9.9,35.9-9.9,35.9h6.9h0c2.1,0,3.6-1.7,4.2-3.6c0.2-0.6,2-7,3.9-13.9c0,0,0-0.1,0-0.1
		c2.1-7.7,4.5-16.1,4.9-17.8c0.1-0.2,0.1-0.4,0.1-0.5c0-0.1,0-0.2,0-0.3C157.7,15.2,157.7,15.2,157.7,15.1"/>
	<path class="st4" d="M133.3,14.5c-1.3,0-6.7,0-8.1,0c-0.7,0-1,0.3-0.9,1c0,0.1,0,0.3,0.1,0.5c2.2,8,8,29.3,8.8,31.9
		c0.7,2,2.1,3.7,4.2,3.7h0c0,0,1.6-5.8,3.4-12.5c-2.7-9.7-6-21.9-6.4-23.5C134.4,14.6,134.2,14.5,133.3,14.5"/>
	<path class="st4" d="M157.8,15.4c-0.1-0.4-0.2-0.6-0.3-0.8c0.1,0.1,0.1,0.1,0.1,0.2c0,0,0,0.1,0,0.1c0,0.1,0,0.1,0,0.2
		c0,0,0,0.1,0,0.1c0,0.1,0,0.2,0,0.3c0,0.2-0.1,0.4-0.1,0.5c-0.4,1.6-2.8,10.1-4.9,17.8c1.8,6.7,3.5,12.7,3.9,14
		c0.7,2,2.1,3.7,4.2,3.7h0c0,0,1.6-5.8,3.4-12.5C161.6,29.3,158.2,17.1,157.8,15.4"/>
</g>
</svg>
