<?xml version="1.0" encoding="utf-8"?>
<!-- Generator: Adobe Illustrator 25.0.1, SVG Export Plug-In . SVG Version: 6.00 Build 0)  -->
<svg version="1.1" id="Layer_1" xmlns="http://www.w3.org/2000/svg" xmlns:xlink="http://www.w3.org/1999/xlink" x="0px" y="0px"
	 viewBox="0 0 512 512" style="enable-background:new 0 0 512 512;" xml:space="preserve">
<style type="text/css">
	.st0{fill:#EF0743;}
	.st1{fill:#003244;}
</style>
<g>
	<g>
		<path class="st0" d="M235,220.7l-10.6,10.6c-3.5,3.5-3.5,9.3,0,12.8v0c3.5,3.5,9.3,3.5,12.8,0l10.6-10.6c3.5-3.5,3.5-9.3,0-12.8
			l0,0C244.3,217.1,238.5,217.1,235,220.7z"/>
		<path class="st0" d="M230.7,249.3c-3,0-5.9-1.1-8.2-3.4c-4.5-4.5-4.5-11.8,0-16.3l10.6-10.6c4.5-4.5,11.8-4.5,16.3,0
			c4.5,4.5,4.5,11.8,0,16.3l-10.6,10.6C236.7,248.1,233.7,249.3,230.7,249.3z M241.4,220.5c-1.7,0-3.4,0.6-4.6,1.9l-10.6,10.6
			c-2.6,2.6-2.6,6.7,0,9.3c2.6,2.6,6.7,2.6,9.3,0l10.6-10.6c2.6-2.6,2.6-6.7,0-9.3C244.8,221.2,243.1,220.5,241.4,220.5z"/>
	</g>
	<g>
		<path class="st1" d="M298.4,271.7c3.3,3.4,8.8,3.4,12.4,0.3l40.6-35.8l2.1-0.1c27.6-1.2,54.4-13.5,75.4-34.5
			c44.6-44.6,44.6-117.3,0-161.9C407.3,18,378.6,6.1,348,6.1S288.6,18,267,39.6c-21.1,21.1-33.3,47.8-34.5,75.4l-0.1,2.1l-137.6,156
			c-11.1,12.5-13.4,30.4-6,45.4l1.9,3.9l-15.4,15.4c-11.7,11.7-14.8,29.7-7.6,44.7l1.7,3.7l-2.7,3c-19.2,20.9-18.4,53,1.6,73.1
			l23.3,23.3c13.1,13.1,30.5,20.3,49,20.3c18.5,0,35.9-7.2,49-20.3l127-127c5.8-5.8,13.5-9,21.7-9c8.2,0,15.9,3.2,21.7,9l8.5,8.5
			c3.7,3.7,9.9,3.5,13.2-0.6h0c3.1-3.6,2.8-9-0.5-12.3l-8.4-8.4c-19-19-50-19-69,0l-127,127c-9.7,9.7-22.5,15-36.2,15
			c-13.7,0-26.5-5.3-36.2-15l-23.3-23.3c-12.8-12.8-13.7-33-2.1-46.9l3-3.6l4.2,2c14.9,7.1,32.8,4,44.5-7.7l15.4-15.4l3.9,1.9
			c15,7.4,32.9,5.1,45.4-6l80.9-71.4c3.8-3.4,4.2-9.4,0.6-13c-3.5-3.5-9.1-3.6-12.9-0.4l-80.6,71.1c-4.3,3.8-9.8,5.7-15.2,5.7
			c-5.9,0-11.8-2.2-16.2-6.7l-42.7-42.7c-8.5-8.5-9-22.3-1-31.4h0l133.5-151.3l92.9,92.9l-35.8,31.6
			C294.9,261.8,294.7,267.9,298.4,271.7z M103,335.7l29.8,29.8l-14.9,14.9c-4.1,4.1-9.5,6.2-14.9,6.2c-6.6,0-13.1-3-17.4-9.1
			c-1.8-2.6-3-5.7-3.5-8.9c-0.9-6.7,1.3-13.3,6-17.9L103,335.7z M292.1,42c18.3-13,40.9-19.2,63.4-17.5
			c22.8,1.8,44.3,11.7,60.5,27.9c16.2,16.2,26.1,37.7,27.9,60.5c1.8,22.6-4.4,45.1-17.5,63.4l-4.1,5.8l-136-136L292.1,42z
			 M250.5,116.8l0.2-2.7c1.1-17.4,7.6-34.6,18.7-49.6l4.1-5.6L409.6,195l-5.6,4.1c-15,11.1-32.1,17.6-49.6,18.7l-2.7,0.2
			L250.5,116.8z"/>
		<path class="st1" d="M140.6,508.3C140.6,508.3,140.6,508.3,140.6,508.3c-19.2,0-37.2-7.5-50.8-21.1L66.5,464
			c-21-21-21.8-54.7-1.7-76.6l1.6-1.7l-1-2.1c-7.6-15.9-4.4-35,8.1-47.5l14.2-14.2l-1.1-2.3c-7.9-16-5.4-34.9,6.3-48.2l137-155.3
			l0.1-1.2c1.2-28.2,13.7-55.6,35.2-77.1C287.3,15.8,316.7,3.6,348,3.6s60.7,12.1,82.7,34.2c22.1,22.1,34.2,51.4,34.2,82.7
			s-12.2,60.7-34.2,82.7c-21.5,21.5-48.9,34-77.1,35.2l-1.2,0.1l-39.9,35.2c-4.7,4.1-11.6,3.9-15.9-0.4l0,0
			c-2.3-2.3-3.5-5.4-3.3-8.6c0.1-3.2,1.5-6.2,4-8.4l33.8-29.8L242,137.4L110.2,286.7c-7.1,8.1-6.7,20.3,0.9,27.9l42.7,42.7
			c3.9,3.9,9,6,14.5,6c5,0,9.8-1.8,13.5-5.1l80.6-71.1c4.7-4.1,11.8-3.9,16.3,0.5c2.2,2.2,3.4,5.1,3.3,8.2c-0.1,3.2-1.5,6.3-3.9,8.4
			l-80.9,71.4c-13.3,11.7-32.2,14.2-48.2,6.3l-2.3-1.1L132.5,395c-12.4,12.4-31.4,15.7-47.3,8.2l-2.4-1.2l-1.7,2.1
			c-10.8,12.9-10,31.6,1.9,43.5l23.3,23.3c9.2,9.2,21.4,14.3,34.4,14.3c13,0,25.2-5.1,34.4-14.3l127-127c20-20,52.5-20,72.6,0
			l8.4,8.4c4.3,4.3,4.6,11.1,0.7,15.7c-2.1,2.5-5.1,3.9-8.3,4.1c-3.2,0.1-6.4-1.1-8.6-3.4l-8.5-8.5c-5.3-5.3-12.4-8.2-19.9-8.2
			s-14.6,2.9-19.9,8.2l-127,127C177.9,500.9,159.8,508.3,140.6,508.3z M348,8.6c-30,0-58.1,11.6-79.2,32.7
			C248.2,62,236.2,88.2,235,115.1l-0.1,3L96.6,274.7C86.2,286.5,84,303.3,91,317.4l2.7,5.5L77,339.6c-11,11-13.8,27.8-7.1,41.8
			l2.5,5.2l-3.9,4.2c-18.3,19.9-17.6,50.5,1.6,69.6l23.3,23.3c12.6,12.6,29.4,19.6,47.2,19.6c0,0,0,0,0,0c17.8,0,34.6-7,47.2-19.6
			l127-127c6.3-6.3,14.6-9.7,23.5-9.7c8.9,0,17.2,3.4,23.5,9.7l8.5,8.5c1.3,1.3,3,2,4.9,1.9c1.8-0.1,3.5-0.9,4.7-2.3
			c2.2-2.7,2.1-6.5-0.4-9l-8.4-8.4c-18.1-18.1-47.4-18.1-65.5,0l-127,127c-10.1,10.1-23.6,15.7-38,15.7c-14.3,0-27.8-5.6-38-15.7
			l-23.3-23.3c-13.8-13.8-14.7-35.4-2.2-50.3l4.2-5l5.9,2.8c14,6.6,30.7,3.7,41.7-7.2l16.7-16.7l5.5,2.7c14.1,7,30.9,4.8,42.7-5.6
			l80.9-71.4c1.4-1.2,2.2-3,2.2-4.8c0-1.7-0.6-3.3-1.8-4.5c-2.6-2.5-6.7-2.7-9.4-0.3L185.1,362c-4.6,4.1-10.6,6.3-16.8,6.3
			c-6.8,0-13.2-2.6-18-7.4l-42.7-42.7c-9.5-9.5-9.9-24.7-1.1-34.8l135.3-153.3l96.6,96.6l-37.8,33.4c-1.4,1.2-2.2,2.9-2.3,4.8
			c-0.1,1.9,0.6,3.6,1.9,5c2.3,2.4,6.3,2.4,9,0.1l41.2-36.4l3-0.1c27-1.2,53.1-13.2,73.7-33.8c21.1-21.1,32.8-49.2,32.8-79.2
			c0-30-11.6-58.1-32.8-79.2C406,20.2,377.9,8.6,348,8.6z M103,389.1c-7.8,0-14.9-3.7-19.4-10.2c-2.1-3-3.4-6.4-3.9-10
			c-1-7.5,1.4-14.8,6.7-20l16.7-16.7l33.3,33.3l-16.7,16.7C115.2,386.6,109.3,389.1,103,389.1z M103,339.3l-13.1,13.1
			c-4.2,4.2-6.1,9.9-5.2,15.8c0.4,2.8,1.4,5.5,3.1,7.8c3.6,5.1,9.1,8,15.3,8c5,0,9.6-1.9,13.1-5.4l13.1-13.1L103,339.3z
			 M350.7,220.6L247.9,117.8l0.2-3.8C249.3,96,256,78.4,267.4,63l5.9-7.9l140.2,140.2l-7.9,5.9c-15.4,11.4-33,18-50.9,19.2
			L350.7,220.6z M253.1,115.8l99.6,99.6l1.6-0.1c17-1.1,33.6-7.4,48.2-18.2l3.3-2.4l-132-132l-2.4,3.3
			c-10.8,14.6-17.1,31.3-18.2,48.2L253.1,115.8z M422.7,186L282.5,45.8l8.2-5.8c18.8-13.4,41.9-19.8,65.1-17.9
			c23.4,1.8,45.5,12,62.1,28.6c16.6,16.6,26.8,38.7,28.6,62.1c1.8,23.2-4.6,46.3-17.9,65.1L422.7,186z M290.2,46.5l131.9,131.9
			l2.4-3.4c12.7-17.9,18.8-39.8,17-61.8c-1.7-22.3-11.4-43.2-27.2-59c-15.8-15.8-36.7-25.4-59-27.2c-22-1.7-43.9,4.3-61.8,17l-1.4-2
			l1.4,2L290.2,46.5z"/>
	</g>
	<g>
		<path class="st0" d="M444.4,357.1v74.5l-8-2.8c-4.3-1.5-8.8-2.3-13.1-2.3c-7.9,0-15.7,2.5-22.5,7.2c-10.3,7.3-16.4,18.7-16.6,31.2
			c-0.4,20.4,15.3,38,35.6,39.8c23.2,2.1,42.8-16.2,42.8-39v-92.4c0-0.6,0.6-1,1.2-0.9l29,7.8c4.9,1.3,9.9-1.6,11.2-6.5v0
			c1.3-4.8-1.6-9.7-6.3-11l-44.9-12C448.5,349.6,444.4,352.8,444.4,357.1z M425.5,486.7c-13.3,1.3-24.4-9.8-23.1-23.1
			c1-9.8,9-17.8,18.8-18.8c13.3-1.3,24.4,9.8,23.1,23.1C443.3,477.7,435.3,485.7,425.5,486.7z"/>
		<path class="st0" d="M423.4,507.4c-1.3,0-2.6-0.1-3.9-0.2c-21.6-1.9-38.3-20.5-37.9-42.3c0.2-13.4,6.7-25.5,17.7-33.2
			c7.1-5,15.4-7.7,23.9-7.7c4.7,0,9.4,0.8,14,2.4l4.7,1.7v-71c0-2.9,1.3-5.5,3.6-7.2s5.1-2.3,7.9-1.6l44.9,12
			c6.1,1.6,9.7,7.9,8.1,14c-1.7,6.2-8.1,9.9-14.3,8.3l-27-7.2v90.4c0,11.7-4.9,22.9-13.6,30.8C443.6,503.6,433.8,507.4,423.4,507.4z
			 M423.2,429c-7.5,0-14.8,2.3-21,6.8c-9.7,6.8-15.3,17.5-15.5,29.2c-0.4,19.2,14.3,35.5,33.3,37.2c10.4,0.9,20.4-2.4,28.1-9.5
			c7.6-6.9,11.9-16.8,11.9-27.1v-92.4c0-1.1,0.5-2.1,1.3-2.7c0.8-0.7,1.9-0.9,3-0.6l29,7.8c3.6,1,7.2-1.2,8.2-4.7
			c0.4-1.7,0.2-3.4-0.6-4.9c-0.9-1.5-2.3-2.6-3.9-3l-44.9-12c-1.2-0.3-2.5-0.1-3.6,0.7c-1,0.8-1.6,2-1.6,3.3v78.1l-11.3-4
			C431.5,429.7,427.4,429,423.2,429z M423.3,489.3c-6.2,0-12.2-2.5-16.7-6.9c-5-5-7.5-12-6.8-19.1c1.1-11.1,10-19.9,21-21
			c7.1-0.7,14,1.8,19.1,6.8c5,5,7.5,12,6.8,19.1c-1.1,11.1-10,19.9-21,21l0,0C424.9,489.3,424.1,489.3,423.3,489.3z M423.3,447.2
			c-0.6,0-1.3,0-1.9,0.1c-8.7,0.9-15.7,7.8-16.6,16.6c-0.6,5.6,1.4,11.1,5.3,15s9.4,5.9,15,5.3l0,0c8.7-0.9,15.7-7.8,16.6-16.6
			c0.6-5.6-1.4-11.1-5.3-15C432.9,449.1,428.2,447.2,423.3,447.2z"/>
	</g>
	<g>
		<path class="st0" d="M68,40.8v74.5l-8-2.8c-4.3-1.5-8.8-2.3-13.1-2.3c-7.9,0-15.7,2.5-22.5,7.2C14,124.8,8,136.1,7.8,148.7
			c-0.4,20.4,15.3,38,35.6,39.8c23.2,2.1,42.8-16.2,42.8-39V57c0-0.6,0.6-1,1.2-0.9l29,7.8c4.9,1.3,9.9-1.6,11.2-6.5v0
			c1.3-4.8-1.6-9.7-6.3-11l-44.9-12C72.1,33.3,68,36.4,68,40.8z M49.1,170.4c-13.3,1.3-24.4-9.8-23.1-23.1c1-9.8,9-17.8,18.8-18.8
			c13.3-1.3,24.4,9.8,23.1,23.1C66.9,161.4,59,169.4,49.1,170.4z"/>
		<path class="st0" d="M47,191.1c-1.3,0-2.6-0.1-3.9-0.2C21.5,189,4.9,170.4,5.3,148.6c0.2-13.4,6.7-25.5,17.7-33.2
			c7.1-5,15.4-7.7,23.9-7.7c4.7,0,9.4,0.8,14,2.4l4.7,1.7v-71c0-2.9,1.3-5.5,3.6-7.2c2.3-1.7,5.1-2.3,7.9-1.6l44.9,12
			c3,0.8,5.4,2.7,7,5.3c1.5,2.6,1.9,5.7,1.1,8.7c-0.8,3-2.7,5.5-5.4,7.1c-2.7,1.6-5.8,2-8.9,1.2l-27-7.2v90.4
			c0,11.7-4.9,22.9-13.6,30.8C67.3,187.3,57.4,191.1,47,191.1z M46.9,112.7c-7.5,0-14.8,2.3-21,6.8c-9.7,6.8-15.3,17.5-15.5,29.2
			c-0.4,19.2,14.3,35.6,33.3,37.2c10.4,0.9,20.4-2.4,28.1-9.5c7.6-6.9,11.9-16.8,11.9-27.1V57c0-1.1,0.5-2.1,1.3-2.7
			c0.9-0.7,1.9-0.9,3-0.6l29,7.8c1.7,0.5,3.5,0.2,5.1-0.7c1.5-0.9,2.6-2.3,3.1-4.1c0.9-3.4-1.1-7-4.6-7.9l-44.9-12
			c-1.2-0.3-2.5-0.1-3.6,0.7c-1,0.8-1.6,2-1.6,3.3v78.1l-11.3-4C55.2,113.4,51,112.7,46.9,112.7z M47,173c-6.2,0-12.2-2.4-16.7-6.9
			c-5-5-7.5-12-6.8-19.1c1.1-11.1,10-19.9,21-21c7.1-0.7,14,1.8,19.1,6.8c5,5,7.5,12,6.8,19.1c-1.1,11.1-10,19.9-21,21l0,0
			C48.6,173,47.8,173,47,173z M46.9,130.9c-0.6,0-1.3,0-1.9,0.1c-8.7,0.9-15.7,7.8-16.6,16.6c-0.6,5.6,1.4,11.1,5.3,15
			c4,4,9.4,5.9,15,5.3l0,0c8.7-0.9,15.7-7.8,16.6-16.6c0.6-5.6-1.4-11.1-5.3-15C56.6,132.8,51.9,130.9,46.9,130.9z"/>
	</g>
</g>
</svg>
