<?xml version="1.0" encoding="utf-8"?>
<!-- Generator: Adobe Illustrator 25.0.1, SVG Export Plug-In . SVG Version: 6.00 Build 0)  -->
<svg version="1.1" id="Capa_1" xmlns="http://www.w3.org/2000/svg" xmlns:xlink="http://www.w3.org/1999/xlink" x="0px" y="0px"
	 viewBox="0 0 617.3 282.1" style="enable-background:new 0 0 617.3 282.1;" xml:space="preserve">
<style type="text/css">
	.st0{fill:#34275E;}
	.st1{fill:#FFCC05;}
</style>
<g>
	<g>
		<rect x="88.3" y="179.6" class="st0" width="13.2" height="98.8"/>
		<polygon class="st0" points="178.7,255.9 130.9,179.6 117.7,179.6 117.7,278.4 130.9,278.4 130.9,203 178.7,278.4 192,278.4 
			192,187.2 178.7,179.6 		"/>
		<polygon class="st0" points="79.6,179.6 64.3,179.6 27.9,223.3 20.4,223.3 20.4,179.6 7.1,179.6 7.1,278.4 20.4,278.4 20.4,233.8 
			29,233.8 65.8,278.4 82.3,278.4 39.3,226.7 		"/>
		<path class="st0" d="M266.4,229.1h-2h-22.1v10.6h22.1v22.7c-4.6,4.4-10.9,7.1-17.7,7.1c-0.5,0-3.1,0-3.2,0
			c-10.7,0-19.9-6.6-23.8-15.9c-1.6-3.4-2.5-7.3-2.5-11.3v-24.7c0-5.1,1.5-12.8,4.2-16.8c3.6-6.4,10.3-10.9,18-11.6
			c0.4,0,0.7,0,1.1,0l4.9,0c0.5,0,1.1,0,1.6,0.1c18.3,2.6,17.6,20.2,17.6,20.4h13.4v-0.2c0-4.6-1-9-2.8-12.9
			c-5.7-10.7-15.4-18.1-30.4-18.1c-11.6,0-18.5,2.2-23.4,5.7c-10.4,6.9-17.3,18.7-17.3,32v25.7c0,20.8,17,37.9,37.8,37.9
			c0,0,5.5,0,5.8,0c12.4,0,23.4-5.5,30.2-14l0.2-0.2v-29.9L266.4,229.1L266.4,229.1z"/>
		<polygon class="st0" points="357.8,226.1 301.5,226.1 301.5,179.6 293.8,179.6 293.8,278.4 301.5,278.4 301.5,232.7 357.8,232.7 
			357.8,278.4 365.4,278.4 365.4,179.6 357.8,179.6 		"/>
		<path class="st0" d="M417.4,178.2h-1.7c-24.6,0-37.2,20.7-37.2,41.3v1.7V237v1.5c0,20.7,12.7,41.5,37.4,41.5h1.7
			c24.6,0,37.2-20.7,37.2-41.3V237v-15.8v-1.5C454.8,199.1,442,178.2,417.4,178.2z M447.1,222.4V236v1.4c0,17.7-10.1,35.5-29.7,35.5
			H416c-19.7,0-29.8-17.9-29.8-35.7V236v-13.6V221c0-17.7,10.1-35.5,29.7-35.5h1.4c19.7,0,29.8,17.9,29.8,35.7V222.4z"/>
		<polygon class="st0" points="610.2,179.5 533.6,179.5 533.6,186.6 567.9,186.6 567.9,278.6 575.8,278.6 575.8,186.6 610.2,186.6 
					"/>
		<path class="st0" d="M501.9,226.4c-15.5-4.6-21.2-8.1-21.7-8.4c-4.5-3-7.4-7.7-7.9-13.8c0,0,0,0,0,0c0-0.5,0-1.1,0-1.6
			c0,0,0-0.1,0-0.1c1-9.8,10.6-17.5,22.3-17.5c0.5,0,2.4,0,2.8,0c1,0,1.9,0,2.8,0.1c10.3,1,18.8,7.4,21.3,15.9
			c0.5,1.7,0.8,3.5,0.8,5.4c0,0.4,0,0.8,0,1.2h7.6c0,0,0,0,0,0c0-2.5,0.9-29.1-34.8-29.1c-15.3,0-29.9,10-30.5,23.8
			c-0.3,6.8,1,15.8,10.8,21.5l0,0c0,0,5.7,4.1,20.7,8.6c13.4,4,27.1,9.3,27.1,22.8c0,0,0.9,11.2-14.5,16.3
			c-3.2,0.9-7.5,1.4-14.7,1.4c-1,0-1.9,0-2.8-0.1c-10.3-1-18.8-7.4-21.3-15.9c-0.5-1.7-0.8-3.5-0.8-5.4c0-0.4,0-0.8,0-1.2h-7.6
			c0,0,0,0,0,0c0,2.5,0.1,29.4,35.8,29.4c7.3,0,15.8-1,21.9-4.8l0,0c13.2-7.5,12.2-21.1,12.2-21.1
			C531.4,238.3,516.6,230.8,501.9,226.4z"/>
	</g>
	<g>
		<g>
			<path class="st1" d="M391.5,55.3c-0.8-0.3-1.6-0.1-2.2,0.5c-0.9,0.8-1.4,1.8-2,2.8c-4.3,8.1-8.5,16.2-13.4,23.9
				c-1.9,3-3.9,5.9-7,7.8c-3.9,2.4-9.2,1.9-11-3.3c-0.7-2.1-1-4.2-1.1-6.4c-0.2-6.3,0.7-12.6,1.3-18.9c0.2-2.2,0.8-4.5,0.3-6.8
				c-0.3-1.4-1.8-1.8-2.9-1c-0.5,0.4-0.8,1-1,1.5c-1.3,3.3-2,6.8-3.2,10.2c-1.6,4.6-3.3,9.2-6,13.4c-1.6,2.4-3.4,4.5-6.3,5.5
				c-4,1.3-7.7,1-10.9-2.1c-2.3-2.2-3.5-5-4.5-7.9c-2.2-5.8-3.7-11.8-5.1-17.8c-1.3-6-2.3-12-3.1-18c-0.6-4.8-1.1-9.6-1.8-14.5
				c-0.2-1.3-0.4-2.6-1-3.9c-0.5-0.9-1.2-1.3-2.2-1.3c-1,0-1.6,0.6-1.9,1.4c-0.3,0.6-0.5,1.3-0.6,2c-0.8,3.8-1.1,7.7-1.5,11.5
				c-0.7,6.6-1.7,13.1-2.9,19.5c-0.8,4.3-1.9,8.6-3.1,12.8c-1.3,4.6-2.6,9.2-5.1,13.3c-2.1,3.5-5.1,5.8-9.5,5.6
				c-4.8-0.2-8-2.9-10.4-6.9c-2.9-5-4.9-10.4-6.5-15.9c-0.7-2.4-1.2-4.8-2.3-7.1c-0.7-1.5-1.5-1.9-2.7-1.6c-1.3,0.4-1.3,1.5-1.3,2.5
				c-0.1,1.9,0.2,3.7,0.4,5.6c0.6,5.5,1.2,11,1.5,16.8c-0.2,2.9-0.2,6.1-1.5,9.2c-1.4,3.3-4.9,4.8-8.3,3.7c-2.8-0.9-5-2.7-6.8-5
				c-4-5.2-7-11-10.1-16.6c-2.3-4.2-4.5-8.5-6.8-12.7c-0.8-1.5-2.2-2.2-3.2-1.8c-1,0.4-1.3,1.6-0.9,3.4c0.5,2.5,1.6,4.9,2.4,7.3
				c3.4,9.6,6.8,19.2,10.3,28.8c3.4,9.5,6.9,19.1,10.3,28.6c0.7,1.9,1.3,3.8,2.2,5.6c1.2,2.2,2.5,2.6,4.8,1.7
				c1.1-0.5,2.1-1.1,3.2-1.6c5.4-2.3,10.9-4,16.6-5.5c7.8-2,15.8-3.2,23.8-3.8c7.8-0.6,15.7-0.5,23.5,0.3c7,0.6,13.8,1.8,20.6,3.6
				c6.5,1.7,12.9,3.5,18.8,6.7c3,1.6,4.7,1,6-2.2c1.4-3.6,2.7-7.3,4-10.9c2.6-7.2,5.3-14.4,7.8-21.6c3.9-10.9,7.8-21.8,11.8-32.8
				c0.7-1.9,1.5-3.7,1.4-5.8C392.5,56.3,392.3,55.6,391.5,55.3z"/>
			<path class="st1" d="M361.6,139.1c-0.6-0.3-1.1-0.6-1.7-0.9c-8.4-3.6-17.2-6.4-26.2-8.2c-8.5-1.7-17-2.5-26.4-2.5
				c-5.2,0-11.1,0.3-17,1.1c-5.8,0.8-11.5,2-17.1,3.6c-6,1.7-11.8,3.7-17.4,6.3c-2.7,1.3-3.1,2.4-2.2,5.2c0.1,0.3,0.2,0.6,0.4,0.9
				c1.1,2.6,2.1,3.1,4.8,2.2c2.9-1,5.8-2.1,8.7-3c7.9-2.4,16-4.1,24.1-5.1c9.9-1.2,19.7-1.3,29.6-0.3c9.2,0.9,18.3,2.6,27.2,5.3
				c3.1,1,6.2,2.2,9.3,3.2c1.7,0.6,2.9,0.3,3.7-0.8c0.8-1.2,1.4-2.6,1.6-4.1C363.3,140.8,362.8,139.8,361.6,139.1z"/>
			<path class="st1" d="M308.6,15.4c3.8,0.1,6.8-3,6.8-6.7c0-3.7-2.9-6.4-6.7-6.6c-3.9-0.1-6.7,3.1-6.6,6.5
				C302.1,12.4,304.9,15.3,308.6,15.4z"/>
			<path class="st1" d="M227.3,46.3c0.1-3.2-2.3-5.4-5.2-5.5c-2.9-0.1-5.4,2.3-5.4,5.2c0,3,2.2,5.3,5.3,5.4
				C224.9,51.4,227.2,49.1,227.3,46.3z"/>
			<path class="st1" d="M395.2,40.8c-2.7,0-5.2,2.4-5.2,5c-0.1,3.1,2.3,5.6,5.2,5.6c2.9,0,5.4-2.5,5.3-5.5
				C400.5,43.2,398,40.8,395.2,40.8z"/>
			<path class="st1" d="M260,49.6c2.9,0,5.2-2.4,5.2-5.3c0-3-2.2-5.2-5.2-5.2c-3.1,0-5.3,2.3-5.2,5.3
				C254.7,47.4,257.1,49.6,260,49.6z"/>
			<path class="st1" d="M357.3,49.6c2.9,0,5.2-2.3,5.2-5.2c0-3-2.1-5.3-5-5.3c-3.1-0.1-5.4,2.1-5.5,5.1
				C352,47.2,354.4,49.6,357.3,49.6z"/>
		</g>
	</g>
</g>
</svg>
