<?xml version="1.0" encoding="utf-8"?>
<!-- Generator: Adobe Illustrator 25.0.1, SVG Export Plug-In . SVG Version: 6.00 Build 0)  -->
<svg version="1.1" id="Capa_1" xmlns="http://www.w3.org/2000/svg" xmlns:xlink="http://www.w3.org/1999/xlink" x="0px" y="0px"
	 viewBox="0 0 696.7 282.1" style="enable-background:new 0 0 696.7 282.1;" xml:space="preserve">
<style type="text/css">
	.st0{fill:#FFFFFF;}
	.st1{fill-rule:evenodd;clip-rule:evenodd;fill:#FFFFFF;}
	.st2{fill-rule:evenodd;clip-rule:evenodd;fill:#EF0743;}
	.st3{fill:#EF0743;}
</style>
<g>
	<g>
		<g>
			<path class="st0" d="M29.1,265.7c-3.6,0-6.9-0.6-9.9-1.8c-3-1.2-5.5-2.9-7.6-5.2c-2.1-2.3-3.8-5.1-4.9-8.4
				c-1.2-3.3-1.7-7.2-1.7-11.5c0-4.3,0.7-8.1,2-11.5c1.3-3.3,3.1-6.1,5.3-8.4c2.2-2.3,4.8-4,7.8-5.2c3-1.2,6.1-1.8,9.5-1.8
				c2.1,0,4,0.1,5.8,0.4c1.7,0.3,3.2,0.6,4.5,1c1.3,0.4,2.3,0.8,3.1,1.2c0.8,0.4,1.3,0.7,1.6,0.9l-2.1,5.9c-0.4-0.3-1.1-0.6-1.9-1
				c-0.8-0.3-1.8-0.7-2.9-1c-1.1-0.3-2.2-0.6-3.5-0.9c-1.3-0.2-2.5-0.3-3.8-0.3c-2.7,0-5.2,0.5-7.4,1.4c-2.2,0.9-4,2.3-5.6,4.1
				c-1.5,1.8-2.7,3.9-3.5,6.5c-0.8,2.5-1.2,5.4-1.2,8.6c0,3.1,0.4,5.9,1.1,8.4c0.7,2.5,1.8,4.7,3.2,6.5c1.4,1.8,3.2,3.2,5.4,4.2
				c2.2,1,4.7,1.5,7.5,1.5c3.3,0,6.1-0.3,8.2-1c2.2-0.7,3.8-1.3,4.9-1.9l1.9,5.9c-0.3,0.2-1,0.6-1.9,0.9c-0.9,0.4-2,0.7-3.3,1.1
				c-1.3,0.3-2.9,0.6-4.7,0.9C33.1,265.6,31.1,265.7,29.1,265.7z"/>
			<path class="st0" d="M29.1,266.6c-3.7,0-7.1-0.6-10.2-1.8c-3.1-1.2-5.8-3.1-8-5.4C8.7,257,7,254,5.8,250.6
				c-1.2-3.4-1.8-7.4-1.8-11.8c0-4.4,0.7-8.4,2-11.8c1.3-3.4,3.2-6.4,5.5-8.7c2.3-2.4,5-4.2,8.1-5.4s6.4-1.8,9.8-1.8
				c2.2,0,4.1,0.2,5.9,0.5c1.7,0.3,3.3,0.7,4.6,1.1c1.3,0.4,2.4,0.8,3.2,1.2c0.8,0.4,1.4,0.7,1.7,0.9l0.6,0.4l-2.7,7.6l-0.9-0.6
				c-0.4-0.3-1-0.6-1.8-0.9c-0.8-0.3-1.8-0.7-2.8-1c-1-0.3-2.1-0.6-3.4-0.8c-3.7-0.7-7.6-0.3-10.7,1c-2,0.9-3.8,2.2-5.3,3.9
				c-1.4,1.7-2.6,3.8-3.4,6.2c-0.8,2.4-1.2,5.2-1.2,8.3c0,3,0.3,5.7,1,8.2c0.7,2.4,1.7,4.5,3.1,6.2c1.3,1.7,3.1,3,5.1,3.9
				c2,0.9,4.4,1.4,7.2,1.4c3.2,0,5.9-0.3,8-1c2.1-0.7,3.7-1.3,4.8-1.8l0.9-0.5l2.3,7.5l-0.5,0.4c-0.4,0.3-1.1,0.6-2,1
				c-0.9,0.4-2.1,0.8-3.5,1.1c-1.3,0.3-3,0.7-4.8,0.9C33.2,266.5,31.2,266.6,29.1,266.6z M29.4,212.8c-3.2,0-6.3,0.6-9.2,1.7
				c-2.8,1.1-5.4,2.8-7.5,5c-2.1,2.2-3.9,4.9-5.1,8.1c-1.3,3.2-1.9,7-1.9,11.2c0,4.2,0.6,8,1.7,11.2c1.1,3.2,2.7,5.9,4.8,8.1
				c2,2.2,4.5,3.8,7.3,5c2.9,1.1,6.1,1.7,9.6,1.7c2,0,3.9-0.1,5.7-0.4c1.8-0.2,3.3-0.5,4.6-0.9c1.3-0.3,2.4-0.7,3.2-1
				c0.5-0.2,0.9-0.4,1.2-0.5l-1.4-4.4c-1.1,0.5-2.4,0.9-4.1,1.5c-2.3,0.7-5.1,1.1-8.5,1.1c-3,0-5.6-0.5-7.9-1.6
				c-2.3-1-4.2-2.5-5.7-4.4c-1.5-1.9-2.6-4.2-3.4-6.8c-0.7-2.6-1.1-5.5-1.1-8.6c0-3.2,0.4-6.2,1.3-8.8c0.9-2.7,2.1-4.9,3.7-6.8
				c1.6-1.9,3.6-3.3,5.9-4.3c2.3-1,4.9-1.5,7.7-1.5c1.3,0,2.7,0.1,4,0.3c1.3,0.2,2.5,0.5,3.6,0.9c1.1,0.4,2.1,0.7,2.9,1.1
				c0.4,0.2,0.8,0.3,1.1,0.5l1.5-4.3c-0.3-0.1-0.6-0.3-1-0.5c-0.7-0.4-1.7-0.8-3-1.1c-1.2-0.4-2.7-0.7-4.3-1
				C33.4,213,31.5,212.8,29.4,212.8z"/>
		</g>
		<g>
			<path class="st0" d="M90.3,238.8c0-4.4,0.7-8.3,2-11.7c1.3-3.4,3.1-6.2,5.3-8.4c2.3-2.3,4.9-3.9,7.9-5.1c3-1.1,6.2-1.7,9.5-1.7
				c3.3,0,6.4,0.6,9.4,1.7c2.9,1.1,5.5,2.8,7.8,5.1c2.2,2.3,4,5.1,5.3,8.4c1.3,3.4,2,7.3,2,11.7s-0.7,8.3-2,11.7
				c-1.3,3.4-3.1,6.2-5.3,8.4c-2.2,2.3-4.8,3.9-7.8,5.1c-2.9,1.1-6.1,1.7-9.4,1.7c-3.4,0-6.5-0.6-9.5-1.7c-3-1.1-5.6-2.8-7.9-5.1
				c-2.3-2.3-4-5.1-5.3-8.4C90.9,247.1,90.3,243.3,90.3,238.8z M97.8,238.8c0,3.1,0.4,6,1.2,8.5c0.8,2.6,1.9,4.7,3.4,6.5
				c1.5,1.8,3.2,3.2,5.3,4.1c2.1,1,4.5,1.4,7.1,1.4c2.6,0,5-0.5,7.1-1.4c2.1-1,3.8-2.3,5.3-4.1c1.5-1.8,2.6-3.9,3.4-6.5
				c0.8-2.5,1.2-5.4,1.2-8.5s-0.4-6-1.2-8.5c-0.8-2.5-1.9-4.7-3.4-6.5c-1.5-1.8-3.2-3.2-5.3-4.1c-2.1-1-4.4-1.4-7.1-1.4
				c-2.6,0-5,0.5-7.1,1.4c-2.1,1-3.9,2.3-5.3,4.1c-1.5,1.8-2.6,3.9-3.4,6.5C98.2,232.9,97.8,235.7,97.8,238.8z"/>
			<path class="st0" d="M115,266.6c-3.5,0-6.8-0.6-9.8-1.8c-3.1-1.2-5.8-3-8.2-5.3c-2.3-2.3-4.2-5.3-5.5-8.7c-1.3-3.4-2-7.5-2-12
				c0-4.5,0.7-8.5,2-12c1.4-3.5,3.2-6.4,5.5-8.7c2.3-2.3,5.1-4.1,8.2-5.3c6.1-2.3,13.4-2.4,19.6,0c3.1,1.2,5.8,3,8.1,5.3
				c2.3,2.3,4.1,5.3,5.5,8.7c1.3,3.5,2,7.5,2,12c0,4.5-0.7,8.5-2,12c-1.4,3.5-3.2,6.4-5.5,8.7c-2.3,2.3-5,4.1-8.1,5.3
				C121.7,266,118.4,266.6,115,266.6z M115,212.8c-3.2,0-6.4,0.6-9.2,1.7c-2.9,1.1-5.4,2.7-7.6,4.9c-2.2,2.2-3.9,4.9-5.2,8.1
				c-1.3,3.3-1.9,7.1-1.9,11.3c0,4.3,0.6,8.1,1.9,11.3c1.3,3.2,3,6,5.2,8.1c2.2,2.2,4.7,3.8,7.6,4.9c5.7,2.2,12.6,2.2,18.3,0
				c2.8-1.1,5.3-2.7,7.5-4.9c2.1-2.2,3.9-4.9,5.1-8.1c1.3-3.3,1.9-7.1,1.9-11.3c0-4.3-0.6-8.1-1.9-11.3c-1.3-3.2-3-6-5.1-8.1
				c-2.1-2.2-4.6-3.8-7.5-4.9C121.2,213.4,118.2,212.8,115,212.8z M114.8,260.3c-2.7,0-5.2-0.5-7.5-1.5c-2.2-1-4.1-2.5-5.7-4.4
				c-1.5-1.9-2.7-4.1-3.5-6.8c-0.8-2.6-1.2-5.6-1.2-8.8c0-3.2,0.4-6.1,1.2-8.8c0.8-2.6,2-4.9,3.5-6.8c1.5-1.9,3.4-3.3,5.7-4.4
				c2.2-1,4.7-1.5,7.5-1.5c2.7,0,5.2,0.5,7.4,1.5c2.2,1,4.1,2.5,5.6,4.4c1.5,1.9,2.7,4.1,3.5,6.8c0.8,2.6,1.2,5.6,1.2,8.8
				c0,3.2-0.4,6.1-1.2,8.8c-0.8,2.6-2,4.9-3.5,6.8c-1.5,1.9-3.4,3.3-5.6,4.4C120.1,259.8,117.6,260.3,114.8,260.3z M114.8,219.1
				c-2.5,0-4.7,0.5-6.7,1.4c-2,0.9-3.7,2.2-5,3.9c-1.4,1.7-2.5,3.8-3.2,6.2c-0.8,2.5-1.1,5.2-1.1,8.2c0,3,0.4,5.8,1.1,8.2
				c0.8,2.4,1.8,4.5,3.2,6.2c1.4,1.7,3.1,3,5,3.9c2,0.9,4.2,1.4,6.7,1.4c2.5,0,4.7-0.5,6.7-1.4c2-0.9,3.6-2.2,5-3.9
				c1.4-1.7,2.5-3.8,3.2-6.2c0.8-2.5,1.1-5.2,1.1-8.2c0-3-0.4-5.8-1.2-8.2c-0.8-2.4-1.8-4.5-3.2-6.2c-1.4-1.7-3.1-3-5-3.9
				C119.6,219.6,117.3,219.1,114.8,219.1z"/>
		</g>
		<g>
			<path class="st0" d="M214.1,257.5c-0.5-1.2-1.2-2.7-2-4.5c-0.8-1.8-1.7-3.8-2.6-5.9c-0.9-2.1-1.9-4.3-3-6.6
				c-1.1-2.3-2.1-4.4-3-6.4c-0.9-2-1.8-3.8-2.6-5.4c-0.8-1.6-1.5-2.8-2-3.6c-0.5,5.8-1,12.2-1.3,19s-0.6,13.7-0.9,20.6h-7.1
				c0.2-4.5,0.4-8.9,0.7-13.5c0.2-4.5,0.5-9,0.9-13.4c0.3-4.4,0.7-8.7,1-12.8c0.4-4.2,0.8-8.1,1.2-11.8h6.3c1.3,2.2,2.8,4.8,4.3,7.7
				c1.5,3,3.1,6.1,4.6,9.3c1.5,3.2,3,6.5,4.5,9.7c1.4,3.2,2.7,6.2,3.9,8.9c1.2-2.7,2.5-5.6,3.9-8.9c1.4-3.2,2.9-6.5,4.5-9.7
				c1.5-3.2,3.1-6.4,4.6-9.3c1.5-3,3-5.5,4.3-7.7h6.3c1.7,16.6,2.9,33.7,3.8,51.5h-7.1c-0.2-6.9-0.5-13.8-0.9-20.6
				c-0.3-6.8-0.8-13.1-1.3-19c-0.5,0.8-1.2,2.1-2,3.6c-0.8,1.6-1.7,3.4-2.6,5.4c-0.9,2-1.9,4.1-3,6.4c-1.1,2.3-2.1,4.4-3,6.6
				c-0.9,2.1-1.8,4.1-2.6,5.9c-0.8,1.8-1.5,3.3-2,4.5H214.1z"/>
			<path class="st0" d="M245.3,265.5h-8.8l0-0.8c-0.2-6.7-0.5-13.7-0.9-20.6c-0.3-5.7-0.7-11.1-1.1-16.1c-0.2,0.4-0.4,0.7-0.6,1.1
				c-0.8,1.6-1.7,3.4-2.6,5.4c-0.9,2-1.9,4.1-3,6.4c-1.1,2.2-2.1,4.4-3,6.6c-0.9,2.1-1.8,4.1-2.6,5.9c-0.8,1.8-1.5,3.3-2,4.5
				l-0.2,0.5h-6.9l-0.2-0.5c-0.5-1.2-1.1-2.7-2-4.5c-0.8-1.8-1.7-3.8-2.6-5.9c-0.9-2.1-1.9-4.3-3-6.5c-1.1-2.3-2.1-4.4-3-6.4
				c-0.9-2-1.8-3.8-2.6-5.4c-0.2-0.4-0.4-0.8-0.6-1.1c-0.4,5-0.8,10.4-1.1,16.1c-0.4,6.9-0.7,13.8-0.9,20.6l0,0.8h-8.8l0-0.9
				c0.2-4.5,0.4-9,0.7-13.5c0.2-4.5,0.5-9,0.9-13.4c0.3-4.4,0.7-8.7,1-12.8c0.4-4.2,0.8-8.2,1.2-11.8l0.1-0.8h7.6l0.3,0.4
				c1.4,2.2,2.8,4.8,4.3,7.8c1.5,3,3.1,6.1,4.6,9.3c1.5,3.2,3,6.5,4.5,9.7l3.1,7.1l3.2-7.1c1.4-3.2,2.9-6.5,4.5-9.7
				c1.5-3.2,3.1-6.4,4.6-9.3c1.5-3,3-5.6,4.3-7.8l0.3-0.4h7.6l0.1,0.8c1.7,16.5,3,33.9,3.8,51.5L245.3,265.5z M238.1,263.8h5.3
				c-0.8-17-2.1-33.8-3.7-49.7h-5.1c-1.3,2.1-2.6,4.5-4,7.3c-1.5,3-3.1,6.1-4.6,9.3c-1.5,3.2-3,6.5-4.4,9.7l-4.7,10.6l-4.7-10.6
				c-1.4-3.2-2.9-6.5-4.4-9.7c-1.5-3.2-3.1-6.3-4.6-9.3c-1.4-2.7-2.8-5.2-4-7.3h-5.1c-0.4,3.4-0.8,7.1-1.1,11
				c-0.4,4.2-0.7,8.4-1,12.8c-0.3,4.4-0.6,8.8-0.9,13.3c-0.2,4.2-0.4,8.4-0.6,12.6h5.3c0.2-6.5,0.5-13.1,0.9-19.8
				c0.3-6.8,0.8-13.2,1.3-19l0.2-2.7l1.4,2.3c0.5,0.9,1.2,2.1,2,3.7c0.8,1.6,1.7,3.4,2.7,5.4c0.9,2,1.9,4.1,3,6.4
				c1.1,2.3,2.1,4.5,3,6.6c0.9,2.1,1.8,4.1,2.6,5.9c0.7,1.6,1.3,2.9,1.8,4h4.6c0.5-1.1,1-2.4,1.7-4c0.8-1.8,1.7-3.8,2.6-5.9
				c0.9-2.1,2-4.3,3-6.6c1.1-2.3,2.1-4.4,3-6.4c0.9-2,1.8-3.8,2.7-5.4c0.8-1.6,1.5-2.8,2-3.7l1.4-2.3l0.2,2.7c0.5,5.8,1,12.2,1.3,19
				C237.6,250.6,237.9,257.3,238.1,263.8z"/>
		</g>
		<g>
			<path class="st0" d="M319.6,257.5c-0.5-1.2-1.2-2.7-2-4.5c-0.8-1.8-1.7-3.8-2.6-5.9c-0.9-2.1-1.9-4.3-3-6.6
				c-1.1-2.3-2.1-4.4-3-6.4c-0.9-2-1.8-3.8-2.6-5.4c-0.8-1.6-1.5-2.8-2-3.6c-0.5,5.8-1,12.2-1.3,19c-0.3,6.8-0.6,13.7-0.9,20.6h-7.1
				c0.2-4.5,0.4-8.9,0.7-13.5c0.2-4.5,0.5-9,0.9-13.4c0.3-4.4,0.7-8.7,1-12.8c0.4-4.2,0.8-8.1,1.2-11.8h6.3c1.3,2.2,2.8,4.8,4.3,7.7
				c1.5,3,3.1,6.1,4.6,9.3c1.5,3.2,3,6.5,4.5,9.7c1.4,3.2,2.7,6.2,3.9,8.9c1.2-2.7,2.5-5.6,3.9-8.9c1.4-3.2,2.9-6.5,4.5-9.7
				c1.5-3.2,3.1-6.4,4.6-9.3c1.5-3,3-5.5,4.3-7.7h6.3c1.7,16.6,2.9,33.7,3.8,51.5h-7.1c-0.2-6.9-0.5-13.8-0.9-20.6
				c-0.3-6.8-0.8-13.1-1.3-19c-0.5,0.8-1.2,2.1-2,3.6c-0.8,1.6-1.7,3.4-2.6,5.4c-0.9,2-1.9,4.1-3,6.4c-1.1,2.3-2.1,4.4-3,6.6
				c-0.9,2.1-1.8,4.1-2.6,5.9c-0.8,1.8-1.5,3.3-2,4.5H319.6z"/>
			<path class="st0" d="M350.8,265.5H342l0-0.8c-0.2-7-0.5-13.9-0.9-20.6c-0.3-5.7-0.6-11.1-1.1-16.1c-0.2,0.4-0.4,0.7-0.6,1.1
				c-0.8,1.6-1.7,3.4-2.6,5.4l-3,6.4c-1.1,2.2-2.1,4.4-3,6.5c-0.9,2.1-1.8,4.1-2.6,5.9c-0.8,1.8-1.5,3.3-2,4.5l-0.2,0.5H319
				l-0.2-0.5c-0.5-1.2-1.1-2.7-2-4.5c-0.8-1.8-1.7-3.8-2.6-5.9c-0.9-2.1-1.9-4.3-3-6.5l-3-6.4c-0.9-2-1.8-3.8-2.6-5.4
				c-0.2-0.4-0.4-0.8-0.6-1.1c-0.4,5-0.8,10.4-1.1,16.1c-0.3,6.7-0.6,13.6-0.9,20.6l0,0.8h-8.8l0-0.9c0.2-4.5,0.4-9,0.7-13.5
				c0.2-4.5,0.5-9,0.9-13.4c0.3-4.4,0.7-8.7,1-12.8c0.4-4.2,0.8-8.2,1.2-11.8l0.1-0.8h7.6l0.3,0.4c1.3,2.2,2.8,4.8,4.3,7.8
				c1.5,2.9,3.1,6.1,4.6,9.3c1.5,3.2,3,6.5,4.5,9.7l3.1,7.1l3.1-7.1c1.4-3.2,2.9-6.5,4.5-9.7c1.5-3.3,3.1-6.4,4.6-9.3
				c1.5-2.9,3-5.6,4.3-7.8l0.3-0.4h7.6l0.1,0.8c1.7,16.6,3,33.9,3.8,51.5L350.8,265.5z M343.7,263.8h5.3c-0.8-17-2.1-33.7-3.7-49.7
				h-5c-1.3,2.1-2.6,4.5-4,7.3c-1.5,2.9-3.1,6-4.6,9.3c-1.5,3.2-3,6.5-4.4,9.7l-4.7,10.6l-4.7-10.6c-1.4-3.2-2.9-6.5-4.4-9.7
				c-1.6-3.3-3.1-6.4-4.6-9.3c-1.4-2.8-2.8-5.2-4-7.3h-5.1c-0.4,3.4-0.8,7.1-1.1,11c-0.4,4.2-0.7,8.4-1,12.8
				c-0.3,4.4-0.6,8.8-0.9,13.3c-0.2,4.2-0.4,8.4-0.6,12.6h5.3c0.2-6.7,0.5-13.3,0.9-19.8c0.3-6.8,0.8-13.2,1.3-19l0.2-2.7l1.4,2.3
				c0.5,0.9,1.2,2.1,2,3.7c0.8,1.6,1.7,3.4,2.7,5.4l3,6.4c1.1,2.3,2.1,4.5,3,6.6c0.9,2.1,1.8,4.1,2.6,5.9c0.7,1.6,1.3,2.9,1.8,4h4.6
				c0.5-1.1,1-2.4,1.8-4c0.8-1.8,1.7-3.8,2.6-5.9c0.9-2.1,1.9-4.3,3-6.6l3-6.4c0.9-2,1.8-3.8,2.7-5.4c0.8-1.6,1.5-2.8,2-3.7l1.4-2.3
				l0.2,2.6c0.5,5.9,1,12.3,1.3,19C343.1,250.4,343.4,257.1,343.7,263.8z"/>
		</g>
		<g>
			<path class="st0" d="M402,264.6v-51.5h31.4v6.2h-24.2v15.3h21.5v6h-21.5v17.8h26.1v6.2H402z"/>
			<path class="st0" d="M436.1,265.5h-35v-53.2h33.1v7.9h-24.2v13.6h21.5v7.7h-21.5v16.1h26.1V265.5z M402.9,263.8h31.5v-4.4h-26.1
				v-19.5h21.5v-4.3h-21.5v-17h24.2V214h-29.7V263.8z"/>
		</g>
		<g>
			<path class="st0" d="M510.4,243.1c0.8,1,1.8,2.3,3,3.9c1.2,1.6,2.5,3.4,3.7,5.3c1.3,2,2.6,4,3.8,6.1c1.3,2.1,2.3,4.2,3.2,6.2
				h-7.9c-1-1.9-2.1-3.8-3.2-5.7c-1.2-1.9-2.3-3.8-3.5-5.5c-1.2-1.8-2.4-3.4-3.5-4.9c-1.2-1.5-2.2-2.9-3.2-4c-0.6,0-1.3,0.1-2,0.1
				c-0.7,0-1.3,0-2,0h-6.5v20.1h-7.2v-50.7c2-0.5,4.3-0.8,6.8-1c2.5-0.2,4.8-0.3,6.9-0.3c7.2,0,12.7,1.4,16.5,4.1
				c3.8,2.7,5.7,6.8,5.7,12.2c0,3.4-0.9,6.3-2.7,8.8C516.6,240.1,513.9,241.9,510.4,243.1z M499.5,218.9c-3.1,0-5.4,0.1-7.1,0.2
				v19.4h5.1c2.5,0,4.7-0.1,6.7-0.4c2-0.2,3.7-0.7,5-1.4c1.4-0.7,2.4-1.7,3.2-2.9c0.7-1.3,1.1-2.9,1.1-5c0-1.9-0.4-3.5-1.1-4.8
				c-0.7-1.3-1.7-2.3-3-3c-1.3-0.7-2.7-1.3-4.5-1.6C503.3,219.1,501.4,218.9,499.5,218.9z"/>
			<path class="st0" d="M525.6,265.5h-9.7l-0.2-0.5c-1-1.9-2.1-3.8-3.2-5.7c-1.1-1.9-2.3-3.7-3.5-5.5c-1.2-1.7-2.3-3.4-3.5-4.9
				c-1-1.4-2-2.6-2.9-3.6c-0.5,0-1,0-1.6,0h-7.6v20.1h-8.9v-52.3l0.7-0.2c2.1-0.5,4.4-0.8,6.9-1c2.5-0.2,4.9-0.3,6.9-0.3
				c7.4,0,13.1,1.4,17,4.2c4,2.9,6,7.2,6,12.9c0,3.6-1,6.7-2.9,9.3c-1.7,2.3-4.1,4.1-7.3,5.3c0.7,0.8,1.4,1.8,2.3,3
				c1.3,1.7,2.5,3.5,3.8,5.4c1.3,2,2.6,4,3.8,6.2c1.3,2.1,2.4,4.2,3.3,6.2L525.6,265.5z M516.9,263.8h6c-0.8-1.6-1.6-3.2-2.6-4.9
				c-1.2-2.1-2.5-4.2-3.8-6.1c-1.2-1.9-2.5-3.7-3.7-5.3c-1.2-1.6-2.2-2.9-3-3.9l-0.8-1l1.2-0.4c3.3-1.1,5.9-2.8,7.6-5.1
				c1.7-2.3,2.5-5,2.5-8.2c0-5.1-1.7-8.9-5.3-11.5c-3.6-2.6-9-3.9-16-3.9c-2,0-4.3,0.1-6.8,0.3c-2.2,0.2-4.2,0.4-6,0.8v49.2h5.5
				v-20.1h9.4c0.6,0,1.3,0,1.9-0.1l0.4,0l0.3,0.3c0.9,1.1,2,2.5,3.2,4c1.2,1.6,2.4,3.3,3.6,5c1.2,1.8,2.4,3.6,3.6,5.6
				C514.9,260.2,516,262,516.9,263.8z M497.6,239.4h-6v-21l0.8-0.1c1.7-0.1,4.1-0.2,7.1-0.2c2,0,3.9,0.2,5.6,0.5
				c1.8,0.3,3.4,0.9,4.7,1.7c1.4,0.8,2.5,1.9,3.3,3.4c0.8,1.4,1.2,3.2,1.2,5.3c0,2.2-0.4,4.1-1.2,5.5c-0.8,1.4-2,2.5-3.5,3.3
				c-1.5,0.7-3.2,1.2-5.3,1.5C502.4,239.3,500.1,239.4,497.6,239.4z M493.3,237.7h4.3c2.4,0,4.7-0.1,6.6-0.4
				c1.9-0.2,3.5-0.7,4.7-1.3c1.2-0.6,2.1-1.5,2.8-2.6c0.7-1.1,1-2.7,1-4.6c0-1.8-0.3-3.2-1-4.4c-0.7-1.2-1.6-2.1-2.7-2.7
				c-1.2-0.7-2.6-1.2-4.2-1.5c-1.7-0.3-3.4-0.4-5.3-0.4c-2.6,0-4.6,0.1-6.2,0.2V237.7z"/>
		</g>
		<g>
			<path class="st0" d="M594.1,265.7c-3.6,0-6.9-0.6-9.9-1.8c-3-1.2-5.5-2.9-7.6-5.2c-2.1-2.3-3.8-5.1-4.9-8.4
				c-1.2-3.3-1.7-7.2-1.7-11.5c0-4.3,0.7-8.1,2-11.5c1.3-3.3,3.1-6.1,5.3-8.4c2.2-2.3,4.8-4,7.8-5.2c3-1.2,6.1-1.8,9.5-1.8
				c2.1,0,4,0.1,5.8,0.4c1.7,0.3,3.2,0.6,4.5,1c1.3,0.4,2.3,0.8,3.1,1.2c0.8,0.4,1.3,0.7,1.6,0.9l-2.1,5.9c-0.4-0.3-1.1-0.6-1.9-1
				c-0.8-0.3-1.8-0.7-2.9-1c-1.1-0.3-2.2-0.6-3.5-0.9c-1.3-0.2-2.5-0.3-3.8-0.3c-2.7,0-5.2,0.5-7.4,1.4c-2.2,0.9-4,2.3-5.6,4.1
				c-1.5,1.8-2.7,3.9-3.5,6.5c-0.8,2.5-1.2,5.4-1.2,8.6c0,3.1,0.4,5.9,1.1,8.4c0.7,2.5,1.8,4.7,3.2,6.5c1.4,1.8,3.2,3.2,5.4,4.2
				c2.2,1,4.7,1.5,7.5,1.5c3.3,0,6.1-0.3,8.2-1c2.2-0.7,3.8-1.3,4.9-1.9l1.9,5.9c-0.3,0.2-1,0.6-1.9,0.9c-0.9,0.4-2,0.7-3.3,1.1
				c-1.3,0.3-2.9,0.6-4.7,0.9C598.1,265.6,596.2,265.7,594.1,265.7z"/>
			<path class="st0" d="M594.1,266.6c-3.7,0-7.1-0.6-10.2-1.8c-3.1-1.2-5.8-3.1-8-5.4c-2.2-2.4-3.9-5.3-5.1-8.7
				c-1.2-3.4-1.8-7.4-1.8-11.8c0-4.4,0.7-8.4,2-11.8c1.3-3.4,3.2-6.4,5.5-8.7c2.3-2.4,5-4.2,8.1-5.4c3.1-1.2,6.4-1.8,9.8-1.8
				c2.2,0,4.1,0.2,5.9,0.5c1.7,0.3,3.3,0.7,4.6,1.1c1.3,0.4,2.4,0.8,3.2,1.2c0.8,0.4,1.4,0.7,1.7,0.9l0.6,0.4l-2.7,7.6l-0.9-0.6
				c-0.4-0.3-1-0.6-1.8-0.9c-0.8-0.3-1.8-0.7-2.8-1c-1-0.3-2.1-0.6-3.4-0.8c-3.8-0.7-7.6-0.3-10.7,1c-2,0.9-3.8,2.2-5.3,3.9
				c-1.4,1.7-2.6,3.8-3.4,6.2c-0.8,2.4-1.2,5.2-1.2,8.3c0,3,0.3,5.7,1,8.2c0.7,2.4,1.7,4.5,3.1,6.2c1.3,1.7,3,3,5.1,3.9
				c2,0.9,4.4,1.4,7.2,1.4c3.2,0,5.9-0.3,8-1c2.1-0.7,3.7-1.3,4.8-1.8l0.9-0.5l2.3,7.5l-0.5,0.4c-0.4,0.3-1.1,0.6-2,1
				c-0.9,0.4-2.1,0.8-3.5,1.1c-1.3,0.3-3,0.7-4.8,0.9C598.2,266.5,596.2,266.6,594.1,266.6z M594.5,212.8c-3.2,0-6.3,0.6-9.2,1.7
				c-2.8,1.1-5.4,2.8-7.5,5c-2.1,2.2-3.9,4.9-5.1,8.1c-1.3,3.2-1.9,7-1.9,11.2c0,4.2,0.6,8,1.7,11.2c1.1,3.2,2.7,5.9,4.8,8.1
				c2,2.2,4.5,3.9,7.3,5c2.9,1.1,6.1,1.7,9.6,1.7c2,0,3.9-0.1,5.7-0.4c1.8-0.2,3.3-0.5,4.6-0.9c1.3-0.3,2.4-0.7,3.2-1
				c0.5-0.2,0.9-0.4,1.2-0.5l-1.4-4.4c-1,0.5-2.4,0.9-4.1,1.5c-2.3,0.7-5.1,1.1-8.5,1.1c-3,0-5.6-0.5-7.9-1.6
				c-2.3-1-4.2-2.5-5.7-4.4c-1.5-1.9-2.6-4.2-3.4-6.8c-0.7-2.6-1.1-5.5-1.1-8.6c0-3.2,0.4-6.2,1.3-8.8c0.9-2.7,2.1-4.9,3.7-6.8
				c1.6-1.9,3.6-3.3,5.9-4.3c3.4-1.4,7.6-1.9,11.7-1.1c1.3,0.2,2.5,0.5,3.6,0.9c1.1,0.4,2.1,0.7,2.9,1.1c0.4,0.2,0.8,0.3,1.1,0.5
				l1.5-4.3c-0.3-0.1-0.6-0.3-1-0.5c-0.7-0.4-1.7-0.8-3-1.1c-1.2-0.4-2.7-0.7-4.3-1C598.4,213,596.5,212.8,594.5,212.8z"/>
		</g>
		<g>
			<path class="st0" d="M658.9,264.6v-51.5h31.4v6.2h-24.2v15.3h21.5v6h-21.5v17.8h26.1v6.2H658.9z"/>
			<path class="st0" d="M693,265.5h-35v-53.2h33.1v7.9h-24.2v13.6h21.5v7.7h-21.5v16.1H693V265.5z M659.7,263.8h31.5v-4.4h-26.1
				v-19.5h21.5v-4.3h-21.5v-17h24.2V214h-29.7V263.8z"/>
		</g>
	</g>
	<g>
		<g>
			<g>
				<g>
					<path class="st1" d="M4.9,150.4c0,2.9,0.7,3.6,3.5,3.6h19.1c2.8,0,3.6-0.7,3.6-3.5V20.1c0-2.5-0.7-3.3-3.2-3.3H8.7
						c-3.3,0-3.9,0.6-3.9,3.9V150.4z"/>
				</g>
				<g>
					<path class="st2" d="M629.6,54.3c5.3-0.2,10.3-0.6,15.3-0.7c7.1-0.2,14.2-0.2,21.2,1c12.9,2.2,20.6,9.4,23.6,22.3
						c1.5,6.6,2.2,13.3,2.4,20c0.3,10.4,0.3,20.8-1.7,31c-1.4,7.1-3.8,13.6-9.5,18.5c-4.2,3.6-9.3,5.4-14.7,6.5
						c-7.1,1.4-14.2,1.8-21.3,1.5c-8.4-0.3-16.8-0.9-25.3-1.6c-4.2-0.3-8.4-1.1-12.6-1.7c-2.2-0.3-3.2-1.5-3.5-3.8
						c-0.1-0.7-0.1-1.4-0.1-2.1c0-41.3,0-82.6,0-123.9c0-0.5,0-0.9,0-1.4c0.1-2.9,0.7-3.4,3.7-3.4h18.8c3.3,0,3.8,0.5,3.8,3.8v31.9
						V54.3z M629.6,130.6c8.2,1,16.3,1.8,24.5,0.6c4.4-0.7,7.9-2.8,9.5-7.2c0.8-2.1,1.4-4.4,1.5-6.7c0.3-7.7,0.4-15.4,0.3-23.2
						c0-2.3-0.4-4.6-0.9-6.8c-1.6-7-5.2-10.2-12.4-10.6c-7.3-0.4-14.5-0.3-21.8-0.4c-0.2,0-0.4,0.1-0.7,0.2V130.6z"/>
				</g>
				<g>
					<path class="st1" d="M301.4,95.2c0-3.3,0.4-6.4,0-9.4c-0.7-4.9-4.5-8-10.1-8.7c-2.5-0.3-5-0.5-7.6-0.5c-9.7,0-19.4,0-29.1,0
						c-4.1,0-4.2-0.2-4.2-4.2c0-4.3,0.1-8.6,0-12.9c0-1.8,0.8-2.7,2.5-3c14.7-2.7,29.5-3.2,44.4-2.1c6.2,0.5,12.2,1.8,17.8,4.6
						c7.2,3.7,11,9.7,12.1,17.6c0.4,3,0.6,6,0.6,9c0,19.4,0,38.9,0,58.3c0,0.4,0,0.7,0,1.1c-0.1,4.4-1.5,5.7-5.8,6.5
						c-12.5,2.5-25.2,3.2-38,3.3c-7.2,0-14.5-0.1-21.7-1.5c-10-2-16.4-7.8-18.4-18c-1.6-8-1.7-15.9,0.7-23.8
						c2.4-8.1,8.2-12.8,16.2-14.5c4.9-1.1,10-1.6,15.1-1.8c7.8-0.3,15.7-0.1,23.6-0.1H301.4z M301.5,112.6c-8.2,0-16.4-0.3-24.5,0
						c-4.9,0.2-7.4,2.8-8,7.6c-0.3,1.9-0.1,3.9,0.1,5.8c0.5,3.7,2.7,6,6.3,6.7c2.6,0.5,5.2,0.8,7.9,0.8c6.1,0.1,12.1-0.3,18.1-1.7
						V112.6z"/>
				</g>
				<g>
					<path class="st1" d="M191.8,76.9c-4.3,0.2-8.5,1.2-11.1,5.1c-1.9,2.8-2.6,6.1-2.9,9.4c-0.8,8.7-0.8,17.4,0,26.1
						c0.4,3.8,1.1,7.7,3.9,10.6c2.7,3,6.4,3.9,10.3,4c10.1,0.2,20.3,0.1,30.5,0.2c0.6,0,1.2,0,1.8,0c3.1,0.1,3.7,0.7,3.7,3.8
						c0,4.1,0,8.2,0,12.2c0,3-0.9,3.8-3.7,4.3c-12.1,2.2-24.3,2.6-36.5,2.1c-7.3-0.4-14.6-1.2-21.3-4.5c-5.5-2.8-9.1-7.1-11.4-12.8
						c-2.7-6.9-3.6-14.2-3.7-21.5c-0.1-10.4,0.1-20.8,0.6-31.1c0.3-5.6,1.7-11.2,4.4-16.3c2.8-5.5,7.3-9.1,13.1-11.3
						c5.8-2.1,11.8-2.9,17.9-3.1c10.3-0.5,20.6-0.3,30.9,1c2.3,0.3,4.5,0.7,6.8,1.1c1.8,0.3,2.9,1.3,2.9,3.2c0,4.8,0.1,9.6,0,14.3
						c0,1.8-1,2.7-2.8,2.7h-17.2C207.9,76.6,197.2,76.7,191.8,76.9"/>
				</g>
				<g>
					<path class="st2" d="M526.1,113c0.6,3.6,0.9,6.9,1.7,10.1c1.3,5.2,5.1,7.5,10.1,8.1c3.4,0.4,6.7,0.5,10.1,0.5
						c9.5,0.1,19,0,28.5,0c3.5,0,4,0.5,4,4c0,4.2,0,8.4,0,12.6c0,2.8-0.6,3.3-3.3,3.8c-13.7,2.4-27.6,2.5-41.5,2.1
						c-6-0.2-12-1.1-17.6-3.3c-8.7-3.4-13.5-10.2-15.7-18.9c-1.7-6.2-2.4-12.6-2.4-19.1c0-9.2,0.2-18.4,0.7-27.6
						c0.3-5.3,1.6-10.6,3.8-15.5c3.7-8,10.2-12.5,18.5-14.4c11.6-2.6,23.4-2.5,35.2-1.1c4,0.5,8,1.4,11.8,2.8
						c8.2,3,12.6,9.5,14.9,17.6c2,7,2.5,14.3,2.8,21.5c0.1,4.2,0.1,8.3,0.1,12.4c0,2.9-1.1,4-3.9,4.2c-1.2,0.1-2.5,0.1-3.7,0.1
						h-51.2H526.1z M561.6,95.7c-0.5-3.8-0.9-7.4-1.6-10.9c-0.8-3.7-3.1-6.4-6.8-7.5c-6.1-1.8-12.2-1.7-18.3,0
						c-2.3,0.6-4.2,1.9-5.5,3.9c-2.9,4.4-3,9.4-3.1,14.4H561.6z"/>
				</g>
				<g>
					<path class="st1" d="M136.3,99.1c-0.1-7.5-0.5-15.3-2.6-23c-2.2-8.4-6.8-15-15.1-18.4c-4.6-1.9-9.6-3-14.6-3.2
						c-6.9-0.3-13.8-0.5-20.7-0.3c-6.2,0.1-12.3,1-18.2,3.1c-5.9,2.1-10.6,5.9-13.5,11.5c-3.4,6.4-4.6,13.5-5,20.6
						c-0.4,8.2-0.6,16.4-0.3,24.6c0.2,5.7,1.1,11.5,2.1,17.1c1,5.4,3.2,10.4,7.1,14.4c4.9,5.1,11.3,7.1,18,8.2
						c8.7,1.4,17.5,1.4,26.3,1c5.9-0.2,11.9-1,17.5-3.1c4.5-1.6,8.4-4.2,11.3-8.1c3.2-4.2,4.8-9,5.8-14c1.5-7,1.8-14,1.9-21.5
						L136.3,99.1z M110.2,108c-0.3,4.1-0.6,8.5-1.3,12.8c-1.2,6.9-4.4,9.8-11.3,10.9c-4.6,0.8-9.3,0.7-13.9-0.2
						c-5.9-1.1-9-4.6-10.1-11c-1.4-8.1-1.3-16.3-0.9-24.5c0.1-2.4,0.4-4.8,0.8-7.2c1.3-7.7,4.4-11,12.2-11.9c4.4-0.5,9-0.3,13.4,0.3
						c6.2,1,9.4,4.9,10.3,12c0.5,4.3,0.7,8.7,1,13.4L110.2,108z"/>
				</g>
				<g>
					<path class="st3" d="M490.5,56.5c0-0.2,0-0.3-0.1-0.5c0-0.1,0-0.1-0.1-0.2c-0.1-0.2-0.2-0.4-0.3-0.5c-0.2-0.2-0.3-0.3-0.6-0.4
						c-0.4-0.2-1.1-0.2-2-0.2c-3.4,0-18,0-21.7,0c-0.1,0-0.2,0-0.2,0c-1.7,0.1-2.1,1-2.6,3.1c-1.1,4.4-26.4,96.3-26.4,96.3h18.5h0
						c5.8,0,9.6-4.4,11.3-9.8c0.5-1.6,5.3-18.7,10.4-37.2c5.8-20.9,12.1-43.7,13.3-48.1c0.1-0.4,0.2-1,0.3-1.4
						c0.1-0.3,0.1-0.6,0.1-0.9C490.5,56.7,490.5,56.6,490.5,56.5"/>
				</g>
				<g>
					<path class="st0" d="M427.1,55c0.2,0.1,0.4,0.2,0.5,0.4C427.5,55.2,427.4,55,427.1,55"/>
				</g>
				<g>
					<path class="st0" d="M426.4,54.8c0.3,0,0.5,0.1,0.7,0.1C426.9,54.9,426.7,54.8,426.4,54.8"/>
				</g>
				<g>
					<path class="st0" d="M423.4,54.8c-5,0-16,0-19.6,0C407.3,54.7,418.4,54.8,423.4,54.8"/>
				</g>
				<g>
					<path class="st0" d="M425.2,54.8c0.4,0,0.7,0,1,0C425.9,54.8,425.6,54.8,425.2,54.8"/>
				</g>
				<g>
					<path class="st0" d="M426.2,54.8c0.1,0,0.2,0,0.2,0C426.3,54.8,426.3,54.8,426.2,54.8"/>
				</g>
				<g>
					<path class="st0" d="M427.1,55C427.1,55,427.1,55,427.1,55C427.1,55,427.1,55,427.1,55C427.1,55,427.1,55,427.1,55"/>
				</g>
				<g>
					<path class="st0" d="M427.7,55.3C427.7,55.3,427.7,55.3,427.7,55.3C427.7,55.3,427.7,55.3,427.7,55.3
						C427.7,55.3,427.7,55.3,427.7,55.3"/>
				</g>
				<g>
					<path class="st0" d="M425.2,54.8L425.2,54.8c-0.4,0-1,0-1.8,0C424.1,54.8,424.7,54.8,425.2,54.8L425.2,54.8z"/>
				</g>
				<g>
					<path class="st3" d="M428.1,56.5c0-0.2,0-0.3-0.1-0.5c0-0.1,0-0.1-0.1-0.2c-0.1-0.2-0.2-0.4-0.3-0.5c0,0,0,0,0,0
						c-0.1-0.2-0.3-0.3-0.5-0.4c0,0,0,0,0,0c-0.2-0.1-0.4-0.1-0.7-0.1c-0.1,0-0.2,0-0.2,0c-0.3,0-0.6,0-1,0h0c-0.4,0-1,0-1.8,0
						c-5,0-16.1,0-19.6,0c-0.1,0-0.2,0-0.3,0c-0.1,0-0.2,0-0.2,0c-1.7,0.1-2.1,1-2.6,3.1c-1.1,4.4-26.4,96.3-26.4,96.3h18.5h0
						c5.8,0,9.6-4.4,11.3-9.8c0.5-1.6,5.3-18.7,10.4-37.2c0-0.1,0.1-0.2,0.1-0.3c5.8-20.8,12-43.4,13.2-47.8c0.1-0.4,0.2-1,0.3-1.4
						c0.1-0.3,0.1-0.6,0.1-0.9C428.1,56.7,428.1,56.6,428.1,56.5"/>
				</g>
				<g>
					<path class="st0" d="M362.8,54.8c-3.4,0-17.9,0-21.7,0c-1.9,0-2.7,0.9-2.3,2.8c0,0.4,0.1,0.8,0.2,1.2
						c5.8,21.4,21.4,78.7,23.7,85.6c1.8,5.4,5.6,9.8,11.3,9.8h0.1c0,0,4.2-15.4,9.2-33.7c-7.2-26-16.2-58.7-17.3-63.2
						C365.6,55,365.2,54.8,362.8,54.8"/>
				</g>
				<g>
					<path class="st0" d="M428.6,57.4c-0.3-1-0.5-1.6-0.8-2c0.1,0.1,0.2,0.3,0.3,0.5c0,0.1,0,0.1,0.1,0.2c0,0.2,0.1,0.3,0.1,0.5
						c0,0.1,0,0.2,0,0.3c0,0.3,0,0.6-0.1,0.9c-0.1,0.4-0.2,1-0.3,1.4c-1.2,4.4-7.4,27-13.2,47.8c4.9,17.9,9.4,34,10.6,37.5
						c1.8,5.4,5.6,9.8,11.3,9.8h0.1c0,0,4.2-15.4,9.2-33.7C438.6,94.6,429.7,61.8,428.6,57.4"/>
				</g>
			</g>
		</g>
	</g>
</g>
</svg>
