<?xml version="1.0" encoding="utf-8"?>
<!-- Generator: Adobe Illustrator 25.0.1, SVG Export Plug-In . SVG Version: 6.00 Build 0)  -->
<svg version="1.1" id="Capa_1" xmlns="http://www.w3.org/2000/svg" xmlns:xlink="http://www.w3.org/1999/xlink" x="0px" y="0px"
	 viewBox="0 0 287.4 404.7" style="enable-background:new 0 0 287.4 404.7;" xml:space="preserve">
<style type="text/css">
	.st0{fill:#FFFFFF;}
	.st1{fill:#EF0743;}
</style>
<g>
	<g>
		<g>
			<path class="st0" d="M242.1,213.8c-1.7-3.5-6-4.9-9.4-3h0c-3.1,1.8-4.3,5.6-2.7,8.8c6.2,12.9,9.5,27.1,9.5,41.6
				c0,54-45,97.8-99.5,95.6c-49.7-1.9-89.9-42.2-91.9-91.9c-2.1-54.5,41.6-99.5,95.6-99.5c26.4,0,51.4,10.8,69.4,29.8
				c2.4,2.6,6.5,2.8,9.2,0.6c3-2.5,3.3-7,0.6-9.8c-20.6-21.7-49.1-34-79.2-34c-61.6,0-111.5,51.3-109.1,113.5
				c2.2,56.6,48.1,102.6,104.8,104.8c62.1,2.4,113.5-47.5,113.5-109.1C252.9,244.7,249.2,228.5,242.1,213.8z"/>
		</g>
	</g>
	<g>
		<path class="st1" d="M200.8,214.1c0-0.2,0-0.3-0.1-0.5c0-0.1,0-0.1-0.1-0.2c-0.1-0.2-0.2-0.4-0.3-0.5c-0.1-0.2-0.3-0.3-0.6-0.4
			c-0.4-0.2-1-0.2-1.9-0.2c-3.3,0-17.7,0-21.3,0c-0.1,0-0.1,0-0.2,0c-1.7,0.1-2.1,1-2.6,3.1c-1.1,4.3-25.9,94.4-25.9,94.4H166h0
			c5.6,0,9.4-4.3,11.1-9.6c0.5-1.5,5.2-18.4,10.2-36.5c5.7-20.5,11.9-42.8,13-47.2c0.1-0.4,0.2-1,0.3-1.4c0.1-0.3,0.1-0.6,0.1-0.9
			C200.8,214.3,200.8,214.2,200.8,214.1"/>
		<path class="st1" d="M139.6,214.1c0-0.2,0-0.3-0.1-0.5c0-0.1,0-0.1-0.1-0.2c-0.1-0.2-0.2-0.4-0.3-0.5c0,0,0,0,0,0
			c-0.1-0.1-0.3-0.3-0.5-0.4c0,0,0,0-0.1,0c-0.2-0.1-0.4-0.1-0.7-0.1c-0.1,0-0.1,0-0.2,0c-0.3,0-0.6,0-1,0h0c-0.4,0-1,0-1.7,0
			c-4.9,0-15.8,0-19.2,0c-0.1,0-0.2,0-0.3,0c-0.1,0-0.2,0-0.2,0c-1.7,0.1-2.1,1-2.6,3.1c-1.1,4.3-25.9,94.4-25.9,94.4h18.2h0
			c5.7,0,9.4-4.3,11.1-9.6c0.5-1.5,5.2-18.4,10.2-36.5c0-0.1,0.1-0.2,0.1-0.3c5.7-20.4,11.8-42.5,12.9-46.9c0.1-0.4,0.2-1,0.3-1.4
			c0.1-0.3,0.1-0.6,0.1-0.9C139.6,214.3,139.6,214.2,139.6,214.1"/>
	</g>
	<g>
		<path class="st0" d="M238.9,153.8V88c0-4-1.3-7.6-3.5-10.6l49.3-63l0.9-1.1C289.8,7.9,286,0,279.1,0H279h-25.6h-17.1h-29.6h-17.1
			h-25.6h-17.1l-3.1,4l-3.1-4h-17.1H97.9H80.8H51.2H34.1H8.5H8.2C1.4,0-2.4,7.8,1.8,13.2l1,1.3l49.3,62.9c-2.2,3-3.5,6.7-3.5,10.6
			v65.8C18.8,180.2,0,218.9,0.2,261.8c0.4,77.1,62.3,140.6,139.4,142.8c81,2.3,147.7-63,147.7-143.5
			C287.3,218.4,268.6,180.1,238.9,153.8z M267.7,14.5l-43.8,55.9c-0.9-0.2-1.9-0.2-2.9-0.2h-22.6L242,14.5
			C242,14.5,267.7,14.5,267.7,14.5z M216.5,98.5C216.5,98.5,216.5,98.5,216.5,98.5c0-0.3-0.1-0.6-0.1-0.8c0-0.1,0-0.1-0.1-0.2
			c-0.1-0.2-0.1-0.5-0.2-0.7c0,0,0-0.1,0-0.1c-0.1-0.3-0.2-0.5-0.4-0.8c0-0.1-0.1-0.1-0.1-0.1c-0.1-0.2-0.3-0.4-0.4-0.6
			c0,0,0-0.1-0.1-0.1l-9-11.5H221c2.5,0,4.5,2,4.5,4.5v55.2c-2.9-2-5.9-3.9-9-5.8V99.2C216.5,99,216.5,98.7,216.5,98.5z
			 M203.1,105.9v24.5c-18.1-8.2-38.2-12.8-59.3-12.8s-41.2,4.6-59.3,12.8v-24.5L203.1,105.9L203.1,105.9z M225,14.5l-36.5,46.6
			l-14.8-18.9l21.7-27.7C195.3,14.5,225,14.5,225,14.5z M178.3,14.5l-13.2,16.8l-12.8-16.4l0.3-0.4L178.3,14.5L178.3,14.5z
			 M134.9,14.5l61.1,78h-17.9h-7.8l-61.1-78L134.9,14.5L134.9,14.5z M19.8,14.5h72.3l61.1,78h-29.6L73.2,28.1
			c-2.3-2.9-6.5-3.4-9.4-1.1l0,0c-2.9,2.3-3.4,6.5-1.2,9.4l44,56.1H81L19.8,14.5z M71,101.5v35.9c-3.1,1.8-6.1,3.7-9,5.8V90.1
			L71,101.5z M146.7,391.2c-74.1,1.6-134.6-58.9-133-133c1.5-69.3,57.9-125.6,127.2-127.2c74.1-1.6,134.6,59,133,133
			C272.3,333.4,216,389.7,146.7,391.2z"/>
	</g>
</g>
</svg>
