<?xml version="1.0" encoding="utf-8"?>
<!-- Generator: Adobe Illustrator 25.0.1, SVG Export Plug-In . SVG Version: 6.00 Build 0)  -->
<svg version="1.1" id="Capa_1" xmlns="http://www.w3.org/2000/svg" xmlns:xlink="http://www.w3.org/1999/xlink" x="0px" y="0px"
	 viewBox="0 0 339.3 502.2" style="enable-background:new 0 0 339.3 502.2;" xml:space="preserve">
<style type="text/css">
	.st0{fill:#FFFFFF;}
	.st1{fill:#EF0743;}
</style>
<g>
	<g>
		<g>
			<g>
				<path class="st0" d="M169.6,2.7C77.6,2.7,2.7,77.6,2.7,169.6c0,35.9,11.2,70,32.4,98.8l126.5,187.8c1.8,2.7,4.8,4.3,8.1,4.3
					c3.2,0,6.3-1.6,8.1-4.3l126.5-187.8c21.2-28.8,32.4-63,32.4-98.8C336.6,77.6,261.7,2.7,169.6,2.7z M288.4,257.2
					c-0.1,0.2-0.2,0.3-0.4,0.5L169.6,433.4L51.3,257.7c-0.1-0.2-0.2-0.4-0.4-0.5c-18.8-25.5-28.8-55.7-28.8-87.5
					c0-81.3,66.2-147.5,147.5-147.5s147.5,66.2,147.5,147.5C317.1,201.4,307.2,231.7,288.4,257.2z"/>
				<path class="st0" d="M169.6,463.2c-4.1,0-8-2.1-10.3-5.5L32.9,270C11.4,240.8,0,206.1,0,169.6C0,76.1,76.1,0,169.6,0
					c93.5,0,169.6,76.1,169.6,169.6c0,36.4-11.4,71.1-32.9,100.4L180,457.8C177.7,461.2,173.8,463.2,169.6,463.2z M169.6,5.4
					C79.1,5.4,5.4,79.1,5.4,169.6c0,35.3,11,68.9,31.9,97.2l0.1,0.1l126.5,187.8c1.3,1.9,3.5,3.1,5.8,3.1c2.3,0,4.5-1.2,5.8-3.1
					L302,266.9c20.8-28.3,31.9-61.9,31.9-97.2C333.9,79.1,260.2,5.4,169.6,5.4z M169.6,438.2L49,259.2c-0.1-0.2-0.2-0.3-0.3-0.5
					c-19.1-25.9-29.3-56.7-29.3-89.1c0-82.8,67.4-150.2,150.2-150.2c82.8,0,150.2,67.4,150.2,150.2c0,32.4-10.1,63.2-29.3,89.1l0,0
					c-0.1,0.1-0.2,0.2-0.3,0.4L169.6,438.2z M169.6,24.9c-79.8,0-144.8,64.9-144.8,144.8c0,31.2,9.8,60.9,28.2,85.9
					c0.2,0.2,0.3,0.5,0.5,0.7l116.1,172.3l116.1-172.4c0.1-0.2,0.3-0.4,0.4-0.6l0,0c18.5-25,28.2-54.7,28.2-85.9
					C314.4,89.8,249.5,24.9,169.6,24.9z"/>
			</g>
		</g>
	</g>
	<g>
		<g>
			<g>
				<path class="st1" d="M237.8,158.9c-5.4,0-9.7,4.4-9.7,9.7c0,32.2-26.2,58.4-58.4,58.4s-58.4-26.2-58.4-58.4s26.2-58.4,58.4-58.4
					c11.7,0,23,3.4,32.6,10c4.5,3,10.5,1.8,13.5-2.6c3-4.5,1.8-10.5-2.6-13.5c-12.9-8.7-27.9-13.3-43.5-13.3
					c-42.9,0-77.8,34.9-77.8,77.8s34.9,77.8,77.8,77.8s77.8-34.9,77.8-77.8C247.5,163.2,243.1,158.9,237.8,158.9z"/>
				<path class="st1" d="M169.6,249.2c-44.4,0-80.6-36.1-80.6-80.6c0-44.4,36.1-80.6,80.6-80.6c16.1,0,31.7,4.8,45.1,13.8
					c5.7,3.8,7.2,11.6,3.3,17.3c-3.8,5.7-11.6,7.2-17.3,3.3c-9.2-6.2-20-9.5-31.1-9.5c-30.7,0-55.7,25-55.7,55.7
					c0,30.7,25,55.7,55.7,55.7s55.7-25,55.7-55.7c0-6.9,5.6-12.4,12.4-12.4c6.9,0,12.4,5.6,12.4,12.4
					C250.2,213,214.1,249.2,169.6,249.2z M169.6,93.5c-41.4,0-75.1,33.7-75.1,75.1c0,41.4,33.7,75.1,75.1,75.1
					c41.4,0,75.1-33.7,75.1-75.1c0-3.9-3.1-7-7-7s-7,3.1-7,7c0,33.7-27.4,61.1-61.1,61.1c-33.7,0-61.1-27.4-61.1-61.1
					s27.4-61.1,61.1-61.1c12.2,0,24.1,3.6,34.2,10.4c3.2,2.2,7.6,1.3,9.7-1.9c2.2-3.2,1.3-7.6-1.9-9.7
					C199.2,97.9,184.7,93.5,169.6,93.5z"/>
			</g>
		</g>
	</g>
	<g>
		<g>
			<g>
				<path class="st1" d="M286.3,480H52.7c-5.4,0-9.7,4.4-9.7,9.7c0,5.4,4.4,9.7,9.7,9.7h233.5c5.4,0,9.7-4.4,9.7-9.7
					C296,484.4,291.6,480,286.3,480z"/>
				<path class="st1" d="M286.3,502.2H52.7c-6.9,0-12.4-5.6-12.4-12.4c0-6.9,5.6-12.4,12.4-12.4h233.5c3.3,0,6.4,1.3,8.8,3.6
					c2.4,2.3,3.6,5.5,3.6,8.8C298.7,496.6,293.1,502.2,286.3,502.2z M52.7,482.7c-3.9,0-7,3.1-7,7c0,3.9,3.1,7,7,7h233.5
					c3.9,0,7-3.1,7-7c0-1.9-0.7-3.6-2.1-5c-1.3-1.3-3.1-2.1-5-2.1H52.7z"/>
			</g>
		</g>
	</g>
</g>
</svg>
