<?xml version="1.0" encoding="utf-8"?>
<!-- Generator: Adobe Illustrator 25.0.1, SVG Export Plug-In . SVG Version: 6.00 Build 0)  -->
<svg version="1.1" id="Capa_1" xmlns="http://www.w3.org/2000/svg" xmlns:xlink="http://www.w3.org/1999/xlink" x="0px" y="0px"
	 viewBox="0 0 608.3 310.2" style="enable-background:new 0 0 608.3 310.2;" xml:space="preserve">
<g>
	<g>
		<defs>
			<path id="SVGID_1_" d="M253.4,0h101.4c46.7,0,84.5,37.9,84.5,84.6s-37.8,84.6-84.5,84.6H253.4c-46.7,0-84.5-37.9-84.5-84.6
				S206.8,0,253.4,0L253.4,0z"/>
		</defs>
		<use xlink:href="#SVGID_1_"  style="overflow:visible;fill-rule:evenodd;clip-rule:evenodd;fill:#FFC72A;"/>
		<clipPath id="SVGID_2_">
			<use xlink:href="#SVGID_1_"  style="overflow:visible;"/>
		</clipPath>
	</g>
	<g>
		<defs>
			<path id="SVGID_3_" d="M253.4,33.8c-28,0-50.7,22.7-50.7,50.7c0,28,22.7,50.7,50.7,50.7h33.8v33.8l33.8-33.8h33.8
				c28,0,50.7-22.7,50.7-50.7c0-28-22.7-50.7-50.7-50.7H253.4L253.4,33.8z"/>
		</defs>
		<use xlink:href="#SVGID_3_"  style="overflow:visible;fill-rule:evenodd;clip-rule:evenodd;fill:#FFFFFF;"/>
		<clipPath id="SVGID_4_">
			<use xlink:href="#SVGID_3_"  style="overflow:visible;"/>
		</clipPath>
	</g>
	<g>
		<defs>
			<path id="SVGID_5_" d="M531.1,286.1c-1.6-3.5-2.7-7.2-2.9-11c-0.3-4.2,2.2-10.6,7.4-9.4c9.3,2.1-1.2,17.6-3.7,21.2
				c-0.1,0.1-0.2,0.2-0.3,0.4C531.5,286.9,531.3,286.5,531.1,286.1 M606,302.4c5.4,2.4,0.3,9.1-4.6,7c-13.7-6-16.6-22.2-11.7-35
				c-4.1,0.6-8.3,0.7-12.2,0.4c0.1,8.6-2.4,17.8-6.7,23.8c-4.7,6.6-12,10.9-20.2,11.1c-7.7,0.2-14.5-3.1-19.7-8.3
				c-5.4,4.9-13,8.9-20.4,8.5c-9.8-0.4-16.6-7.3-17.8-16.9c-0.5-4.5-0.2-9-0.1-13.6c0.1-3.3,0.5-7.9-1.3-10.9
				c-4.1-6.7-10-1-12.3,3.6c-3.5,7-5.2,15.3-6.1,23.4c-0.1,3.4-0.4,6.8-0.7,10.1c-0.5,5.2-9.2,5.3-9,0c0-0.3,0-0.7,0.1-1
				c-5.8,4.6-14,6.2-20.6,1.9c-3.6-2.4-6.1-6-7.7-10.1c-2.9,5.8-7.1,10.4-13.1,12.4c-5.5,1.8-12.7,0.6-16.1-4.4
				c-3.2-4.8-3.7-11-3.7-16.6c0-7.5,0.7-14.9,1.1-22.3c0.3-5.8,1.3-12.8-0.8-18.4c-1.9-4.9-7.2-6.4-11.7-3.9
				c-6.9,3.7-9.5,11.3-9.7,18.7c0,0.1,0,0.2,0,0.3c0.4,8.5,0.2,27.2,0.2,35.8c0,5.3-9.1,5.3-9,0c0.1-9.9,0.4-30.1-0.4-40
				c-0.5-6.3-1-16.1-6.2-20.7c-9.4-8.3-15.6,4.9-17.6,12.1c-3.4,12.8-4.2,26.5-3.9,40c0.3,5.5,0.6,11,0.8,16.5c0.3,5.3-8.6,5.2-9,0
				c-0.3-3.7-0.5-7.5-0.6-11.3c-0.5-9.6-1.1-19.1-2.4-28.6c-1.1-8.3-3-16.7-7.4-24c-2.9-4.8,5.1-8.5,7.8-4.1
				c2.2,3.7,3.9,7.6,5.2,11.7c1-3.8,2.2-7.5,3.9-11c2.3-4.8,5.9-9.3,11.2-10.9c6.2-1.9,14.4-0.7,18.9,4.4c2.8,3.2,4.6,6.9,5.8,10.9
				c4.2-5.7,10.4-9.5,18.3-9c14.5,0.9,16.3,15.7,15.8,27.1c-0.3,7.5-1.1,14.9-1.3,22.4c-0.1,5-0.9,12.6,2.4,16.8
				c4.2,5.4,11-3.9,12.6-7c3.4-6.6,5.2-14,5.9-21.4c0.1-1.9,0.2-3.6,0.4-5.3c0.5-5.2,9.3-5.3,9,0c-0.1,1.9-0.3,4.1-0.5,6.4
				c-0.5,8.8,0.1,19.1,5.2,25.4c4.6,5.8,12.4,0.8,14.6-4.7c2.1-5.1,2.9-10.7,2.6-16.2c0-0.4,0-0.7,0.1-1c-0.4-4.5-1-9-2-13.4
				c-1.1-5.3,7.6-7.2,8.7-2.1c0.4,2.1,0.8,4.2,1.1,6.3c2.1-3.8,4.9-7,8.7-8.5c5.1-2,11.1-1.5,15.6,1.9c4.3,3.3,5.7,8.5,5.9,13.7
				c0.4,9.1-3.5,31.4,12.9,27c4.5-1.2,8.1-3.7,11.3-6.8c-4.1-6.8-7.5-15.3-6.2-23.2c1.5-9.2,10-16.5,19.5-13.1
				c17.1,6,7,25.3-2.3,36.8c4,4.6,9.3,7.8,15.8,6.4c12-2.6,16.6-16.7,15.7-28.3c-5.3-2-10.9-6.1-7.1-11.9c2.9-4.4,10.5-5.3,13.3-0.2
				c0.9,1.7,1.6,3.6,2.1,5.6c6.7,0.6,15,0,19.9-2.5c4.3-2.2,8.8,2.5,5.5,6.4C593.9,279.4,594,297.1,606,302.4L606,302.4z
				 M297.7,289.9c1.8-4.9,10.5-3,8.7,2.1c-3.4,9.5-12.7,18.8-23.6,17.9c-7.8-0.7-13.4-5.2-17.3-11.3c-1.4,1.5-2.8,3-4.3,4.4
				c-6.4,5.9-17.4,11.1-24.2,2.6c-1.2-1.5-2.1-3.2-2.8-5c-2.4,3.6-5.6,6.5-9.7,8.1c-8.4,3.4-17.1-0.4-21.7-7.4
				c-1.8,2.6-4,4.9-6.6,6.5c-6.9,4.1-16.5,2.4-20.7-4.8c-1.7-2.9-2.9-6-3.7-9.3c-3.2,5-7.5,9.3-12.9,12.3c-11.4,6.3-25,5.2-34-4.7
				c-6.7-7.4-7.6-17.5-4.2-26.3c-3.6,2.2-7.3,4.3-11.2,6.1c0.5,9.8-3.6,20-11.9,25.3c-6.7,4.2-15,4.6-21.7,0.3
				c-4.7-3.1-7.5-7.5-8.9-12.5c-9,9.8-21.5,14.9-36,15.3c-2.3,0.1-4.7,0-7.1-0.4c-11.1-1.7-22-8.4-23.9-20.2c-0.5-3,2-4.9,4.5-5.1
				c1.9-0.2,3.8,0.7,4.2,3c2.9,16.4,29.2,20.4,35.4,3.8c2-5.3,2.2-12.7-2.1-17.1c-6-6.1-14.2-7-21.6-10.5
				c-10.9-5.2-17.6-17.7-8.9-28.1c9.7-11.6,28.4-10.2,36.4,2.3c3,4.7-5,8.4-7.8,4.1c-4.5-7-14.1-8.6-20.4-2.6
				c-3.4,3.2-4.5,8.5-1.5,12.4c5.3,6.9,16.1,7.2,23.3,11.5c5.1,3,9.8,7.1,11.7,12.9c2.2,6.9,1.1,14.4-2.3,20.7
				c6.8-3.7,12.4-9.4,16-17.7c0.9-2.2,3.1-3,5.1-2.8c-3.2-5.4-2.2-12.5,4-16.1c6.1-3.5,14.5-2.9,20.7,0.2c5.4,2.7,9,7.3,10.9,12.6
				c2.7-1.4,5.4-2.9,8.1-4.6c11.4-6.8,27.2-16.6,38.3-5.5c0.1,0.1,0.1,0.1,0.2,0.2c0.5,0.5,1,1,1.5,1.6c3.1,3.9-4.1,8.3-7.1,4.9
				c-5.8-6.7-13.5-2-17.5,4.4c-5.2,8.4-4.8,19,3.5,25.3c7,5.3,16.5,3.2,22.8-2.1c7.6-6.5,11.5-15.5,12.8-25.2
				c0.1-1.8,0.3-3.7,0.5-5.4c0.5-5.2,9.2-5.4,9,0c-0.1,1.9-0.2,3.7-0.4,5.6c-0.4,6.9-0.2,14.1,1.4,20.7c1,4.1,3.3,11.4,9.2,9.2
				c4.6-1.7,7.5-7.9,8.4-12.9l0,0c0.4-2.8,0.7-6.1,0.7-6.1l0,0c0.8-9,4.9-17.7,13.1-22.1c9.4-5,20.8-3.2,26.4,6.3
				c2.9,4.8-5.2,8.5-7.8,4.1c-3.5-5.9-10.5-6.7-15.7-2.3c-6.5,5.5-8.8,15.6-6.5,23.6c1.8,6.5,8.5,13.5,15.1,7.2
				c4.9-4.7,7.4-12,8.2-18.6c0.6-5.1,8.8-5.4,9,0c0,1.1,0.1,2.3,0.1,3.4c0.2,6,0.6,23.4,10.6,15.5c3.5-2.7,6.7-6.1,9.7-9.9
				c-1.7-4.6-2.9-9.4-3.6-13.8c-1.8-10.7-2.2-21.5-0.3-32.3c1.4-8.1,4.1-19,12-23.4c6.2-3.5,13.4-1.9,16.2,4.8
				c3,7,2.1,15.9,1.1,23.2c-2.1,14.9-6.8,29.9-15.3,42.4c2.8,6.3,7.2,12,13.8,10.6C291.2,300.5,295.7,295.5,297.7,289.9L297.7,289.9
				z M267.7,279.9c0,0.2,0.1,0.4,0.1,0.6c1.6-2.9,3-5.8,4.1-8.6c3.2-8.4,5.4-17.4,6.3-26.4c0.3-3.4,2.2-16.9-2-18.6
				c-1.8-0.7-5,4-5.9,5.6c-2.2,4.2-3.4,9.1-4.1,13.8C264.4,257.4,264.9,269,267.7,279.9L267.7,279.9z M85.5,301.9
				c5.9,0.1,10.9-4.1,12.9-9.5c0.9-2.4,1.6-5.3,1.9-8.2c-8.4,1.8-17.8,1.2-24.5-4.1c0,0.2,0,0.5-0.1,0.8
				C74.2,287.7,75.5,301.7,85.5,301.9L85.5,301.9z M81.9,266.2c-1.9,0.9-3.8,3.3-2.3,5.5c2.3,3.5,7.2,5,11.2,5.2
				c3.2,0.1,6.2-0.3,9-1.1c-0.7-2.4-1.9-4.7-3.9-6.4C92.5,266.5,86.3,264,81.9,266.2L81.9,266.2z M437.9,252.7
				c-3.9-0.3-6.8-3.4-6.5-6.9c0.3-3.5,3.7-6.1,7.6-5.8c3.9,0.3,6.8,3.4,6.5,6.9C445.2,250.4,441.8,253,437.9,252.7L437.9,252.7z
				 M175.9,250.6c-3.9-0.3-6.8-3.4-6.5-6.9c0.3-3.5,3.7-6.1,7.6-5.8c3.9,0.3,6.8,3.4,6.5,6.9C183.2,248.3,179.8,250.9,175.9,250.6
				L175.9,250.6z"/>
		</defs>
		<use xlink:href="#SVGID_5_"  style="overflow:visible;fill-rule:evenodd;clip-rule:evenodd;fill:#FFFFFF;"/>
		<clipPath id="SVGID_6_">
			<use xlink:href="#SVGID_5_"  style="overflow:visible;"/>
		</clipPath>
	</g>
	<g>
		<defs>
			<path id="SVGID_7_" d="M252.8,101.5c9.3,0,16.9-7.6,16.9-16.9s-7.6-16.9-16.9-16.9c-9.3,0-16.9,7.6-16.9,16.9
				S243.4,101.5,252.8,101.5L252.8,101.5z"/>
		</defs>
		<use xlink:href="#SVGID_7_"  style="overflow:visible;fill-rule:evenodd;clip-rule:evenodd;fill:#1B90FD;"/>
		<clipPath id="SVGID_8_">
			<use xlink:href="#SVGID_7_"  style="overflow:visible;"/>
		</clipPath>
	</g>
	<g>
		<defs>
			<path id="SVGID_9_" d="M303.5,101.5c9.3,0,16.9-7.6,16.9-16.9h-33.8C286.6,93.9,294.1,101.5,303.5,101.5L303.5,101.5z"/>
		</defs>
		<use xlink:href="#SVGID_9_"  style="overflow:visible;fill-rule:evenodd;clip-rule:evenodd;fill:#42C252;"/>
		<clipPath id="SVGID_10_">
			<use xlink:href="#SVGID_9_"  style="overflow:visible;"/>
		</clipPath>
	</g>
	<g>
		<defs>
			<path id="SVGID_11_" d="M354.1,101.5c9.3,0,16.9-7.6,16.9-16.9s-7.6-16.9-16.9-16.9c-9.3,0-16.9,7.6-16.9,16.9
				S344.8,101.5,354.1,101.5L354.1,101.5z"/>
		</defs>
		<use xlink:href="#SVGID_11_"  style="overflow:visible;fill-rule:evenodd;clip-rule:evenodd;fill:#FF4849;"/>
		<clipPath id="SVGID_12_">
			<use xlink:href="#SVGID_11_"  style="overflow:visible;"/>
		</clipPath>
	</g>
</g>
</svg>
