<?xml version="1.0" encoding="utf-8"?>
<!-- Generator: Adobe Illustrator 25.0.1, SVG Export Plug-In . SVG Version: 6.00 Build 0)  -->
<svg version="1.1" id="Capa_1" xmlns="http://www.w3.org/2000/svg" xmlns:xlink="http://www.w3.org/1999/xlink" x="0px" y="0px"
	 viewBox="0 0 287.4 283.7" style="enable-background:new 0 0 287.4 283.7;" xml:space="preserve">
<style type="text/css">
	.st0{fill:#003244;}
	.st1{fill:#EF0743;}
</style>
<g>
	<g>
		<g>
			<path class="st0" d="M281.5,84.5c-1.7-1.8-4.5-2-6.3-0.3l-48,43.7h-33.8c-2.4,0-4.3,1.9-4.3,4.3v0.3c0,2.4,2,4.4,4.4,4.4h30.9
				v134.5H63V136.8h107.5c2.5,0,4.6-2.1,4.6-4.6v0c0-2.4-2-4.4-4.4-4.4H60.2l-48-43.7c-0.8-0.8-1.9-1.2-3-1.2c-0.1,0-0.1,0-0.2,0
				c-1.2,0.1-2.3,0.6-3.1,1.5c-1.7,1.8-1.5,4.7,0.3,6.3L54,134.3v141.5c0,2.5,2,4.5,4.5,4.5h170.4c2.5,0,4.5-2,4.5-4.5V134.3
				l47.9-43.5c0.9-0.8,1.4-1.9,1.5-3.1S282.3,85.3,281.5,84.5z"/>
			<path class="st0" d="M228.9,281.4H58.5c-3.1,0-5.6-2.5-5.6-5.6v-141L5.4,91.6C3.1,89.5,2.9,86,5,83.7c1-1.1,2.4-1.8,3.9-1.8
				c1.5-0.1,2.9,0.5,4,1.5l47.7,43.4h110c3,0,5.5,2.5,5.5,5.5c0,3.2-2.6,5.7-5.7,5.7H64.1v132.3h159.2V137.9h-29.8
				c-3,0-5.5-2.5-5.5-5.5v-0.3c0-3,2.4-5.4,5.4-5.4h33.3l47.7-43.4c2.3-2.1,5.8-1.9,7.9,0.4c1,1.1,1.5,2.5,1.5,4
				c-0.1,1.5-0.7,2.9-1.8,3.9l-47.5,43.2v141C234.5,278.9,232,281.4,228.9,281.4z M9.1,84.1c-0.1,0-0.1,0-0.2,0
				c-0.9,0-1.7,0.4-2.3,1.1c-1.2,1.4-1.1,3.5,0.2,4.8l48.2,43.8v142c0,1.9,1.5,3.4,3.4,3.4h170.4c1.9,0,3.4-1.5,3.4-3.4v-142
				L280.5,90c0.7-0.6,1.1-1.4,1.1-2.3c0-0.9-0.3-1.8-0.9-2.4l0,0c-1.2-1.4-3.4-1.5-4.8-0.2l-48.4,44h-34.2c-1.7,0-3.2,1.4-3.2,3.2
				v0.3c0,1.8,1.5,3.3,3.3,3.3h32v136.8H61.8V135.7h108.6c1.9,0,3.5-1.6,3.5-3.5c0-1.8-1.5-3.3-3.3-3.3H59.8L11.4,85
				C10.8,84.4,10,84.1,9.1,84.1z"/>
		</g>
		<g>
			<path class="st0" d="M36.4,20.2L36.4,20.2c0.1,0,2.3-0.2,5.9-0.2c12.9,0,44.1,2.2,65.3,21.7c15,13.7,22.6,33.7,22.6,59.3
				c0,2.5,2,4.5,4.5,4.5c2.5,0,4.5-2,4.5-4.5c0-28.3-8.6-50.5-25.6-66c-30.3-27.7-76-23.9-78-23.7c-2.5,0.2-4.3,2.4-4.1,4.9
				C31.8,18.6,34,20.4,36.4,20.2z"/>
		</g>
		<g>
			<path class="st0" d="M179.6,105.4c2.5,0,4.5-2,4.5-4.5c0-1.9,0.8-45.8,41.2-53.9c1.2-0.2,2.2-0.9,2.9-1.9c0.7-1,0.9-2.2,0.7-3.4
				c-0.4-2.1-2.3-3.6-4.4-3.6c-0.3,0-0.6,0-0.9,0.1c-19.9,4-34.6,16.1-42.5,35.2c-5.9,14.1-6,27-6,27.5
				C175.1,103.4,177.1,105.4,179.6,105.4z"/>
		</g>
		<g>
			<path class="st1" d="M251.3,42.6h9v9c0,2.5,2,4.5,4.5,4.5c2.5,0,4.5-2,4.5-4.5v-9h9c2.5,0,4.5-2,4.5-4.5s-2-4.5-4.5-4.5h-9v-9
				c0-2.5-2-4.5-4.5-4.5c-2.5,0-4.5,2-4.5,4.5v9h-9c-2.5,0-4.5,2-4.5,4.5S248.8,42.6,251.3,42.6z"/>
		</g>
		<g>
			<path class="st1" d="M143.7,24.7h9v9c0,2.5,2,4.5,4.5,4.5c2.5,0,4.5-2,4.5-4.5v-9h9c2.5,0,4.5-2,4.5-4.5s-2-4.5-4.5-4.5h-9v-9
				c0-2.5-2-4.5-4.5-4.5c-2.5,0-4.5,2-4.5,4.5v9h-9c-2.5,0-4.5,2-4.5,4.5S141.2,24.7,143.7,24.7z"/>
		</g>
		<g>
			<path class="st1" d="M76.4,60.6c0-2.5-2-4.5-4.5-4.5s-4.5,2-4.5,4.5v9h-9c-2.5,0-4.5,2-4.5,4.5s2,4.5,4.5,4.5h9v9
				c0,2.5,2,4.5,4.5,4.5s4.5-2,4.5-4.5v-9h9c2.5,0,4.5-2,4.5-4.5s-2-4.5-4.5-4.5h-9V60.6z"/>
		</g>
	</g>
	<g>
		<g>
			<path class="st1" d="M176.3,176.4c0-0.1,0-0.2,0-0.3c0,0,0-0.1,0-0.1c0-0.1-0.1-0.2-0.2-0.3c-0.1-0.1-0.2-0.2-0.3-0.2
				c-0.2-0.1-0.6-0.1-1-0.1c-1.8,0-9.4,0-11.3,0c0,0-0.1,0-0.1,0c-0.9,0.1-1.1,0.5-1.4,1.6c-0.6,2.3-13.8,50.4-13.8,50.4h9.7h0
				c3,0,5-2.3,5.9-5.1c0.3-0.8,2.8-9.8,5.4-19.5c3-10.9,6.3-22.8,7-25.2c0.1-0.2,0.1-0.5,0.2-0.7c0-0.2,0-0.3,0-0.5
				C176.3,176.5,176.3,176.4,176.3,176.4"/>
		</g>
		<g>
			<path class="st1" d="M143.7,176.4c0-0.1,0-0.2,0-0.3c0,0,0-0.1,0-0.1c0-0.1-0.1-0.2-0.2-0.3c0,0,0,0,0,0
				c-0.1-0.1-0.2-0.1-0.3-0.2c0,0,0,0,0,0c-0.1,0-0.2-0.1-0.4-0.1c0,0-0.1,0-0.1,0c-0.2,0-0.3,0-0.5,0h0c-0.2,0-0.5,0-0.9,0
				c-2.6,0-8.4,0-10.3,0c-0.1,0-0.1,0-0.2,0c0,0-0.1,0-0.1,0c-0.9,0.1-1.1,0.5-1.4,1.6c-0.6,2.3-13.8,50.4-13.8,50.4h9.7h0
				c3,0,5-2.3,5.9-5.1c0.3-0.8,2.8-9.8,5.4-19.5c0-0.1,0-0.1,0-0.2c3-10.9,6.3-22.7,6.9-25c0.1-0.2,0.1-0.5,0.2-0.7
				c0-0.2,0-0.3,0-0.5C143.7,176.5,143.7,176.4,143.7,176.4"/>
		</g>
	</g>
</g>
</svg>
