<?xml version="1.0" encoding="utf-8"?>
<!-- Generator: Adobe Illustrator 24.0.1, SVG Export Plug-In . SVG Version: 6.00 Build 0)  -->
<svg version="1.1" id="Capa_1" xmlns="http://www.w3.org/2000/svg" xmlns:xlink="http://www.w3.org/1999/xlink" x="0px" y="0px"
	 viewBox="0 0 696.7 282.15" style="enable-background:new 0 0 696.7 282.15;" xml:space="preserve">
<style type="text/css">
	.st0{fill:#FFFFFF;}
</style>
<g>
	<path class="st0" d="M147.24,44.09l-51.71,179.3c-3.75,12.8-25.3,17.33-28.68,1.58C53.87,167.21,33,107.97,2.26,57.08
		c-9.84-16.26,14.98-33,24.82-16.48c23.32,38.15,41.07,80.54,54.63,123.97c11.93-42.31,24.17-84.65,36.38-126.71
		C123.25,19.39,152.64,25.33,147.24,44.09 M139.83,41.42c0.78-1.44-0.46-3.05-1.87-3.26c-1.4-0.45-2.77,0.44-3.26,1.86l-37.95,148.9
		L139.83,41.42z"/>
	<path class="st0" d="M126.97,186.44c-0.46-8.36,6.69-14.64,15.38-15.67c4.5-0.54,5.38-0.58,10.8-0.33L181.8,35.2
		c3.86-17.27,29.86-13.95,31.67,2.18c1.02,7.77,1.73,15.3,2.76,23.07c8.56,73.34,16.33,133.04,24.86,206.43
		c2.26,19.17-29.51,20.9-31.78,1.73c-1.02-7.47-2.01-15.27-2.75-23.04c-1.66-13.9-2.3-14.43-3.96-28.31
		c-1.24-0.78-2.2-1.56-3.44-2.62l-3.15-2.34c-0.33-0.26-4.68-2.82-5.6-3.32c-2.76-1.24-5.52-2.48-8.29-3.46
		c-1.24-0.5-2.44-0.69-3.68-1.19l-3.08,14.71c-4.08,18.95-35.39,12.56-31.31-6.11c0.96-4.54,1.95-8.78,2.63-13.03
		c-0.88,0.34-2.09,0.67-2.7,0.72C135.33,201.64,127.43,194.23,126.97,186.44 M145.5,157.16c-1.2-0.22-2.16-1.28-1.94-2.69
		l12.83-56.08c0.25-1.41,1.42-2.04,2.62-1.81c1.52,0.17,2.16,1.28,1.95,2.69l-12.52,56.33c-0.29,0.87-1.46,1.47-2.34,1.54
		L145.5,157.16z M157.84,91.89l2.38-11.88c0.53-1.14,1.7-1.77,2.9-1.55c1.25,0.19,2.17,1.28,1.95,2.69l-2.65,11.62
		c-0.25,0.84-1.1,1.73-2.31,1.79c0,0-0.32,0.03-0.64-0.24C158.26,94.1,157.31,93.05,157.84,91.89 M192.21,119.37
		c-3.91,17.53-7.38,35.05-11.29,52.59c5.36,1.61,11.12,3.15,16.06,5.55c0.84-0.05,1.25,0.27,2.07,0.63L192.21,119.37z M188.49,36.79
		c0.64,1.09,1.88,1.59,3.08,1.22c0,0,0.28-0.02,0.89-0.33l2.69-0.15c1.2-0.06,2.41,0.14,3.65,0.63c1.52,0.76,2.48,1.85,3.47,3.47
		c0.03,0.54,0.35,1.1,0.39,1.64l0.32,0.26l0,0.28l0.07,0.82c0.36,1.1,0.75,2.49,0.78,3.6c0.75,2.49,0.93,5.27,1.35,8.05
		c0.75,2.47,1.2,5.52,1.38,8.31l1.38,8.88c3.39,23.31,6.47,46.91,6.47,46.91s-1.87-23.67-4.1-47.32c-0.18-3.09-0.61-5.87-0.78-8.92
		c-0.46-2.77-0.64-5.56-1.06-8.33c-0.14-2.77-0.6-5.56-1.02-8.05c-0.07-1.39-0.14-2.51-0.53-3.9l-0.04-0.82l-0.04-0.28l0-0.26
		l-0.32-0.28c-0.03-0.83-0.39-1.39-0.43-1.94c-1.02-2.45-2.94-4.6-5.1-5.6c-1.84-1-4-1.44-5.77-1.34c-1.53-0.21-2.73-0.13-3.62,0.19
		c-0.88,0.04-1.48,0.37-1.48,0.37C188.95,34.24,188.1,35.41,188.49,36.79"/>
	<path class="st0" d="M352.59,191.93c-0.28,0.02-0.28,0.3-0.56,0.32c-12.08,4.03-68.58,25.87-80.37,30.16
		c-10.71,3.67-22.34-4.39-22.93-15.53l-1.03-18.4c-0.81-14.78-1.62-29.56-2.4-44.05l-2.89-52.71c-0.81-14.79-1.62-29.54-2.44-44.35
		L238.95,29c-0.53-9.48,6.88-17.72,16.36-18.25c9.48-0.53,17.7,6.86,18.23,16.34l0.98,18.4c0.81,14.5,1.63,29.28,2.44,44.05
		l2.9,52.72c0.7,13.1,1.44,26.48,2.14,39.58l59.56-22.86c8.78-3.01,18.86,2.05,21.84,11.11
		C366.42,179.15,361.65,188.91,352.59,191.93 M264.12,23.97l9.7,145.73L267.5,23.8c-0.08-0.84-0.95-1.63-1.8-1.58
		C264.62,22.29,264.09,23.13,264.12,23.97"/>
	<path class="st0" d="M686.46,185.41c0.56,10.32-6.25,18.24-15.73,18.77c-9.48,0.51-16.61-6.65-17.18-16.97
		c-0.56-10.59,5.72-18.49,15.2-19.02C678.23,167.67,685.89,174.8,686.46,185.41 M692.8,4.96c2.67,2.65,3.97,6.21,3.9,9.58
		l-8.78,130.8c-0.91,8.99-6.46,15.17-14.54,15.61c-4.18,0.23-8.74-1.47-12.01-4.93c-2.95-2.63-4.29-6.19-3.9-9.58l8.78-130.8
		c0.63-8.99,6.18-15.17,14.25-15.61C684.69-0.21,689.53,1.49,692.8,4.96 M681.33,183.45c-0.32-0.83-0.67-1.93-0.99-2.47
		c-0.28-0.53-0.6-1.07-0.87-1.34l-0.91-1.07c-0.6-0.55-1.19-1.33-1.79-2.14c-0.88-0.23-1.43-0.76-2.32-1.29
		c-0.84-0.22-1.43-0.73-2.28-0.98c-0.33,0.02-0.33-0.28-0.89-0.24c-0.27-0.24-0.84-0.23-0.84-0.23l-1.93,0.12
		c-0.56,0.02-0.56,0.02-1.12,0.05l-0.28,0.02l-0.28,0.02c-1.09,0.61-1.3,1.73-0.99,2.54c0.32,0.83,1.48,1.34,2.33,1l0.24-0.01
		c0,0,0-0.29,0.56-0.32c-0.04-0.26,0.25-0.28,0.25-0.28l0.84-0.03c0.28-0.02,0.57-0.04,0.57-0.04c0.28,0.24,0.56,0.25,0.84,0.21
		l2,0.75c0.32,0.26,1.16,0.49,2,0.72c0.32,0.54,1.16,1.07,1.48,1.6l0.88,0.81c0.6,0.22,0.6,0.51,0.92,0.77
		c0.31,0.83,0.59,1.37,1.22,2.18c0.04,0.56,0.04,0.84,0.36,1.1l0.03,1.13c0.07,0.82,0.1,1.65-0.14,2.51
		c-0.25,0.56-0.21,1.14-0.46,1.98c-0.52,0.3-0.49,1.14-0.73,1.44c-0.28,0.59-0.53,0.86-0.81,1.16l-0.49,0.88
		c0,0,0.28-0.02,0.81-0.62c0.24-0.58,0.48-0.86,0.76-1.16c0.24-0.58,0.49-1.14,1.06-1.46c0.2-0.86,0.45-1.42,0.42-2.26
		c0.53-0.86,0.49-1.42,0.7-2.54l-0.07-1.12L681.33,183.45z M684.27,12.68l-2.78,97.21l8.12-97.22l-2.71-2.93
		C685.49,9.82,684.2,11.01,684.27,12.68"/>
	<path class="st0" d="M492.23,169.21c-28.41,7.15-55.68,18.98-79.98,35.69c-4.28,3.32-8.6,6.08-12.6,9.38
		c-1.62,1.47-3.79,2.72-5.65,4.21l-2.67,2.67c-2.1,2.07-4.28,3.58-6.1,5.65c-7.93,8.54-24.65,4.41-24.51-8.46
		c0.06-19.31,0.13-38.61-0.12-58.16c-4.46-5.07-5.45-12.83-0.15-17.89c-0.03-0.85,0.22-1.69,0.14-2.81
		c-0.11-22.63,0.55-45.61,0.19-67.96c-4.92-2.8-8.29-7.95-6.99-15.01c1.48-9.29,12.43-12.97,19.84-15.89
		c9.79-4.74,19.91-8.92,30.05-12.84c14.5-6.09,29.56-11.99,44.35-17.82c17.27-6.53,25.99,20.11,9.31,26.89
		c-13.73,4.96-27.42,10.46-41.12,15.7l-27.59,11.57c0.53,20.39-0.02,40.28-0.06,60.42l18.96-11.4c15.42-9.5,30.94,13.71,15.53,23.21
		c-11.66,6.78-22.99,13.86-34.61,21.2l-0.07,29.64c28.47-21.41,62.35-36.13,95.15-44.63c7.44-1.81,15.17,1.4,18.12,9.07
		C503.67,158.51,499.99,167.37,492.23,169.21 M493.56,152.07c-1.12,0.07-2.21,0.68-2.14,1.79l0.03,0.56l0,0.28l0,0.29
		c0.08,0.84-0.17,1.68-0.94,2.56c-0.77,1.18-2.39,2.37-4.32,3.04c-1.89,0.93-4.38,1.65-7.16,2.36c-1.37,0.37-2.42,0.96-4.1,1.35
		l-1.09,0.31c-0.56,0.04-0.8,0.33-1.36,0.37l-2.46,0.97c-2.5,0.97-6.08,2.03-9.34,3.3c-3.58,1.32-6.6,2.6-10.39,4.22
		c-1.65,0.65-3.3,1.59-5.19,2.23l-4.96,1.95c-3.82,1.62-6.77,3.44-10.32,5.34c-3.26,1.84-6.53,3.43-9.51,5.27
		c-3.27,1.56-6.21,3.68-8.63,5.21c-2.7,1.85-5.41,3.68-7.55,5.47c-2.43,1.79-4.6,3.06-6.18,4.53c-1.89,1.49-3.48,2.98-4.81,4.18
		c-1.33,1.19-2.14,1.79-2.67,2.39l2.95-2.41c1.33-1.19,2.95-2.39,4.81-3.9c1.62-1.5,3.79-2.44,6.21-4.27
		c2.14-1.79,4.85-3.62,7.52-5.42c2.74-1.29,5.72-3.13,8.99-4.98l9.51-4.72c3.83-1.6,6.81-3.47,10.36-5.04
		c1.65-0.65,3.54-1.32,5.2-2.23c1.65-0.39,3.3-1.02,5.22-1.43c3.55-1.58,6.85-2.62,10.39-3.93c3.02-1.27,6.32-2.28,9.35-3.28
		c0.84-0.05,1.65-0.37,2.49-0.4c0.24-0.31,0.84-0.36,1.13-0.35c0.52-0.32,0.8-0.33,1.09-0.35l4.14-1.07
		c3.02-0.71,5.51-1.42,7.97-2.38c2.18-0.95,4.07-2.18,5.37-3.65c1.61-1.21,2.11-2.92,2.56-4.33l-0.03-0.83c0-0.28,0-0.28,0.24-0.86
		C495.85,152.79,494.93,152,493.56,152.07"/>
	<path class="st0" d="M501.64,151.63c-2.52-6.59-8.6-9.89-14.99-9.54c-1.04,0.06-2.07,0.22-3.13,0.47
		c-0.59,0.16-1.21,0.35-1.79,0.49c1.88,9.56,4.69,18.54,8.63,26.68c0.63-0.17,1.25-0.35,1.88-0.52
		C499.99,167.38,503.68,158.51,501.64,151.63"/>
	<path class="st0" d="M623.61,68.59c-1.44-16.13-3.73-32.23-4.58-48.14c-1.34-24.24-38.45-22.21-37.11,2.05
		c1.42,30.69,7.25,60.85,7.3,91.89c0.21,9.22-0.17,12.05-1.15,19.65c-0.39,3.37-1.06,6.76-1.97,10.17
		c-0.21,1.68-0.67,3.41-1.12,4.83c-0.25,0.84-0.53,1.14-0.5,1.43c-0.57,0.58-0.77,1.16-1.06,1.72c-0.99,2.57-2.24,4.88-3.55,6.92
		c0.32-0.02,0.04,0.26-0.73,1.72c0.24-0.58,0.53-1.17,0.73-1.72l-1.51,2.6c-0.81,0.62-1.33,1.19-2.14,2.07l-1.05,1.18
		c0.24-0.58,0.8-0.9,1.05-1.18c-0.52,0.29-1.58,1.49-2.14,1.79c-0.81,0.62-1.58,1.21-2.67,1.82c-0.28,0.02-0.56,0.32-1.09,0.63
		c0.24-0.31,0.8-0.61,1.09-0.63c1.33-0.91-1.93,0.95-2.49,0.97c-1.89,0.67-3.54,1.34-5.47,1.72c1.36-0.37-3.34,0.44-3.62,0.45
		l-6.15,0.34c-5.3,0.3-4.46-0.02-8.42-0.64c-1.41-0.19-2.85-0.68-3.97-0.92c-0.24,0.01-0.56-0.22-1.12-0.21
		c0.28-0.02,0.56-0.01,1.12,0.21c1.13,0.23-2.56-0.96-3.12-0.95l-2.96-1.76c0.35,0.17-2.93-2.19-3.44-2.64
		c-0.28-0.25-1.47-1.58-2.07-2.1l-2.11-2.71c-0.87-1.05-1.54-2.7-2.46-4.31c-0.04-0.28-0.32-0.54-0.32-0.54c1.02,3.01-1.55-2.72,0,0
		c0-0.29-0.32-0.54-0.31-1.11c-1.58-2.98-2.6-6.28-3.62-9.58c-0.39-1.95-1.05-3.58-1.4-5.23c-0.07-1.12-0.42-2.21-0.74-3.06
		c0.32,0.85,0.32,0.85-0.03-0.54l-0.03-0.82c-6.05-33.52-1.25-68.47,0-101.83l0.46-7.29c0.28-10.07-10.22-18.17-19.74-17.63
		c-10.85,0.59-17.34,9.6-17.62,19.68C480.75,56.57,475,99,480.4,135.54c0.47-0.11,0.9-0.26,1.33-0.37c1.49-0.37,3-0.59,4.52-0.68
		c10.09-0.55,18.92,5.12,22.46,14.43l0.15,0.26l0.07,0.27c1.68,5.68,0.87,12.23-2.21,17.51c-2.84,4.96-7.4,8.38-12.61,9.62
		l-0.04,0.01c8.4,13.72,20.97,24.26,39.46,29.5c33.5,9.37,70.44-5.81,84.05-38.15C630.44,137.01,627.34,101.11,623.61,68.59
		 M619.38,119.18c-0.67,12.88-2.49,25.57-6.03,37.51c-1.93,5.69-4.14,11.13-6.99,16.06c-2.77,4.89-5.89,9.26-9.37,12.53
		c-3.44,3.26-7.2,5.99-10.74,7.87c-3.55,1.58-6.85,2.88-9.31,3.58c-1.37,0.35-2.78,0.42-3.9,0.76c-0.8,0.05-1.92,0.41-2.49,0.44
		c-1.65,0.08-2.21,0.1-2.21,0.1l2.21-0.4c0.56-0.03,1.69-0.09,2.49-0.4c1.13-0.08,2.49-0.43,3.58-0.76
		c2.78-0.73,6.04-2.02,9.31-3.87c3.55-1.88,7.3-4.62,10.49-7.87c3.16-3.53,6.29-7.6,8.81-12.78c2.77-4.89,4.74-10.02,6.38-15.73
		c3.02-11.62,4.56-24.3,4.98-37.19c0.42-12.6-0.29-25.7-1.52-37.67c-1.23-11.93-2.68-23.05-4.29-32.48
		c-1.65-9.43-3.2-17.17-4.61-22.68c-1.16-5.53-1.86-8.29-1.86-8.29c-0.35-1.65,0.39-3.39,1.75-3.74c1.65-0.36,3.09,0.39,3.47,2.34
		l1.9,8.56c1.12,5.53,2.39,13.57,3.76,23c1.66,9.71,2.81,21.12,3.77,32.79C619.65,93.14,620.07,106.25,619.38,119.18"/>
</g>
</svg>
