<?xml version="1.0" encoding="utf-8"?>
<!-- Generator: Adobe Illustrator 25.0.1, SVG Export Plug-In . SVG Version: 6.00 Build 0)  -->
<svg version="1.1" id="Capa_1" xmlns="http://www.w3.org/2000/svg" xmlns:xlink="http://www.w3.org/1999/xlink" x="0px" y="0px"
	 viewBox="0 0 696.7 282.1" style="enable-background:new 0 0 696.7 282.1;" xml:space="preserve">
<style type="text/css">
	.st0{fill:#FFFFFF;}
	.st1{fill:#EF0743;}
</style>
<g>
	<path class="st0" d="M147.2,44.1L95.5,223.4c-3.8,12.8-25.3,17.3-28.7,1.6C53.9,167.2,33,108,2.3,57.1c-9.8-16.3,15-33,24.8-16.5
		c23.3,38.1,41.1,80.5,54.6,124c11.9-42.3,24.2-84.7,36.4-126.7C123.2,19.4,152.6,25.3,147.2,44.1 M139.8,41.4
		c0.8-1.4-0.5-3-1.9-3.3c-1.4-0.5-2.8,0.4-3.3,1.9L96.8,188.9L139.8,41.4z"/>
	<path class="st0" d="M127,186.4c-0.5-8.4,6.7-14.6,15.4-15.7c4.5-0.5,5.4-0.6,10.8-0.3l28.6-135.2c3.9-17.3,29.9-14,31.7,2.2
		c1,7.8,1.7,15.3,2.8,23.1c8.6,73.3,16.3,133,24.9,206.4c2.3,19.2-29.5,20.9-31.8,1.7c-1-7.5-2-15.3-2.8-23
		c-1.7-13.9-2.3-14.4-4-28.3c-1.2-0.8-2.2-1.6-3.4-2.6l-3.1-2.3c-0.3-0.3-4.7-2.8-5.6-3.3c-2.8-1.2-5.5-2.5-8.3-3.5
		c-1.2-0.5-2.4-0.7-3.7-1.2l-3.1,14.7c-4.1,18.9-35.4,12.6-31.3-6.1c1-4.5,1.9-8.8,2.6-13c-0.9,0.3-2.1,0.7-2.7,0.7
		C135.3,201.6,127.4,194.2,127,186.4 M145.5,157.2c-1.2-0.2-2.2-1.3-1.9-2.7l12.8-56.1c0.2-1.4,1.4-2,2.6-1.8
		c1.5,0.2,2.2,1.3,1.9,2.7l-12.5,56.3c-0.3,0.9-1.5,1.5-2.3,1.5L145.5,157.2z M157.8,91.9l2.4-11.9c0.5-1.1,1.7-1.8,2.9-1.6
		c1.2,0.2,2.2,1.3,1.9,2.7l-2.6,11.6c-0.2,0.8-1.1,1.7-2.3,1.8c0,0-0.3,0-0.6-0.2C158.3,94.1,157.3,93.1,157.8,91.9 M192.2,119.4
		c-3.9,17.5-7.4,35-11.3,52.6c5.4,1.6,11.1,3.1,16.1,5.6c0.8-0.1,1.2,0.3,2.1,0.6L192.2,119.4z M188.5,36.8c0.6,1.1,1.9,1.6,3.1,1.2
		c0,0,0.3,0,0.9-0.3l2.7-0.2c1.2-0.1,2.4,0.1,3.6,0.6c1.5,0.8,2.5,1.8,3.5,3.5c0,0.5,0.4,1.1,0.4,1.6l0.3,0.3v0.3l0.1,0.8
		c0.4,1.1,0.8,2.5,0.8,3.6c0.8,2.5,0.9,5.3,1.4,8c0.8,2.5,1.2,5.5,1.4,8.3l1.4,8.9c3.4,23.3,6.5,46.9,6.5,46.9s-1.9-23.7-4.1-47.3
		c-0.2-3.1-0.6-5.9-0.8-8.9c-0.5-2.8-0.6-5.6-1.1-8.3c-0.1-2.8-0.6-5.6-1-8c-0.1-1.4-0.1-2.5-0.5-3.9l0-0.8l0-0.3v-0.3l-0.3-0.3
		c0-0.8-0.4-1.4-0.4-1.9c-1-2.5-2.9-4.6-5.1-5.6c-1.8-1-4-1.4-5.8-1.3c-1.5-0.2-2.7-0.1-3.6,0.2c-0.9,0-1.5,0.4-1.5,0.4
		C188.9,34.2,188.1,35.4,188.5,36.8"/>
	<path class="st0" d="M352.6,191.9c-0.3,0-0.3,0.3-0.6,0.3c-12.1,4-68.6,25.9-80.4,30.2c-10.7,3.7-22.3-4.4-22.9-15.5l-1-18.4
		c-0.8-14.8-1.6-29.6-2.4-44.1l-2.9-52.7c-0.8-14.8-1.6-29.5-2.4-44.3l-1-18.4c-0.5-9.5,6.9-17.7,16.4-18.2
		c9.5-0.5,17.7,6.9,18.2,16.3l1,18.4c0.8,14.5,1.6,29.3,2.4,44l2.9,52.7c0.7,13.1,1.4,26.5,2.1,39.6l59.6-22.9
		c8.8-3,18.9,2.1,21.8,11.1C366.4,179.1,361.6,188.9,352.6,191.9 M264.1,24l9.7,145.7l-6.3-145.9c-0.1-0.8-1-1.6-1.8-1.6
		C264.6,22.3,264.1,23.1,264.1,24"/>
	<path class="st1" d="M686.5,185.4c0.6,10.3-6.2,18.2-15.7,18.8c-9.5,0.5-16.6-6.6-17.2-17c-0.6-10.6,5.7-18.5,15.2-19
		C678.2,167.7,685.9,174.8,686.5,185.4 M692.8,5c2.7,2.7,4,6.2,3.9,9.6l-8.8,130.8c-0.9,9-6.5,15.2-14.5,15.6
		c-4.2,0.2-8.7-1.5-12-4.9c-3-2.6-4.3-6.2-3.9-9.6l8.8-130.8c0.6-9,6.2-15.2,14.2-15.6C684.7-0.2,689.5,1.5,692.8,5 M681.3,183.4
		c-0.3-0.8-0.7-1.9-1-2.5c-0.3-0.5-0.6-1.1-0.9-1.3l-0.9-1.1c-0.6-0.6-1.2-1.3-1.8-2.1c-0.9-0.2-1.4-0.8-2.3-1.3
		c-0.8-0.2-1.4-0.7-2.3-1c-0.3,0-0.3-0.3-0.9-0.2c-0.3-0.2-0.8-0.2-0.8-0.2l-1.9,0.1c-0.6,0-0.6,0-1.1,0.1l-0.3,0l-0.3,0
		c-1.1,0.6-1.3,1.7-1,2.5c0.3,0.8,1.5,1.3,2.3,1l0.2,0c0,0,0-0.3,0.6-0.3c0-0.3,0.2-0.3,0.2-0.3l0.8,0c0.3,0,0.6,0,0.6,0
		c0.3,0.2,0.6,0.2,0.8,0.2l2,0.8c0.3,0.3,1.2,0.5,2,0.7c0.3,0.5,1.2,1.1,1.5,1.6l0.9,0.8c0.6,0.2,0.6,0.5,0.9,0.8
		c0.3,0.8,0.6,1.4,1.2,2.2c0,0.6,0,0.8,0.4,1.1l0,1.1c0.1,0.8,0.1,1.6-0.1,2.5c-0.2,0.6-0.2,1.1-0.5,2c-0.5,0.3-0.5,1.1-0.7,1.4
		c-0.3,0.6-0.5,0.9-0.8,1.2l-0.5,0.9c0,0,0.3,0,0.8-0.6c0.2-0.6,0.5-0.9,0.8-1.2c0.2-0.6,0.5-1.1,1.1-1.5c0.2-0.9,0.5-1.4,0.4-2.3
		c0.5-0.9,0.5-1.4,0.7-2.5l-0.1-1.1L681.3,183.4z M684.3,12.7l-2.8,97.2l8.1-97.2l-2.7-2.9C685.5,9.8,684.2,11,684.3,12.7"/>
	<path class="st0" d="M492.2,169.2c-28.4,7.1-55.7,19-80,35.7c-4.3,3.3-8.6,6.1-12.6,9.4c-1.6,1.5-3.8,2.7-5.6,4.2l-2.7,2.7
		c-2.1,2.1-4.3,3.6-6.1,5.6c-7.9,8.5-24.6,4.4-24.5-8.5c0.1-19.3,0.1-38.6-0.1-58.2c-4.5-5.1-5.5-12.8-0.1-17.9
		c0-0.9,0.2-1.7,0.1-2.8c-0.1-22.6,0.5-45.6,0.2-68c-4.9-2.8-8.3-8-7-15c1.5-9.3,12.4-13,19.8-15.9c9.8-4.7,19.9-8.9,30-12.8
		c14.5-6.1,29.6-12,44.4-17.8c17.3-6.5,26,20.1,9.3,26.9c-13.7,5-27.4,10.5-41.1,15.7l-27.6,11.6c0.5,20.4,0,40.3-0.1,60.4l19-11.4
		c15.4-9.5,30.9,13.7,15.5,23.2c-11.7,6.8-23,13.9-34.6,21.2l-0.1,29.6c28.5-21.4,62.4-36.1,95.1-44.6c7.4-1.8,15.2,1.4,18.1,9.1
		C503.7,158.5,500,167.4,492.2,169.2 M493.6,152.1c-1.1,0.1-2.2,0.7-2.1,1.8l0,0.6v0.3v0.3c0.1,0.8-0.2,1.7-0.9,2.6
		c-0.8,1.2-2.4,2.4-4.3,3c-1.9,0.9-4.4,1.6-7.2,2.4c-1.4,0.4-2.4,1-4.1,1.4l-1.1,0.3c-0.6,0-0.8,0.3-1.4,0.4l-2.5,1
		c-2.5,1-6.1,2-9.3,3.3c-3.6,1.3-6.6,2.6-10.4,4.2c-1.6,0.6-3.3,1.6-5.2,2.2l-5,1.9c-3.8,1.6-6.8,3.4-10.3,5.3
		c-3.3,1.8-6.5,3.4-9.5,5.3c-3.3,1.6-6.2,3.7-8.6,5.2c-2.7,1.9-5.4,3.7-7.5,5.5c-2.4,1.8-4.6,3.1-6.2,4.5c-1.9,1.5-3.5,3-4.8,4.2
		c-1.3,1.2-2.1,1.8-2.7,2.4l3-2.4c1.3-1.2,3-2.4,4.8-3.9c1.6-1.5,3.8-2.4,6.2-4.3c2.1-1.8,4.9-3.6,7.5-5.4c2.7-1.3,5.7-3.1,9-5
		l9.5-4.7c3.8-1.6,6.8-3.5,10.4-5c1.6-0.6,3.5-1.3,5.2-2.2c1.6-0.4,3.3-1,5.2-1.4c3.5-1.6,6.9-2.6,10.4-3.9c3-1.3,6.3-2.3,9.4-3.3
		c0.8-0.1,1.6-0.4,2.5-0.4c0.2-0.3,0.8-0.4,1.1-0.4c0.5-0.3,0.8-0.3,1.1-0.4l4.1-1.1c3-0.7,5.5-1.4,8-2.4c2.2-0.9,4.1-2.2,5.4-3.6
		c1.6-1.2,2.1-2.9,2.6-4.3l0-0.8c0-0.3,0-0.3,0.2-0.9C495.9,152.8,494.9,152,493.6,152.1"/>
	<path class="st0" d="M501.6,151.6c-2.5-6.6-8.6-9.9-15-9.5c-1,0.1-2.1,0.2-3.1,0.5c-0.6,0.2-1.2,0.4-1.8,0.5
		c1.9,9.6,4.7,18.5,8.6,26.7c0.6-0.2,1.2-0.4,1.9-0.5C500,167.4,503.7,158.5,501.6,151.6"/>
	<path class="st0" d="M623.6,68.6c-1.4-16.1-3.7-32.2-4.6-48.1c-1.3-24.2-38.5-22.2-37.1,2c1.4,30.7,7.2,60.8,7.3,91.9
		c0.2,9.2-0.2,12.1-1.2,19.6c-0.4,3.4-1.1,6.8-2,10.2c-0.2,1.7-0.7,3.4-1.1,4.8c-0.2,0.8-0.5,1.1-0.5,1.4c-0.6,0.6-0.8,1.2-1.1,1.7
		c-1,2.6-2.2,4.9-3.5,6.9c0.3,0,0,0.3-0.7,1.7c0.2-0.6,0.5-1.2,0.7-1.7l-1.5,2.6c-0.8,0.6-1.3,1.2-2.1,2.1l-1,1.2
		c0.2-0.6,0.8-0.9,1-1.2c-0.5,0.3-1.6,1.5-2.1,1.8c-0.8,0.6-1.6,1.2-2.7,1.8c-0.3,0-0.6,0.3-1.1,0.6c0.2-0.3,0.8-0.6,1.1-0.6
		c1.3-0.9-1.9,0.9-2.5,1c-1.9,0.7-3.5,1.3-5.5,1.7c1.4-0.4-3.3,0.4-3.6,0.4l-6.2,0.3c-5.3,0.3-4.5,0-8.4-0.6c-1.4-0.2-2.8-0.7-4-0.9
		c-0.2,0-0.6-0.2-1.1-0.2c0.3,0,0.6,0,1.1,0.2c1.1,0.2-2.6-1-3.1-0.9l-3-1.8c0.3,0.2-2.9-2.2-3.4-2.6c-0.3-0.2-1.5-1.6-2.1-2.1
		l-2.1-2.7c-0.9-1.1-1.5-2.7-2.5-4.3c0-0.3-0.3-0.5-0.3-0.5c1,3-1.5-2.7,0,0c0-0.3-0.3-0.5-0.3-1.1c-1.6-3-2.6-6.3-3.6-9.6
		c-0.4-1.9-1-3.6-1.4-5.2c-0.1-1.1-0.4-2.2-0.7-3.1c0.3,0.9,0.3,0.9,0-0.5l0-0.8c-6-33.5-1.2-68.5,0-101.8l0.5-7.3
		c0.3-10.1-10.2-18.2-19.7-17.6c-10.9,0.6-17.3,9.6-17.6,19.7c-1,29.7-6.8,72.1-1.4,108.6c0.5-0.1,0.9-0.3,1.3-0.4
		c1.5-0.4,3-0.6,4.5-0.7c10.1-0.6,18.9,5.1,22.5,14.4l0.1,0.3l0.1,0.3c1.7,5.7,0.9,12.2-2.2,17.5c-2.8,5-7.4,8.4-12.6,9.6l0,0
		c8.4,13.7,21,24.3,39.5,29.5c33.5,9.4,70.4-5.8,84-38.1C630.4,137,627.3,101.1,623.6,68.6 M619.4,119.2c-0.7,12.9-2.5,25.6-6,37.5
		c-1.9,5.7-4.1,11.1-7,16.1c-2.8,4.9-5.9,9.3-9.4,12.5c-3.4,3.3-7.2,6-10.7,7.9c-3.5,1.6-6.8,2.9-9.3,3.6c-1.4,0.4-2.8,0.4-3.9,0.8
		c-0.8,0.1-1.9,0.4-2.5,0.4c-1.7,0.1-2.2,0.1-2.2,0.1l2.2-0.4c0.6,0,1.7-0.1,2.5-0.4c1.1-0.1,2.5-0.4,3.6-0.8c2.8-0.7,6-2,9.3-3.9
		c3.5-1.9,7.3-4.6,10.5-7.9c3.2-3.5,6.3-7.6,8.8-12.8c2.8-4.9,4.7-10,6.4-15.7c3-11.6,4.6-24.3,5-37.2c0.4-12.6-0.3-25.7-1.5-37.7
		c-1.2-11.9-2.7-23-4.3-32.5c-1.7-9.4-3.2-17.2-4.6-22.7c-1.2-5.5-1.9-8.3-1.9-8.3c-0.3-1.6,0.4-3.4,1.8-3.7
		c1.7-0.4,3.1,0.4,3.5,2.3l1.9,8.6c1.1,5.5,2.4,13.6,3.8,23c1.7,9.7,2.8,21.1,3.8,32.8C619.7,93.1,620.1,106.2,619.4,119.2"/>
</g>
</svg>
