<?xml version="1.0" encoding="utf-8"?>
<!-- Generator: Adobe Illustrator 24.0.1, SVG Export Plug-In . SVG Version: 6.00 Build 0)  -->
<svg version="1.1" id="Modo_de_isolamento" xmlns="http://www.w3.org/2000/svg" xmlns:xlink="http://www.w3.org/1999/xlink" x="0px"
	 y="0px" viewBox="0 0 256 52" style="enable-background:new 0 0 256 52;" xml:space="preserve">
<style type="text/css">
	.st0{fill-rule:evenodd;clip-rule:evenodd;fill:#FFFFFF;}
	.st1{fill-rule:evenodd;clip-rule:evenodd;fill:#EF0743;}
	.st2{fill:#EF0743;}
	.st3{fill:#FFFFFF;}
</style>
<g>
	<path class="st0" d="M0.02,50.1c0,1.07,0.26,1.33,1.32,1.34h7.13c1.06-0.01,1.33-0.25,1.33-1.3V1.58c0-0.94-0.28-1.23-1.21-1.23
		H1.45c-1.23,0-1.44,0.2-1.44,1.46V50.1z"/>
	<path class="st1" d="M232.68,14.3c1.97-0.09,3.82-0.22,5.69-0.27c2.63-0.07,5.27-0.07,7.89,0.37c4.82,0.82,7.68,3.52,8.78,8.3
		c0.57,2.45,0.81,4.94,0.88,7.45c0.12,3.86,0.12,7.73-0.63,11.56c-0.51,2.63-1.41,5.07-3.54,6.87c-1.58,1.34-3.47,2-5.47,2.41
		c-2.63,0.53-5.29,0.67-7.94,0.56c-3.14-0.11-6.27-0.33-9.42-0.58c-1.57-0.12-3.12-0.42-4.68-0.65c-0.83-0.13-1.2-0.56-1.31-1.42
		c-0.03-0.26-0.05-0.53-0.05-0.78c-0.01-15.38-0.01-30.75-0.01-46.13c0-0.17,0-0.35,0.01-0.53c0.05-1.08,0.25-1.27,1.36-1.27h6.99
		c1.22,0,1.41,0.17,1.43,1.4v11.88V14.3z M232.7,42.71c3.07,0.36,6.08,0.68,9.11,0.21c1.62-0.25,2.94-1.06,3.54-2.68
		c0.29-0.8,0.53-1.65,0.56-2.49c0.11-2.88,0.14-5.75,0.12-8.63c0-0.85-0.15-1.71-0.33-2.54c-0.59-2.61-1.92-3.8-4.61-3.94
		c-2.7-0.13-5.41-0.11-8.11-0.15c-0.08,0-0.16,0.04-0.28,0.06V42.71z"/>
	<path class="st0" d="M110.45,29.56c0-1.22,0.14-2.37-0.02-3.49c-0.27-1.82-1.67-2.97-3.74-3.24c-0.93-0.12-1.87-0.19-2.82-0.19
		c-3.61-0.02-7.22-0.01-10.82-0.01c-1.52,0-1.57-0.06-1.57-1.55c0-1.6,0.02-3.2-0.01-4.81c-0.01-0.68,0.3-1,0.94-1.12
		c5.48-1.02,11-1.2,16.54-0.76c2.31,0.18,4.55,0.66,6.64,1.73c2.68,1.37,4.1,3.61,4.5,6.54c0.16,1.1,0.21,2.23,0.21,3.35
		c0.01,7.23,0.01,14.48,0.01,21.7c0,0.15,0,0.27,0,0.4c-0.04,1.63-0.55,2.11-2.15,2.43c-4.67,0.92-9.4,1.2-14.17,1.24
		c-2.69,0.01-5.4-0.03-8.07-0.58c-3.73-0.76-6.1-2.89-6.85-6.7c-0.59-2.97-0.63-5.93,0.25-8.86c0.91-3.03,3.06-4.77,6.05-5.41
		c1.83-0.4,3.74-0.59,5.61-0.67c2.92-0.11,5.84-0.02,8.78-0.03H110.45z M110.51,36.03c-3.06,0-6.09-0.1-9.11,0.02
		c-1.83,0.08-2.74,1.06-2.97,2.84c-0.11,0.71-0.04,1.45,0.05,2.17c0.19,1.38,1.01,2.22,2.36,2.49c0.96,0.18,1.95,0.28,2.93,0.3
		c2.26,0.05,4.52-0.1,6.75-0.64V36.03z"/>
	<path class="st0" d="M69.64,22.71c-1.62,0.06-3.15,0.45-4.13,1.91c-0.72,1.04-0.97,2.26-1.08,3.49c-0.29,3.25-0.31,6.5,0.01,9.74
		c0.14,1.43,0.42,2.85,1.45,3.95c1.02,1.12,2.4,1.45,3.82,1.47c3.78,0.08,7.56,0.05,11.34,0.09c0.22,0,0.45,0,0.66,0
		c1.15,0.03,1.38,0.27,1.39,1.41c0.01,1.51,0.01,3.04-0.01,4.55c-0.01,1.1-0.32,1.42-1.39,1.62c-4.5,0.84-9.04,0.98-13.6,0.78
		c-2.72-0.14-5.43-0.44-7.92-1.69c-2.04-1.03-3.41-2.65-4.23-4.75c-1-2.58-1.35-5.28-1.38-7.99c-0.04-3.87,0.04-7.75,0.24-11.6
		c0.11-2.1,0.64-4.16,1.62-6.06c1.06-2.06,2.73-3.4,4.86-4.2c2.15-0.8,4.39-1.07,6.65-1.17c3.85-0.18,7.69-0.09,11.51,0.38
		c0.86,0.11,1.69,0.25,2.54,0.4c0.66,0.11,1.07,0.49,1.07,1.2c0.01,1.77,0.02,3.56,0.01,5.34c0,0.66-0.37,1.02-1.03,1.02h-6.4
		C75.65,22.61,71.65,22.64,69.64,22.71"/>
	<path class="st1" d="M194.13,36.17c0.22,1.35,0.33,2.57,0.62,3.77c0.47,1.93,1.9,2.81,3.78,3.01c1.25,0.14,2.5,0.2,3.75,0.2
		c3.54,0.02,7.07,0.01,10.62,0.01c1.29,0,1.49,0.2,1.49,1.5c0,1.56,0.01,3.12,0,4.69c-0.01,1.03-0.21,1.23-1.24,1.41
		c-5.12,0.9-10.27,0.95-15.44,0.77c-2.24-0.08-4.46-0.4-6.57-1.23c-3.24-1.27-5.01-3.79-5.86-7.04c-0.62-2.32-0.91-4.71-0.91-7.1
		c0-3.42,0.07-6.85,0.26-10.28c0.12-1.99,0.6-3.94,1.43-5.78c1.37-3,3.79-4.66,6.91-5.36c4.33-0.95,8.73-0.94,13.1-0.41
		c1.49,0.17,2.98,0.53,4.39,1.05c3.04,1.12,4.69,3.55,5.55,6.57c0.74,2.62,0.91,5.31,1.04,8.01c0.05,1.55,0.03,3.09,0.02,4.62
		c-0.01,1.06-0.41,1.48-1.46,1.56c-0.46,0.04-0.92,0.05-1.38,0.05h-19.07H194.13z M207.37,29.74c-0.2-1.41-0.32-2.74-0.61-4.04
		c-0.3-1.36-1.17-2.38-2.54-2.79c-2.26-0.68-4.54-0.63-6.81-0.01c-0.84,0.23-1.56,0.72-2.05,1.46c-1.08,1.64-1.12,3.49-1.15,5.38
		H207.37z"/>
	<path class="st0" d="M48.95,31c-0.05-2.78-0.21-5.71-0.96-8.58c-0.83-3.14-2.53-5.58-5.62-6.86c-1.73-0.71-3.56-1.1-5.43-1.2
		c-2.57-0.11-5.14-0.17-7.71-0.13c-2.31,0.04-4.59,0.36-6.78,1.16c-2.21,0.8-3.94,2.18-5.04,4.28c-1.27,2.4-1.72,5.02-1.86,7.68
		c-0.15,3.05-0.21,6.11-0.11,9.16c0.07,2.13,0.39,4.27,0.78,6.39c0.36,2,1.19,3.86,2.64,5.35c1.83,1.89,4.2,2.65,6.71,3.06
		c3.24,0.54,6.52,0.52,9.79,0.37c2.21-0.09,4.42-0.37,6.51-1.16c1.68-0.61,3.12-1.57,4.22-3.01c1.19-1.56,1.78-3.36,2.17-5.23
		c0.54-2.61,0.66-5.22,0.69-8.02L48.95,31z M39.24,34.32c-0.12,1.53-0.22,3.16-0.49,4.76c-0.43,2.56-1.62,3.63-4.22,4.06
		c-1.72,0.28-3.47,0.27-5.18-0.06c-2.2-0.43-3.36-1.72-3.78-4.09c-0.53-3.03-0.48-6.08-0.33-9.13c0.05-0.9,0.15-1.79,0.3-2.68
		c0.48-2.87,1.63-4.11,4.54-4.44c1.63-0.18,3.35-0.13,4.98,0.12c2.29,0.36,3.48,1.83,3.82,4.48c0.2,1.61,0.27,3.23,0.39,4.99
		L39.24,34.32z"/>
	<path class="st2" d="M180.89,15.14c0-0.07-0.01-0.13-0.03-0.19c-0.01-0.02-0.01-0.05-0.02-0.07c-0.03-0.07-0.06-0.14-0.11-0.19
		c-0.05-0.06-0.13-0.11-0.21-0.14c-0.17-0.06-0.4-0.08-0.73-0.08c-1.26,0-6.71-0.01-8.08,0.01c-0.03,0-0.06,0-0.08,0
		c-0.65,0.04-0.78,0.38-0.97,1.16c-0.41,1.65-9.85,35.87-9.85,35.87h6.89h0.01c2.15,0,3.56-1.65,4.22-3.64
		c0.2-0.59,1.96-6.98,3.87-13.86c2.16-7.77,4.5-16.27,4.95-17.93c0.05-0.16,0.09-0.36,0.11-0.52c0.02-0.12,0.03-0.23,0.03-0.33
		C180.89,15.21,180.89,15.17,180.89,15.14"/>
	<path class="st3" d="M157.29,14.55c0.08,0.03,0.15,0.08,0.2,0.14C157.44,14.63,157.37,14.59,157.29,14.55"/>
	<path class="st3" d="M157.02,14.5c0.1,0.01,0.18,0.03,0.25,0.05C157.2,14.52,157.11,14.51,157.02,14.5"/>
	<path class="st3" d="M155.89,14.48c-1.85,0-5.97,0-7.3,0.01C149.91,14.47,154.04,14.48,155.89,14.48"/>
	<path class="st3" d="M156.56,14.48c0.14,0,0.26,0,0.37,0.01C156.82,14.48,156.7,14.48,156.56,14.48"/>
	<path class="st3" d="M156.93,14.49c0.03,0,0.06,0,0.09,0.01C156.99,14.5,156.96,14.49,156.93,14.49"/>
	<path class="st3" d="M157.29,14.55c0,0-0.01,0-0.02,0C157.28,14.55,157.28,14.55,157.29,14.55
		C157.29,14.55,157.29,14.55,157.29,14.55"/>
	<path class="st3" d="M157.5,14.7C157.5,14.69,157.5,14.69,157.5,14.7C157.5,14.7,157.5,14.7,157.5,14.7
		C157.5,14.7,157.5,14.7,157.5,14.7"/>
	<path class="st3" d="M156.56,14.48L156.56,14.48c-0.16,0-0.39,0-0.67,0c0.27,0,0.5,0,0.66,0H156.56z"/>
	<path class="st2" d="M157.66,15.14c0-0.07-0.01-0.13-0.03-0.19c-0.01-0.02-0.01-0.05-0.02-0.07c-0.03-0.07-0.06-0.13-0.11-0.18
		c0,0-0.01-0.01-0.01-0.01c-0.05-0.06-0.12-0.1-0.2-0.14c-0.01,0-0.01,0-0.02,0c-0.07-0.03-0.16-0.04-0.26-0.05
		c-0.03,0-0.06-0.01-0.09-0.01c-0.11-0.01-0.22-0.01-0.37-0.01h-0.01c-0.16,0-0.38,0-0.66,0c-1.86,0-5.98,0-7.3,0.01
		c-0.04,0-0.08,0-0.11,0c-0.03,0-0.06,0-0.08,0c-0.65,0.04-0.78,0.38-0.97,1.16c-0.41,1.65-9.85,35.87-9.85,35.87h6.89h0.01
		c2.15,0,3.56-1.65,4.22-3.64c0.2-0.59,1.96-6.98,3.87-13.86c0.01-0.04,0.02-0.08,0.03-0.12c2.15-7.74,4.47-16.15,4.91-17.8
		c0.05-0.16,0.09-0.36,0.11-0.52c0.02-0.12,0.03-0.23,0.03-0.33C157.66,15.21,157.66,15.17,157.66,15.14"/>
	<path class="st3" d="M133.32,14.48c-1.26,0-6.68-0.01-8.07,0.01c-0.72,0.01-0.99,0.32-0.86,1.04c0.02,0.14,0.03,0.31,0.08,0.46
		c2.17,7.97,7.98,29.3,8.84,31.89c0.66,2.02,2.09,3.65,4.22,3.65h0.04c0,0,1.56-5.75,3.44-12.54c-2.68-9.67-6.02-21.86-6.43-23.53
		C134.37,14.58,134.23,14.48,133.32,14.48"/>
	<path class="st3" d="M157.82,15.45c-0.1-0.38-0.18-0.61-0.31-0.75c0.05,0.05,0.08,0.11,0.11,0.18c0.01,0.02,0.01,0.05,0.02,0.07
		c0.02,0.06,0.02,0.12,0.03,0.19c0,0.03,0,0.06,0,0.09c0,0.1-0.01,0.21-0.03,0.33c-0.03,0.16-0.06,0.36-0.11,0.52
		c-0.45,1.65-2.76,10.06-4.91,17.8c1.84,6.67,3.51,12.68,3.94,13.98c0.66,2.02,2.09,3.65,4.22,3.65h0.04c0,0,1.57-5.75,3.44-12.54
		C161.56,29.31,158.22,17.12,157.82,15.45"/>
</g>
</svg>
