<?xml version="1.0" encoding="utf-8"?>
<!-- Generator: Adobe Illustrator 24.0.1, SVG Export Plug-In . SVG Version: 6.00 Build 0)  -->
<svg version="1.1" id="Camada_1" xmlns="http://www.w3.org/2000/svg" xmlns:xlink="http://www.w3.org/1999/xlink" x="0px" y="0px"
	 viewBox="0 0 1909.59 761.91" style="enable-background:new 0 0 1909.59 761.91;" xml:space="preserve">
<style type="text/css">
	.st0{fill:#FFFFFF;}
	.st1{fill:#EF0743;}
</style>
<g>
	<g>
		<g>
			<g>
				<g>
					<g>
						<path class="st0" d="M1484.59,529.45c-41.95,0-74.84-12.56-97.75-37.34c-22.46-24.28-33.84-58.55-33.84-101.85V123.68h-108.52
							v96.48h94.69v110.8h-94.69v192.64h-117.31V12.88h343.13v382.23c0.17,23.55,8.23,23.55,16.03,23.55c5.4,0,9.12-0.98,11.05-2.93
							c1.43-1.44,4.75-6.32,4.65-20.46V12.88h117.31v377.38c0,43.53-12.06,77.94-35.84,102.29
							C1559.58,517.04,1526.3,529.45,1484.59,529.45z M1233.39,112.6h130.68v277.66c0,40.42,10.4,72.16,30.9,94.33
							c20.73,22.42,50.88,33.78,89.61,33.78c38.62,0,69.23-11.29,90.99-33.57c21.69-22.2,32.68-54.01,32.68-94.55V23.96h-95.15
							v371.25c0.09,13.45-2.55,22.98-7.87,28.33c-1.52,1.53-6.16,6.2-18.91,6.2c-8.72,0-26.86,0-27.11-34.59V23.96h-320.97v488.56
							h95.15V319.88h94.69v-88.64h-94.69V112.6z"/>
					</g>
					<g>
						<path class="st0" d="M1484.59,531.3c-42.49,0-75.83-12.76-99.11-37.94c-22.78-24.63-34.33-59.32-34.33-103.1V125.52h-104.83
							v92.79h94.69V332.8h-94.69v192.64h-121V11.03h346.83v384.08c0.15,21.7,6.65,21.7,14.18,21.7c6.1,0,8.66-1.29,9.74-2.38
							c0.99-1,4.21-5.32,4.11-19.15V11.03h121v379.23c0,44.03-12.23,78.88-36.36,103.58C1560.54,518.69,1526.82,531.3,1484.59,531.3
							z M1242.63,121.83h112.21v268.43c0,42.82,11.22,76.66,33.35,100.59c22.55,24.39,54.98,36.75,96.39,36.75
							c41.2,0,74.03-12.23,97.59-36.35c23.43-23.99,35.31-57.97,35.31-101V14.72h-113.61v380.54c0.1,14.29-3.21,19.77-5.19,21.77
							c-2.32,2.34-6.36,3.47-12.36,3.47c-9.68,0-17.71-1.91-17.87-25.38V14.72h-339.44v507.02h113.61V329.11h94.69V222h-94.69
							V121.83z M1484.59,520.22c-39.27,0-69.88-11.57-90.97-34.38c-20.83-22.52-31.39-54.68-31.39-95.58V114.44h-126.99v114.95
							h94.69v92.33h-94.69v192.64h-98.84V22.11h324.67v373.03c0.23,32.74,16.51,32.74,25.26,32.74c11.99,0,16.21-4.26,17.6-5.65
							c4.95-4.99,7.42-14.07,7.33-27.01V22.11h98.84v368.15c0,41.03-11.17,73.28-33.21,95.84
							C1554.78,508.74,1523.72,520.22,1484.59,520.22z M1231.55,110.75h134.37v279.51c0,39.94,10.23,71.26,30.41,93.07
							c20.36,22.03,50.06,33.19,88.26,33.19c38.1,0,68.27-11.11,89.67-33.01c21.34-21.84,32.16-53.22,32.16-93.25V25.8h-91.45v369.4
							c0.1,13.95-2.73,23.92-8.4,29.63c-1.66,1.67-6.69,6.75-20.22,6.75c-8.59,0-28.7,0-28.95-36.42V25.8H1140.1v484.86h91.45
							V318.03h94.69v-84.94h-94.69V110.75z"/>
					</g>
				</g>
			</g>
		</g>
		<g>
			<g>
				<g>
					<g>
						<path class="st0" d="M1902.54,523.59h-114.41l-51.87-192.91v192.91h-117.31V12.88h137.78l36.31,134.87V12.88h109.5V523.59z
							 M1796.63,512.51h94.84V23.96h-87.34v207.57l-55.88-207.57h-118.21v488.56h95.15V246.8L1796.63,512.51z"/>
					</g>
					<g>
						<path class="st0" d="M1904.39,525.44h-117.67l-48.61-180.78v180.78h-121V11.03h141.04l33.05,122.75V11.03h113.19V525.44z
							 M1789.55,521.75h111.15V14.72h-105.8v146.98l-39.57-146.98H1620.8v507.02h113.61V316.7L1789.55,521.75z M1893.31,514.36
							h-98.1l-68.18-253.58v253.58h-98.84V22.11h121.47l52.62,195.45V22.11h91.03V514.36z M1798.04,510.67h91.57V25.8h-83.64v219.69
							L1746.83,25.8h-114.95v484.86h91.45V232.82L1798.04,510.67z"/>
					</g>
				</g>
			</g>
		</g>
		<g>
			<g>
				<g>
					<g>
						<path class="st0" d="M1782.86,475.25"/>
					</g>
				</g>
			</g>
		</g>
	</g>
	<g>
		<g>
			<g>
				<path class="st0" d="M5.2,527.03V9.06h81.27v443.92h134.01v74.05H5.2z"/>
			</g>
		</g>
		<g>
			<g>
				<path class="st0" d="M249.02,402.77V133.31c0-41.41,10.6-73.44,31.83-96.08c21.21-22.63,51.78-33.95,91.71-33.95
					c39.92,0,70.49,11.32,91.71,33.95c21.21,22.64,31.82,54.67,31.82,96.08v269.46c0,41.42-10.61,73.45-31.82,96.08
					c-21.22,22.64-51.79,33.95-91.71,33.95c-39.92,0-70.49-11.31-91.71-33.95C259.62,476.22,249.02,444.19,249.02,402.77z
					 M330.29,407.52c0.24,33.92,14.39,51,42.44,51.24c28.29,0,42.32-17.08,42.08-51.24V128.21c0-33.92-14.09-50.88-42.26-50.88
					c-28.17,0-42.26,16.96-42.26,50.88V407.52z"/>
			</g>
		</g>
		<g>
			<g>
				<path class="st0" d="M541.95,402.77V133.31c0-41.9,10.37-74.05,31.1-96.44c20.74-22.4,50.98-33.59,90.72-33.59
					s70.55,11.2,92.43,33.59c21.87,22.39,32.81,54.54,32.81,96.44v50.57h-81.27v-55.63c0-33.95-14.09-50.93-42.26-50.93
					s-42.26,16.99-42.26,50.98v279.84c0.24,33.75,14.39,50.61,42.44,50.61c28.29,0,42.32-16.9,42.08-50.72v-74.26h81.27v68.99
					c0,41.9-10.94,74.05-32.81,96.44c-21.88,22.39-52.68,33.59-92.43,33.59s-69.98-11.2-90.72-33.59
					C552.32,476.82,541.95,444.67,541.95,402.77z"/>
			</g>
		</g>
		<g>
			<g>
				<path class="st0" d="M812.85,527.03L895.28,9.06h125.55l82.43,517.97h-81.27l-14.05-93.19H908.1l-13.97,93.19H812.85z
					 M918.78,362.68h78.43l-39.33-260.73L918.78,362.68z"/>
			</g>
		</g>
	</g>
	<g>
		<path class="st1" d="M102.52,700.75c0,9.62-1.5,18.01-4.49,25.17c-2.99,7.16-7.24,13.09-12.74,17.8
			c-5.51,4.7-12.21,8.23-20.12,10.58c-7.91,2.35-16.78,3.53-26.61,3.53c-4.49,0-9.73-0.19-15.71-0.56
			c-5.99-0.38-11.86-1.15-17.63-2.33V646.72c5.77-1.07,11.78-1.79,18.04-2.16c6.25-0.38,11.62-0.56,16.11-0.56
			c9.51,0,18.14,1.07,25.89,3.21c7.75,2.14,14.4,5.51,19.96,10.1c5.56,4.6,9.83,10.48,12.83,17.64
			C101.02,682.1,102.52,690.7,102.52,700.75z M30.21,736.02c1.18,0.11,2.54,0.19,4.09,0.24c1.55,0.06,3.39,0.08,5.53,0.08
			c12.51,0,21.78-3.15,27.82-9.46c6.04-6.31,9.06-15.02,9.06-26.13c0-11.65-2.89-20.47-8.66-26.45c-5.77-5.98-14.91-8.98-27.42-8.98
			c-1.71,0-3.47,0.03-5.29,0.08c-1.82,0.06-3.53,0.19-5.13,0.4V736.02z"/>
		<path class="st1" d="M147.89,647.68c0,4.38-1.42,7.83-4.25,10.34c-2.83,2.51-6.17,3.77-10.02,3.77s-7.19-1.26-10.02-3.77
			c-2.83-2.51-4.25-5.96-4.25-10.34c0-4.38,1.41-7.83,4.25-10.34c2.83-2.51,6.17-3.77,10.02-3.77s7.19,1.26,10.02,3.77
			C146.47,639.85,147.89,643.3,147.89,647.68z M145.65,756.38h-23.89v-84.33h23.89V756.38z"/>
		<path class="st1" d="M188.57,756.38c-5.47-10.69-11.03-23.19-16.66-37.52c-5.63-14.32-10.97-29.92-16.01-46.81h25.33
			c1.07,4.17,2.33,8.69,3.79,13.55c1.45,4.87,2.95,9.78,4.51,14.75c1.55,4.97,3.11,9.81,4.67,14.51c1.56,4.7,3.09,8.98,4.59,12.83
			c1.39-3.85,2.9-8.12,4.5-12.83c1.61-4.7,3.19-9.54,4.75-14.51c1.55-4.97,3.06-9.88,4.51-14.75c1.45-4.86,2.71-9.38,3.78-13.55
			h24.7c-5.04,16.89-10.37,32.49-16,46.81c-5.63,14.32-11.18,26.83-16.64,37.52H188.57z"/>
		<path class="st1" d="M247.45,714.86c0-7.48,1.15-14.03,3.45-19.64c2.3-5.61,5.32-10.29,9.06-14.03c3.74-3.74,8.04-6.58,12.91-8.5
			c4.86-1.92,9.86-2.89,14.99-2.89c11.97,0,21.43,3.66,28.38,10.98c6.95,7.32,10.42,18.09,10.42,32.31c0,1.39-0.05,2.91-0.16,4.57
			c-0.11,1.66-0.22,3.13-0.32,4.41h-54.19c0.53,4.92,2.83,8.82,6.89,11.7c4.06,2.89,9.51,4.33,16.35,4.33c4.38,0,8.68-0.4,12.91-1.2
			c4.22-0.8,7.67-1.79,10.34-2.96l3.21,19.4c-1.28,0.64-2.99,1.28-5.13,1.92c-2.14,0.64-4.52,1.2-7.13,1.68
			c-2.62,0.48-5.43,0.88-8.42,1.2c-2.99,0.32-5.99,0.48-8.98,0.48c-7.59,0-14.19-1.12-19.8-3.37c-5.61-2.24-10.26-5.31-13.95-9.22
			c-3.69-3.9-6.41-8.52-8.18-13.87C248.33,726.83,247.45,721.06,247.45,714.86z M303.57,705.72c-0.11-2.03-0.46-4.01-1.04-5.93
			c-0.59-1.92-1.5-3.63-2.73-5.13c-1.23-1.49-2.78-2.72-4.65-3.69c-1.87-0.96-4.2-1.44-6.97-1.44c-2.67,0-4.97,0.46-6.89,1.36
			c-1.92,0.91-3.53,2.11-4.81,3.61c-1.28,1.5-2.27,3.24-2.97,5.21c-0.7,1.98-1.2,3.98-1.52,6.01H303.57z"/>
		<path class="st1" d="M395.91,693.21c-2.14-0.53-4.65-1.09-7.54-1.68c-2.89-0.59-5.99-0.88-9.3-0.88c-1.5,0-3.29,0.13-5.37,0.4
			c-2.08,0.27-3.66,0.56-4.73,0.88v64.45h-23.89v-79.84c4.27-1.5,9.32-2.91,15.15-4.25c5.82-1.34,12.32-2.01,19.48-2.01
			c1.28,0,2.83,0.08,4.65,0.24c1.82,0.16,3.63,0.38,5.45,0.64c1.82,0.27,3.63,0.59,5.45,0.96c1.82,0.38,3.37,0.83,4.65,1.36
			L395.91,693.21z"/>
		<path class="st1" d="M411.94,651.05l23.89-3.85v24.85h28.7v19.88h-28.7v29.66c0,5.03,0.88,9.03,2.65,12.02
			c1.76,2.99,5.31,4.49,10.66,4.49c2.56,0,5.21-0.24,7.94-0.72c2.72-0.48,5.21-1.15,7.46-2l3.37,18.6
			c-2.89,1.18-6.09,2.19-9.62,3.05c-3.53,0.85-7.86,1.28-12.99,1.28c-6.52,0-11.92-0.88-16.19-2.65c-4.28-1.76-7.69-4.22-10.26-7.37
			c-2.57-3.15-4.36-6.97-5.37-11.46c-1.02-4.49-1.52-9.46-1.52-14.91V651.05z"/>
		<path class="st1" d="M510.06,647.68c0,4.38-1.42,7.83-4.25,10.34c-2.83,2.51-6.17,3.77-10.02,3.77c-3.85,0-7.19-1.26-10.02-3.77
			c-2.83-2.51-4.25-5.96-4.25-10.34c0-4.38,1.41-7.83,4.25-10.34c2.83-2.51,6.17-3.77,10.02-3.77c3.85,0,7.19,1.26,10.02,3.77
			C508.64,639.85,510.06,643.3,510.06,647.68z M507.81,756.38h-23.89v-84.33h23.89V756.38z"/>
		<path class="st1" d="M604.65,753.66c-2.14,0.64-4.6,1.26-7.38,1.84c-2.78,0.59-5.69,1.1-8.74,1.52c-3.05,0.43-6.15,0.77-9.3,1.04
			c-3.15,0.27-6.17,0.4-9.06,0.4c-6.95,0-13.15-1.02-18.6-3.05c-5.45-2.03-10.05-4.94-13.79-8.74c-3.74-3.79-6.6-8.39-8.58-13.79
			c-1.98-5.4-2.97-11.46-2.97-18.2c0-6.84,0.85-13.01,2.56-18.52c1.71-5.5,4.17-10.18,7.38-14.03c3.21-3.85,7.13-6.79,11.78-8.82
			c4.65-2.03,9.97-3.05,15.95-3.05c3.31,0,6.28,0.32,8.9,0.96c2.62,0.64,5.26,1.55,7.94,2.72v-38.16l23.89-3.85V753.66z
			 M550.62,713.58c0,7.37,1.66,13.31,4.97,17.8c3.31,4.49,8.23,6.73,14.75,6.73c2.14,0,4.11-0.08,5.93-0.24
			c1.82-0.16,3.31-0.35,4.49-0.56v-43.45c-1.5-0.96-3.45-1.76-5.85-2.4c-2.41-0.64-4.84-0.96-7.3-0.96
			C556.28,690.49,550.62,698.18,550.62,713.58z"/>
		<path class="st1" d="M657.39,669.81c7.05,0,12.93,0.8,17.64,2.4c4.7,1.6,8.47,3.9,11.3,6.89c2.83,2.99,4.83,6.63,6.01,10.9
			c1.17,4.28,1.76,9.03,1.76,14.27v49.7c-3.42,0.75-8.18,1.63-14.27,2.64c-6.09,1.01-13.47,1.52-22.12,1.52
			c-5.45,0-10.4-0.48-14.83-1.44c-4.44-0.96-8.26-2.54-11.46-4.73c-3.21-2.19-5.67-5.05-7.38-8.58c-1.71-3.53-2.56-7.86-2.56-12.99
			c0-4.92,0.99-9.09,2.97-12.51c1.98-3.42,4.62-6.14,7.94-8.18c3.31-2.03,7.11-3.5,11.38-4.41c4.27-0.91,8.71-1.36,13.31-1.36
			c3.1,0,5.85,0.14,8.26,0.4c2.4,0.27,4.35,0.61,5.85,1.04v-2.24c0-4.06-1.23-7.32-3.69-9.78c-2.46-2.46-6.73-3.69-12.83-3.69
			c-4.06,0-8.07,0.3-12.02,0.88c-3.96,0.59-7.38,1.42-10.26,2.49l-3.05-19.24c1.39-0.43,3.13-0.88,5.21-1.36
			c2.08-0.48,4.35-0.91,6.82-1.28c2.46-0.37,5.05-0.69,7.77-0.96C651.86,669.94,654.61,669.81,657.39,669.81z M659.32,739.71
			c2.35,0,4.59-0.05,6.73-0.16c2.14-0.1,3.85-0.26,5.13-0.48v-18.12c-0.96-0.21-2.41-0.43-4.33-0.64c-1.92-0.21-3.69-0.32-5.29-0.32
			c-2.24,0-4.36,0.13-6.33,0.4c-1.98,0.27-3.71,0.78-5.21,1.52c-1.5,0.75-2.67,1.76-3.53,3.05c-0.86,1.28-1.28,2.89-1.28,4.81
			c0,3.74,1.26,6.33,3.77,7.77C651.49,738.99,654.93,739.71,659.32,739.71z"/>
		<path class="st1" d="M748.62,726.91c0-4.06,0.59-7.77,1.76-11.13c1.17-3.36,2.74-6.41,4.72-9.13c1.97-2.72,4.26-5.13,6.88-7.21
			c2.61-2.08,5.36-3.92,8.23-5.52c-2.53-3.14-4.81-6.49-6.84-10.07c-2.03-3.58-3.05-7.51-3.05-11.78c0-9.41,2.83-16.65,8.5-21.72
			c5.66-5.08,13.47-7.61,23.41-7.61c5.02,0,9.4,0.67,13.15,2c3.74,1.34,6.87,3.15,9.38,5.45c2.51,2.3,4.41,4.97,5.69,8.02
			c1.28,3.05,1.92,6.33,1.92,9.86c0,6.52-1.85,12.32-5.54,17.4c-3.69,5.08-8.37,9.33-14.04,12.75l18.05,17.87
			c0.95-2.13,1.86-4.81,2.76-8.06c0.89-3.25,1.44-6.09,1.65-8.54l19.88,2.57c-0.21,2.03-0.59,4.25-1.12,6.66
			c-0.54,2.41-1.21,4.84-2.01,7.3c-0.8,2.46-1.71,4.92-2.73,7.38c-1.02,2.46-2.12,4.71-3.29,6.74c3.42,3.85,6.77,8.04,10.03,12.58
			c3.26,4.54,6.07,9.11,8.43,13.7h-24.44c-0.89-1.41-2.09-3.16-3.58-5.24c-1.49-2.08-2.99-3.88-4.48-5.37
			c-4.28,3.43-9.25,6.3-14.92,8.6c-5.67,2.31-12.03,3.46-19.09,3.46c-7.48,0-13.74-0.93-18.77-2.8c-5.02-1.87-9.06-4.27-12.11-7.21
			c-3.05-2.94-5.22-6.25-6.5-9.93C749.26,734.2,748.62,730.54,748.62,726.91z M770.9,724.51c0,1.6,0.32,3.25,0.97,4.96
			c0.64,1.71,1.69,3.28,3.13,4.72c1.45,1.44,3.29,2.61,5.54,3.52c2.25,0.91,4.98,1.36,8.2,1.36c4.5,0,8.44-0.6,11.81-1.79
			c3.37-1.19,6.19-2.76,8.44-4.71l-25.83-25.65c-1.49,0.75-2.95,1.66-4.38,2.72c-1.43,1.07-2.74,2.32-3.9,3.76
			c-1.17,1.44-2.13,3.07-2.87,4.88C771.27,720.09,770.9,722.17,770.9,724.51z M802,669.18c0-2.46-0.8-4.66-2.41-6.59
			c-1.6-1.92-4.28-2.89-8.02-2.89c-3.42,0-6.07,1.04-7.94,3.13c-1.87,2.08-2.81,4.79-2.81,8.1c0,2.78,0.8,5.48,2.41,8.1
			c1.6,2.62,3.67,5.12,6.2,7.51c3.43-1.93,6.38-4.23,8.85-6.91C800.77,676.95,802,673.47,802,669.18z"/>
		<g>
			<path class="st1" d="M920.01,756.37v-111.1h74.39v21h-49.38v23.25h43.93v21h-43.93v45.85H920.01z"/>
			<path class="st1" d="M1087.71,714.05c0,6.63-0.96,12.69-2.89,18.2c-1.92,5.51-4.71,10.21-8.34,14.11
				c-3.64,3.91-7.99,6.92-13.07,9.06c-5.08,2.13-10.77,3.21-17.07,3.21c-6.2,0-11.84-1.07-16.91-3.21
				c-5.08-2.14-9.43-5.16-13.07-9.06c-3.64-3.9-6.47-8.6-8.5-14.11c-2.03-5.51-3.05-11.57-3.05-18.2c0-6.63,1.04-12.67,3.13-18.12
				c2.08-5.45,4.97-10.1,8.66-13.95c3.69-3.85,8.07-6.84,13.15-8.98c5.08-2.14,10.61-3.21,16.59-3.21c6.09,0,11.68,1.07,16.75,3.21
				c5.08,2.14,9.43,5.13,13.07,8.98c3.63,3.85,6.47,8.5,8.5,13.95C1086.69,701.38,1087.71,707.42,1087.71,714.05z M1063.34,714.05
				c0-7.38-1.47-13.17-4.41-17.4c-2.94-4.22-7.13-6.33-12.59-6.33c-5.45,0-9.68,2.11-12.67,6.33c-2.99,4.22-4.49,10.02-4.49,17.4
				c0,7.37,1.49,13.23,4.49,17.56c2.99,4.33,7.21,6.49,12.67,6.49c5.45,0,9.64-2.16,12.59-6.49
				C1061.87,727.27,1063.34,721.42,1063.34,714.05z"/>
			<path class="st1" d="M1156.97,693.2c-2.14-0.53-4.65-1.09-7.54-1.68c-2.89-0.59-5.99-0.88-9.3-0.88c-1.5,0-3.29,0.13-5.37,0.4
				c-2.08,0.27-3.66,0.56-4.73,0.88v64.45h-23.89v-79.84c4.27-1.5,9.32-2.91,15.15-4.25c5.82-1.34,12.32-2.01,19.48-2.01
				c1.28,0,2.83,0.08,4.65,0.24c1.82,0.16,3.63,0.38,5.45,0.64c1.82,0.27,3.63,0.59,5.45,0.96c1.82,0.38,3.37,0.83,4.65,1.36
				L1156.97,693.2z"/>
			<path class="st1" d="M1202.5,669.8c7.05,0,12.93,0.8,17.64,2.4c4.7,1.6,8.47,3.9,11.3,6.89c2.83,2.99,4.83,6.63,6.01,10.9
				c1.17,4.28,1.76,9.03,1.76,14.27v49.7c-3.42,0.75-8.18,1.63-14.27,2.64c-6.09,1.01-13.47,1.52-22.12,1.52
				c-5.45,0-10.4-0.48-14.83-1.44c-4.44-0.96-8.26-2.54-11.46-4.73c-3.21-2.19-5.67-5.05-7.38-8.58c-1.71-3.53-2.56-7.86-2.56-12.99
				c0-4.92,0.99-9.09,2.97-12.51c1.98-3.42,4.62-6.14,7.94-8.18c3.31-2.03,7.11-3.5,11.38-4.41c4.27-0.91,8.71-1.36,13.31-1.36
				c3.1,0,5.85,0.14,8.26,0.4c2.4,0.27,4.35,0.61,5.85,1.04v-2.24c0-4.06-1.23-7.32-3.69-9.78c-2.46-2.46-6.73-3.69-12.83-3.69
				c-4.06,0-8.07,0.3-12.02,0.88c-3.96,0.59-7.38,1.42-10.26,2.49l-3.05-19.24c1.39-0.43,3.13-0.88,5.21-1.36
				c2.08-0.48,4.35-0.91,6.82-1.28c2.46-0.37,5.05-0.69,7.77-0.96C1196.97,669.93,1199.72,669.8,1202.5,669.8z M1204.43,739.7
				c2.35,0,4.59-0.05,6.73-0.16c2.14-0.1,3.85-0.26,5.13-0.48v-18.12c-0.96-0.21-2.41-0.43-4.33-0.64
				c-1.92-0.21-3.69-0.32-5.29-0.32c-2.24,0-4.36,0.13-6.33,0.4c-1.98,0.27-3.71,0.78-5.21,1.52c-1.5,0.75-2.67,1.76-3.53,3.05
				c-0.86,1.28-1.28,2.89-1.28,4.81c0,3.74,1.26,6.33,3.77,7.77C1196.6,738.97,1200.04,739.7,1204.43,739.7z"/>
			<path class="st1" d="M1373.73,753.64c-2.14,0.64-4.6,1.26-7.38,1.84c-2.78,0.59-5.69,1.1-8.74,1.52
				c-3.05,0.43-6.15,0.77-9.3,1.04c-3.15,0.27-6.17,0.4-9.06,0.4c-6.95,0-13.15-1.02-18.6-3.05c-5.45-2.03-10.05-4.94-13.79-8.74
				c-3.74-3.79-6.6-8.39-8.58-13.79c-1.98-5.4-2.97-11.46-2.97-18.2c0-6.84,0.85-13.01,2.56-18.52c1.71-5.5,4.17-10.18,7.38-14.03
				c3.21-3.85,7.13-6.79,11.78-8.82c4.65-2.03,9.97-3.05,15.95-3.05c3.31,0,6.28,0.32,8.9,0.96c2.62,0.64,5.26,1.55,7.94,2.72
				v-38.16l23.89-3.85V753.64z M1319.7,713.56c0,7.37,1.66,13.31,4.97,17.8c3.31,4.49,8.23,6.73,14.75,6.73
				c2.14,0,4.11-0.08,5.93-0.24c1.82-0.16,3.31-0.35,4.49-0.56v-43.45c-1.5-0.96-3.45-1.76-5.85-2.4c-2.41-0.64-4.84-0.96-7.3-0.96
				C1325.36,690.48,1319.7,698.17,1319.7,713.56z"/>
			<path class="st1" d="M1392.16,714.85c0-7.48,1.15-14.03,3.45-19.64c2.3-5.61,5.32-10.29,9.06-14.03
				c3.74-3.74,8.04-6.58,12.91-8.5c4.86-1.92,9.86-2.89,14.99-2.89c11.97,0,21.43,3.66,28.38,10.98
				c6.95,7.32,10.42,18.09,10.42,32.31c0,1.39-0.05,2.91-0.16,4.57c-0.11,1.66-0.22,3.13-0.32,4.41h-54.19
				c0.53,4.92,2.83,8.82,6.89,11.7c4.06,2.89,9.51,4.33,16.35,4.33c4.38,0,8.68-0.4,12.91-1.2c4.22-0.8,7.67-1.79,10.34-2.96
				l3.21,19.4c-1.28,0.64-2.99,1.28-5.13,1.92c-2.14,0.64-4.52,1.2-7.13,1.68c-2.62,0.48-5.43,0.88-8.42,1.2
				c-2.99,0.32-5.99,0.48-8.98,0.48c-7.59,0-14.19-1.12-19.8-3.37c-5.61-2.24-10.26-5.31-13.95-9.22c-3.69-3.9-6.41-8.52-8.18-13.87
				C1393.04,726.82,1392.16,721.05,1392.16,714.85z M1448.27,705.71c-0.11-2.03-0.46-4.01-1.04-5.93c-0.59-1.92-1.5-3.63-2.73-5.13
				c-1.23-1.49-2.78-2.72-4.65-3.69c-1.87-0.96-4.2-1.44-6.97-1.44c-2.67,0-4.97,0.46-6.89,1.36c-1.92,0.91-3.53,2.11-4.81,3.61
				c-1.28,1.5-2.27,3.24-2.97,5.21c-0.7,1.98-1.2,3.98-1.52,6.01H1448.27z"/>
			<path class="st1" d="M1560.18,737.29c3.53,0,6.44-0.29,8.74-0.88c2.3-0.59,4.14-1.39,5.53-2.41c1.39-1.01,2.35-2.22,2.89-3.61
				c0.53-1.39,0.8-2.94,0.8-4.65c0-3.63-1.71-6.65-5.13-9.06c-3.42-2.41-9.3-5-17.64-7.78c-3.63-1.28-7.27-2.75-10.9-4.41
				c-3.64-1.66-6.89-3.74-9.78-6.25c-2.89-2.51-5.24-5.56-7.05-9.14c-1.82-3.58-2.73-7.93-2.73-13.07c0-5.13,0.96-9.75,2.89-13.87
				c1.92-4.11,4.65-7.61,8.18-10.5c3.53-2.89,7.8-5.1,12.83-6.65c5.02-1.55,10.69-2.32,16.99-2.32c7.48,0,13.95,0.8,19.4,2.4
				c5.45,1.6,9.94,3.37,13.47,5.29l-7.21,19.72c-3.1-1.6-6.55-3.02-10.34-4.25c-3.8-1.23-8.36-1.85-13.71-1.85
				c-5.99,0-10.29,0.83-12.91,2.49c-2.62,1.66-3.93,4.2-3.93,7.62c0,2.03,0.48,3.74,1.44,5.13c0.96,1.39,2.33,2.64,4.09,3.77
				c1.76,1.12,3.79,2.14,6.09,3.05c2.3,0.91,4.83,1.84,7.61,2.8c5.77,2.14,10.79,4.25,15.07,6.33c4.27,2.08,7.83,4.52,10.66,7.29
				c2.83,2.78,4.94,6.04,6.33,9.78c1.39,3.74,2.08,8.28,2.08,13.63c0,10.37-3.64,18.41-10.9,24.13c-7.27,5.72-18.22,8.58-32.87,8.58
				c-4.92,0-9.35-0.29-13.31-0.88c-3.96-0.59-7.46-1.31-10.5-2.16c-3.05-0.85-5.67-1.77-7.86-2.73c-2.19-0.96-4.04-1.87-5.53-2.73
				l7.05-19.88c3.31,1.82,7.4,3.45,12.27,4.89C1547.17,736.57,1553.13,737.29,1560.18,737.29z"/>
			<path class="st1" d="M1617.57,714.85c0-7.48,1.15-14.03,3.45-19.64c2.3-5.61,5.32-10.29,9.06-14.03
				c3.74-3.74,8.04-6.58,12.91-8.5c4.86-1.92,9.86-2.89,14.99-2.89c11.97,0,21.43,3.66,28.38,10.98
				c6.95,7.32,10.42,18.09,10.42,32.31c0,1.39-0.05,2.91-0.16,4.57c-0.11,1.66-0.22,3.13-0.32,4.41h-54.19
				c0.53,4.92,2.83,8.82,6.89,11.7c4.06,2.89,9.51,4.33,16.35,4.33c4.38,0,8.68-0.4,12.91-1.2c4.22-0.8,7.67-1.79,10.34-2.96
				l3.21,19.4c-1.28,0.64-2.99,1.28-5.13,1.92c-2.14,0.64-4.52,1.2-7.13,1.68c-2.62,0.48-5.43,0.88-8.42,1.2
				c-2.99,0.32-5.99,0.48-8.98,0.48c-7.59,0-14.19-1.12-19.8-3.37c-5.61-2.24-10.26-5.31-13.95-9.22c-3.69-3.9-6.41-8.52-8.18-13.87
				C1618.46,726.82,1617.57,721.05,1617.57,714.85z M1677.21,641.74l-26.37,22.28l-10.98-9.78l22.68-25.97L1677.21,641.74z
				 M1673.69,705.71c-0.11-2.03-0.46-4.01-1.04-5.93c-0.59-1.92-1.5-3.63-2.73-5.13c-1.23-1.49-2.78-2.72-4.65-3.69
				c-1.87-0.96-4.2-1.44-6.97-1.44c-2.67,0-4.97,0.46-6.89,1.36c-1.92,0.91-3.53,2.11-4.81,3.61c-1.28,1.5-2.27,3.24-2.97,5.21
				c-0.7,1.98-1.2,3.98-1.52,6.01H1673.69z"/>
			<path class="st1" d="M1766.03,693.2c-2.14-0.53-4.65-1.09-7.54-1.68c-2.89-0.59-5.99-0.88-9.3-0.88c-1.5,0-3.29,0.13-5.37,0.4
				c-2.08,0.27-3.66,0.56-4.73,0.88v64.45h-23.89v-79.84c4.27-1.5,9.32-2.91,15.15-4.25c5.82-1.34,12.32-2.01,19.48-2.01
				c1.28,0,2.83,0.08,4.65,0.24c1.82,0.16,3.63,0.38,5.45,0.64c1.82,0.27,3.63,0.59,5.45,0.96c1.82,0.38,3.37,0.83,4.65,1.36
				L1766.03,693.2z"/>
			<path class="st1" d="M1809,647.67c0,4.38-1.42,7.83-4.25,10.34c-2.83,2.51-6.17,3.77-10.02,3.77s-7.19-1.26-10.02-3.77
				c-2.83-2.51-4.25-5.96-4.25-10.34s1.41-7.83,4.25-10.34c2.83-2.51,6.17-3.77,10.02-3.77s7.19,1.26,10.02,3.77
				C1807.58,639.84,1809,643.29,1809,647.67z M1806.75,756.37h-23.89v-84.33h23.89V756.37z"/>
			<path class="st1" d="M1825.19,714.85c0-7.48,1.15-14.03,3.45-19.64c2.3-5.61,5.32-10.29,9.06-14.03
				c3.74-3.74,8.04-6.58,12.91-8.5c4.86-1.92,9.86-2.89,14.99-2.89c11.97,0,21.43,3.66,28.38,10.98
				c6.95,7.32,10.42,18.09,10.42,32.31c0,1.39-0.05,2.91-0.16,4.57c-0.11,1.66-0.22,3.13-0.32,4.41h-54.19
				c0.53,4.92,2.83,8.82,6.89,11.7c4.06,2.89,9.51,4.33,16.35,4.33c4.38,0,8.68-0.4,12.91-1.2c4.22-0.8,7.67-1.79,10.34-2.96
				l3.21,19.4c-1.28,0.64-2.99,1.28-5.13,1.92c-2.14,0.64-4.52,1.2-7.13,1.68c-2.62,0.48-5.43,0.88-8.42,1.2
				c-2.99,0.32-5.99,0.48-8.98,0.48c-7.59,0-14.19-1.12-19.8-3.37c-5.61-2.24-10.26-5.31-13.95-9.22c-3.69-3.9-6.41-8.52-8.18-13.87
				C1826.07,726.82,1825.19,721.05,1825.19,714.85z M1881.3,705.71c-0.11-2.03-0.46-4.01-1.04-5.93c-0.59-1.92-1.5-3.63-2.73-5.13
				c-1.23-1.49-2.78-2.72-4.65-3.69c-1.87-0.96-4.2-1.44-6.97-1.44c-2.67,0-4.97,0.46-6.89,1.36c-1.92,0.91-3.53,2.11-4.81,3.61
				c-1.28,1.5-2.27,3.24-2.97,5.21c-0.7,1.98-1.2,3.98-1.52,6.01H1881.3z"/>
		</g>
	</g>
</g>
</svg>
