<?xml version="1.0" encoding="utf-8"?>
<!-- Generator: Adobe Illustrator 24.0.1, SVG Export Plug-In . SVG Version: 6.00 Build 0)  -->
<svg version="1.1" id="Capa_1" xmlns="http://www.w3.org/2000/svg" xmlns:xlink="http://www.w3.org/1999/xlink" x="0px" y="0px"
	 viewBox="0 0 561.96 404.68" style="enable-background:new 0 0 561.96 404.68;" xml:space="preserve">
<style type="text/css">
	.st0{fill:#FFFFFF;}
</style>
<g>
	<path class="st0" d="M318.04,302.6c-0.05-0.12-0.11-0.24-0.19-0.33c-0.09-0.1-0.22-0.19-0.36-0.24c-0.29-0.1-0.68-0.13-1.26-0.13
		c-2.15,0-11.51-0.01-13.85,0.01c-0.05,0-0.1,0-0.14,0c-1.12,0.07-1.33,0.64-1.67,1.98c-0.7,2.83-16.89,61.54-16.9,61.54h11.83h0.01
		c3.68,0,6.11-2.82,7.24-6.25c0.33-1.01,3.37-11.98,6.65-23.77c3.71-13.33,7.72-27.91,8.49-30.75c0.09-0.27,0.15-0.62,0.2-0.9
		c0.04-0.2,0.05-0.4,0.05-0.56c0-0.05,0-0.11,0-0.16c-0.01-0.12-0.02-0.22-0.05-0.32C318.06,302.68,318.06,302.64,318.04,302.6z"/>
	<path class="st0" d="M278.2,302.6c-0.05-0.12-0.1-0.23-0.18-0.32c-0.01-0.01-0.01-0.01-0.02-0.02c-0.09-0.1-0.21-0.18-0.35-0.23
		c-0.01,0-0.02,0-0.03-0.01c-0.12-0.04-0.27-0.07-0.44-0.09c-0.05-0.01-0.1-0.01-0.15-0.01c-0.19-0.01-0.39-0.02-0.63-0.02h-0.02
		c-0.27,0-0.66,0-1.13,0c-3.19,0-10.26-0.01-12.52,0.01c-0.06,0-0.14,0-0.19,0c-0.05,0-0.1,0-0.14,0c-1.12,0.07-1.33,0.64-1.67,1.98
		c-0.7,2.83-16.89,61.54-16.9,61.54h11.83h0.01c3.68,0,6.11-2.82,7.24-6.25c0.33-1.01,3.37-11.98,6.65-23.77
		c0.02-0.07,0.04-0.14,0.06-0.21c3.69-13.27,7.66-27.71,8.43-30.54c0.09-0.27,0.15-0.62,0.2-0.9c0.04-0.2,0.05-0.4,0.05-0.56
		c0-0.05,0-0.11,0-0.16c-0.01-0.12-0.02-0.22-0.05-0.32C278.22,302.68,278.21,302.64,278.2,302.6z"/>
	<path class="st0" d="M553.11,386.95h-5.47v-99.86c0-12.28-4.68-23.49-12.35-31.94c-8.7-9.59-21.26-15.63-35.2-15.64
		c-0.02,0-0.03,0-0.05,0l-17.39,0.01l-0.86,0v-8.34c24.39-14.51,39.51-40.93,39.51-69.17v-59.27c0-2.55-0.16-5.07-0.44-7.55
		c8.07-4.7,15.36-12.15,17.81-24.04c4.46-21.66-11.86-43.04-21.99-53.85c-2.52-2.7-6.05-4.19-9.76-4.11
		c-3.72,0.09-7.25,1.78-9.69,4.64c-3.62,4.25-12.81,11.39-33.65,11.48c-13.55,0.06-32.04,0.19-54.96,0.41
		c-16.9,0.16-31.74,9.45-39.99,23.21c-7.22-10.5-18.51-18-31.58-20.2V8c0-4.42-3.58-8-8-8h-64c-0.04,0-0.07,0.02-0.1,0.02
		c-37.91,0.05-69.7,26.6-77.85,62.08c-5.03-6.6-11.23-12.27-18.32-16.64c-10.18-6.29-22.15-9.95-34.96-10.01l-0.06-0.02H108
		l-0.3,0.01l-0.03,0.01c-12.8,0.06-24.77,3.72-34.94,10.01C57.08,55.12,45.67,71,41.96,89.61c-0.85,4.26-1.3,8.66-1.3,13.17v22.18
		v37.09v82.53c-5.3,2.66-10.04,6.27-13.99,10.62c-7.67,8.45-12.35,19.66-12.35,31.94v100H8.68c-4.77,0-8.68,3.91-8.68,8.68
		s3.91,8.68,8.68,8.68h302.99c4.77,0,8.68-3.91,8.68-8.68s-3.91-8.68-8.68-8.68H169.03V304c0-11.48,4.87-21.84,12.65-29.15
		c3.25-3.05,7.01-5.57,11.14-7.41c4.96-2.21,10.44-3.45,16.21-3.45l28.69,0.02l13.66,13.64c0.13,0.13,0.3,0.17,0.43,0.28
		c0.52,0.47,1.1,0.83,1.73,1.15c0.26,0.13,0.5,0.28,0.76,0.38c0.87,0.32,1.78,0.53,2.74,0.53c0.83,0,1.69-0.14,2.53-0.42l42.94,0.01
		c0.84,0.27,1.7,0.41,2.53,0.41c0.95,0,1.86-0.21,2.74-0.53c0.27-0.1,0.5-0.26,0.76-0.38c0.63-0.31,1.2-0.68,1.73-1.15
		c0.14-0.12,0.3-0.16,0.43-0.28l13.66-13.64l28.68-0.02c5.77,0,11.25,1.24,16.21,3.45c4.13,1.84,7.89,4.35,11.14,7.41
		c7.78,7.3,12.65,17.66,12.65,29.15v82.95h-34.45c-4.87,0-8.85,3.98-8.85,8.85v0.03c0,4.87,3.98,8.85,8.85,8.85h194.53
		c4.87,0,8.85-3.98,8.85-8.85v-0.03C561.96,390.93,557.97,386.95,553.11,386.95z M56.83,210.24c6.25,8.33,14.13,15.5,23.34,20.98
		v8.34l-0.86,0l-17.39-0.01c-0.02,0-0.03,0-0.05,0c-1.7,0-3.38,0.1-5.03,0.27V210.24z M172.33,261.77
		c-11.81,10.28-19.29,25.39-19.29,42.23v83.14H30.49v-100c0-17.32,14.09-31.42,31.41-31.42c0,0,0.01,0,0.01,0l22.99,0.01l1.91,0.01
		c8.61,7.87,20.64,12.78,33.93,12.78c13.19,0,25.13-4.83,33.72-12.59l2.11-0.19l0.87,0l5.14,0l17.02-0.01l0.83,0
		c0.1,0,0.2,0.01,0.3,0.01C177.74,257.48,174.93,259.5,172.33,261.77z M95.47,244.29v-5.76c0.29,0.09,0.57,0.17,0.86,0.26
		c8.02,2.52,16.22,3.77,24.42,3.72c8.19,0.04,16.39-1.2,24.39-3.72c0.29-0.09,0.57-0.17,0.86-0.26v5.76l-1.22,1.22
		c-6.09,5.17-14.62,8.39-24.05,8.39c-9.46,0-18-3.25-24.1-8.44L95.47,244.29z M184.65,239.74c-1.4-0.12-2.81-0.19-4.22-0.19l-3.38,0
		l-14.88,0.01l-0.86,0v-8.34c9.21-5.48,17.09-12.65,23.34-20.98V239.74z M184.65,162.05c0,35.33-28.64,64.09-63.92,64.32
		c-35.28-0.24-63.91-28.99-63.91-64.32v-20.69c33.46-0.85,65.1-23.35,80.32-36.02c0.79-0.66,1.97-0.48,2.52,0.39
		c7.46,11.73,21.96,29.01,44.99,34.63V162.05z M184.65,122.58v1.13c-24.66-8.38-36.25-35.23-36.36-35.51l-1.21-2.92
		c-1.6-3.86-6.61-4.86-9.58-1.92l-2.24,2.23c-0.4,0.4-39.23,38.54-78.43,39.78v-0.41v-22.18c0-3.03,0.28-5.99,0.79-8.88
		c3.09-17.56,15.15-32.05,31.27-38.56c5.91-2.39,12.36-3.72,19.11-3.72l12.33,0l13.15,0c6.76,0,13.2,1.33,19.11,3.72
		c16.12,6.52,28.19,21.01,31.27,38.57c0.51,2.89,0.79,5.85,0.79,8.88V122.58z M377.71,77.89c0-17.59,13.93-32.02,31.05-32.18
		c22.89-0.21,41.36-0.35,54.88-0.41c24.02-0.1,37.06-8.39,43.51-14.69c7.05,8.02,18.65,23.68,15.84,37.31
		c-3.62,17.58-29.1,19.13-30.69,19.21H377.71V77.89z M377.3,103.13h115.28l0.12,0c0.57-0.02,5.72-0.22,12.4-1.81
		c0.01,0.47,0.03,0.94,0.03,1.42V162c0,35.33-28.63,64.08-63.91,64.32c-35.28-0.23-63.92-28.99-63.92-64.32V103.13z M466.48,238.49
		v5.12l-25.3,11.91l-25.24-11.83v-5.2c0.29,0.09,0.57,0.17,0.86,0.26c8.01,2.52,16.2,3.77,24.39,3.72c8.2,0.05,16.4-1.2,24.42-3.72
		C465.91,238.66,466.2,238.58,466.48,238.49z M201.03,80c0-35.28,28.71-63.98,64-63.98v0c0.03,0,0.05-0.02,0.08-0.02h55.92v24
		c0,4.42,3.58,8,8,8c17.65,0,32,14.35,32,32v20.69l-10.34-10.34c-0.11-0.11-0.25-0.14-0.36-0.23c-0.42-0.38-0.89-0.64-1.37-0.91
		c-0.44-0.25-0.84-0.52-1.3-0.69c-0.48-0.17-0.96-0.2-1.46-0.28c-0.52-0.08-1.02-0.18-1.54-0.16c-0.49,0.02-0.94,0.17-1.42,0.27
		c-0.54,0.14-1.07,0.24-1.58,0.49c-0.14,0.06-0.28,0.06-0.42,0.13c-0.28,0.15-28.31,15.04-60.21,15.04
		c-31.74,0-59.94-14.9-60.22-15.05c-0.14-0.07-0.27-0.06-0.41-0.13c-0.5-0.23-1.03-0.35-1.58-0.48c-0.49-0.12-0.95-0.26-1.46-0.28
		c-0.5-0.02-0.96,0.08-1.46,0.15c-0.52,0.07-1.04,0.12-1.54,0.3c-0.45,0.16-0.84,0.43-1.26,0.67c-0.49,0.28-0.96,0.54-1.38,0.92
		c-0.11,0.1-0.25,0.13-0.36,0.23l-10.34,10.35V80z M233.03,248.02L209.04,248c-0.01,0-0.01,0-0.01,0c-0.5,0-0.99,0.03-1.49,0.05
		c-2.14-1.49-4.39-2.8-6.72-3.91V204.6c8.22,12.46,19.26,22.9,32.21,30.41V248.02z M313.03,252.7l-10.16,10.15h-43.68l-10.16-10.15
		v-10.3c10.02,3.56,20.77,5.6,32,5.6c11.23,0,21.98-2.04,32-5.6V252.7z M281.03,232c-44.11,0-80-35.88-80-79.98v-28.7l17.63-17.63
		c10.47,4.77,34.85,14.32,62.37,14.32s51.9-9.55,62.37-14.32l17.63,17.63v28.7C361.03,196.12,325.14,232,281.03,232z M354.37,248.04
		c-0.45-0.01-0.89-0.04-1.34-0.04c0,0,0,0-0.01,0l-23.99,0.02v-13c16.66-9.67,30.17-24.19,38.57-41.62
		c6.64,15.52,18.09,28.89,33.04,37.78v8.34l-0.86,0l-14.88-0.01l-3.38,0C371.69,239.5,362.3,242.5,354.37,248.04z M389.74,261.77
		c-2.62-2.28-5.47-4.32-8.48-6.09c0.09,0,0.18-0.01,0.27-0.01l0.83,0l17.02,0.01l5.14,0l0.87,0l1.09,0.02l-0.04,0.09l34.77,16.3
		l34.82-16.4l1.04-0.01l22.99-0.01c0,0,0.01,0,0.01,0c17.32,0.01,31.41,14.1,31.41,31.42v99.86H409.03V304
		C409.03,287.16,401.55,272.04,389.74,261.77z"/>
</g>
</svg>
