<?xml version="1.0" encoding="utf-8"?>
<!-- Generator: Adobe Illustrator 24.0.1, SVG Export Plug-In . SVG Version: 6.00 Build 0)  -->
<svg version="1.1" id="Capa_1" xmlns="http://www.w3.org/2000/svg" xmlns:xlink="http://www.w3.org/1999/xlink" x="0px" y="0px"
	 viewBox="0 0 287.36 404.68" style="enable-background:new 0 0 287.36 404.68;" xml:space="preserve">
<style type="text/css">
	.st0{fill:#FFFFFF;}
</style>
<g>
	<g>
		<g>
			<path class="st0" d="M242.13,213.79c-1.7-3.53-5.99-4.91-9.39-2.98l-0.01,0c-3.08,1.75-4.26,5.58-2.73,8.77
				c6.21,12.89,9.47,27.13,9.47,41.55c0,54.04-45.01,97.76-99.5,95.65c-49.68-1.92-89.94-42.19-91.86-91.86
				c-2.11-54.5,41.61-99.5,95.65-99.5c26.4,0,51.36,10.79,69.41,29.8c2.44,2.58,6.46,2.83,9.19,0.56c2.97-2.48,3.26-6.96,0.6-9.77
				c-20.59-21.71-49.06-34.03-79.19-34.03c-61.62,0-111.48,51.33-109.07,113.47c2.19,56.65,48.11,102.56,104.76,104.76
				c62.15,2.41,113.47-47.45,113.47-109.07C252.91,244.7,249.2,228.48,242.13,213.79z"/>
		</g>
	</g>
	<g>
		<path class="st0" d="M200.75,214.13c-0.01-0.18-0.03-0.34-0.07-0.49c-0.02-0.06-0.03-0.13-0.05-0.19
			c-0.07-0.19-0.16-0.36-0.29-0.5c-0.14-0.16-0.33-0.28-0.56-0.37c-0.44-0.16-1.04-0.2-1.93-0.2c-3.31,0-17.66-0.02-21.26,0.02
			c-0.07,0-0.15,0-0.22,0c-1.71,0.1-2.05,0.99-2.56,3.05c-1.07,4.34-25.92,94.44-25.93,94.44h18.15h0.01
			c5.65,0,9.38-4.33,11.11-9.59c0.51-1.54,5.17-18.38,10.2-36.49c5.69-20.46,11.85-42.83,13.03-47.19c0.13-0.41,0.23-0.96,0.3-1.37
			c0.05-0.31,0.08-0.61,0.08-0.87C200.76,214.3,200.76,214.2,200.75,214.13"/>
		<path class="st0" d="M139.6,214.13c-0.01-0.18-0.03-0.34-0.07-0.49c-0.02-0.06-0.03-0.13-0.05-0.19
			c-0.07-0.19-0.16-0.35-0.28-0.48c-0.01-0.01-0.02-0.02-0.03-0.03c-0.14-0.15-0.32-0.27-0.54-0.36c-0.02,0-0.03-0.01-0.05-0.01
			c-0.19-0.07-0.41-0.11-0.67-0.14c-0.07-0.01-0.15-0.02-0.23-0.02c-0.28-0.02-0.59-0.03-0.97-0.03h-0.03c-0.41,0-1.01,0-1.73,0
			c-4.89,0-15.75-0.01-19.22,0.01c-0.1,0-0.22,0-0.3,0.01c-0.07,0-0.15,0-0.22,0c-1.71,0.1-2.05,0.99-2.56,3.05
			c-1.07,4.34-25.92,94.44-25.93,94.44h18.15h0.02c5.65,0,9.37-4.33,11.11-9.59c0.51-1.54,5.17-18.38,10.2-36.49
			c0.03-0.11,0.06-0.21,0.09-0.32c5.66-20.37,11.76-42.53,12.94-46.87c0.13-0.41,0.23-0.96,0.3-1.37c0.05-0.31,0.08-0.61,0.08-0.87
			C139.61,214.3,139.61,214.2,139.6,214.13"/>
	</g>
	<g>
		<path class="st0" d="M238.92,153.75V88.01c0-3.97-1.31-7.62-3.5-10.6l49.32-62.95l0.85-1.09C289.84,7.95,285.97,0,279.08,0H279
			h-25.63H236.3h-29.64h-17.07h-25.64h-17.07l-3.14,4.01L140.61,0h-17.07H97.9H80.84H51.2H34.13H8.49H8.17
			C1.37,0-2.44,7.83,1.75,13.19l1,1.28l49.31,62.93c-2.22,3.02-3.49,6.72-3.49,10.61v65.75C18.76,180.21-0.01,218.86,0.19,261.81
			c0.36,77.1,62.34,140.64,139.42,142.82c81.04,2.29,147.69-62.97,147.69-143.5C287.3,218.45,268.58,180.07,238.92,153.75z
			 M267.67,14.46l-43.79,55.88c-0.94-0.15-1.9-0.25-2.88-0.25h-22.55l43.58-55.63H267.67z M216.48,98.5c0-0.01,0-0.02,0-0.03
			c-0.03-0.27-0.08-0.54-0.14-0.8c-0.01-0.06-0.03-0.12-0.05-0.19c-0.06-0.24-0.14-0.48-0.23-0.71c-0.01-0.04-0.02-0.07-0.04-0.1
			c-0.11-0.27-0.23-0.52-0.37-0.77c-0.03-0.05-0.06-0.09-0.08-0.14c-0.13-0.21-0.26-0.41-0.41-0.61c-0.02-0.03-0.04-0.06-0.06-0.09
			l-9.04-11.53H221c2.47,0,4.48,2.01,4.48,4.48v55.17c-2.91-2.02-5.9-3.94-8.96-5.75V99.21C216.52,98.97,216.51,98.73,216.48,98.5z
			 M203.08,105.92v24.49c-18.09-8.25-38.19-12.85-59.34-12.85c-21.15,0-41.25,4.6-59.35,12.85v-24.5H203.08z M224.97,14.46
			l-36.51,46.6l-14.82-18.92l21.69-27.68H224.97z M178.26,14.46L165.1,31.26L152.28,14.9l0.34-0.43H178.26z M134.87,14.46L196,92.49
			h-17.87h-7.77l-61.13-78.02H134.87z M19.82,14.46h72.35l61.13,78.02h-29.64L73.19,28.07c-2.29-2.92-6.51-3.43-9.43-1.15l0,0
			c-2.92,2.29-3.43,6.51-1.15,9.43l43.98,56.13H80.96L19.82,14.46z M70.97,101.52v35.91c-3.06,1.81-6.05,3.73-8.96,5.75V90.09
			L70.97,101.52z M146.67,391.21C72.61,392.85,12.03,332.26,13.66,258.2c1.53-69.29,57.86-125.63,127.16-127.16
			c74.06-1.64,134.65,58.96,133.02,133.02C272.3,333.35,215.97,389.69,146.67,391.21z"/>
	</g>
</g>
</svg>
